{"glyphs":{"0":{"ha":1122,"x_min":0,"x_max":0,"o":"m 157 26 b 154 10 156 21 155 15 l 154 10 b 145 45 152 20 147 35 l 133 45 b 124 10 130 35 126 20 l 123 10 b 116 45 122 20 118 35 l 101 45 l 115 -3 l 130 -3 b 138 29 133 7 137 18 l 138 29 b 146 -3 140 19 144 7 l 161 -3 l 176 45 l 161 45 z m 236 26 b 233 10 235 21 234 15 l 233 10 b 224 45 231 20 227 35 l 212 45 b 203 10 210 35 205 20 l 203 10 b 196 45 201 20 198 35 l 180 45 l 195 -3 l 210 -3 b 218 29 212 7 216 18 l 218 29 b 226 -3 219 19 223 7 l 241 -3 l 256 45 l 241 45 z m 316 26 b 313 10 315 21 314 15 l 313 10 b 304 45 311 20 306 35 l 292 45 b 283 10 289 35 285 20 l 282 10 b 275 45 281 20 277 35 l 260 45 l 274 -3 l 289 -3 b 297 29 292 7 296 18 l 297 29 b 305 -3 299 19 303 7 l 320 -3 l 335 45 l 320 45 z m 345 14 b 345 -4 334 15 334 -4 b 355 5 351 -4 355 0 b 345 14 354 11 351 14 z m 381 58 l 366 54 l 366 45 l 359 45 l 359 33 l 366 33 b 370 1 366 25 364 6 b 392 -2 374 -4 387 -5 l 392 9 b 381 18 386 8 380 9 l 381 33 l 392 33 l 392 45 l 381 45 z m 453 26 b 450 10 452 21 450 15 l 450 10 b 441 45 448 20 443 35 l 429 45 b 420 10 426 35 421 20 l 419 10 b 412 45 418 20 414 35 l 397 45 l 411 -3 l 426 -3 b 434 29 429 7 433 18 l 434 29 b 442 -3 436 19 440 7 l 457 -3 l 472 45 l 457 45 z m 487 65 b 487 51 477 66 476 50 b 496 58 492 50 496 54 b 487 65 495 62 492 65 z m 495 -3 l 495 45 l 480 45 l 480 -3 z m 537 46 b 522 38 528 46 523 41 l 521 38 l 521 45 l 507 45 b 508 -3 508 36 508 7 l 523 -3 b 524 28 523 -1 523 26 b 540 22 527 37 541 35 l 540 -3 l 556 -3 l 556 25 b 537 46 556 40 547 46 z m 584 -3 l 584 67 l 568 67 l 568 -3 z m 619 46 b 593 21 601 46 593 31 b 639 0 592 -3 621 -8 l 637 10 b 608 16 629 7 609 5 l 641 16 b 619 46 643 29 638 46 z m 608 27 b 627 27 609 39 627 39 z m 668 58 l 653 54 l 653 45 l 646 45 l 646 33 l 653 33 b 657 1 653 25 651 6 b 679 -2 661 -4 674 -5 l 679 9 b 668 18 672 8 667 9 l 668 33 l 679 33 l 679 45 l 668 45 z m 705 58 l 690 54 l 690 45 l 684 45 l 684 33 l 690 33 b 694 1 690 25 688 6 b 716 -2 698 -4 711 -5 l 716 9 b 705 18 710 8 704 9 l 705 33 l 716 33 l 716 45 l 705 45 z m 747 46 b 722 21 729 46 722 31 b 767 0 720 -3 749 -8 l 765 10 b 736 16 757 7 738 5 l 769 16 b 747 46 772 29 767 46 z m 736 27 b 756 27 738 39 756 39 z m 793 35 l 793 35 l 792 45 l 779 45 b 779 -3 780 37 779 7 l 795 -3 b 795 24 795 -1 794 23 b 810 31 795 30 804 33 l 810 45 b 793 35 803 47 796 44 z m 819 14 b 819 -4 807 15 807 -4 b 828 5 825 -4 828 0 b 819 14 828 11 825 14 z m 865 8 b 850 21 857 8 850 12 b 874 32 850 33 865 37 l 876 44 b 876 -1 820 59 822 -19 l 874 10 b 865 8 872 9 869 8 z m 908 46 b 907 -4 872 47 872 -5 b 908 46 941 -5 945 46 z m 908 7 b 908 35 894 6 893 35 b 908 7 923 35 921 6 z m 1003 46 b 987 37 996 46 991 43 l 987 37 b 958 38 982 50 962 47 l 957 38 l 957 45 l 944 45 b 944 -3 944 36 944 7 l 959 -3 l 959 24 b 967 34 959 28 961 33 b 975 23 972 34 975 30 l 975 -3 l 990 -3 b 990 28 990 0 989 26 b 1006 22 994 37 1007 34 l 1006 -3 l 1021 -3 l 1021 24 b 1003 46 1021 40 1013 46 z m 282 102 l 282 107 l 262 107 l 262 102 z m 324 116 b 332 115 327 116 330 116 l 333 120 b 333 85 294 134 294 69 l 332 90 b 310 102 323 85 310 89 b 324 116 310 110 315 116 z m 375 103 b 338 102 375 128 337 128 b 375 103 337 77 375 75 z m 356 88 b 356 117 342 87 340 117 b 356 88 372 116 370 87 z m 407 106 l 407 83 l 413 83 l 413 107 b 422 116 413 112 417 116 b 430 105 428 116 430 112 l 430 83 l 437 83 l 437 106 b 412 114 437 126 419 126 l 412 114 b 389 115 409 125 393 123 l 389 115 l 389 121 l 383 121 b 383 83 383 114 383 91 l 390 83 b 390 109 390 86 389 108 b 407 106 393 120 408 118 z m 468 122 b 454 115 462 122 457 119 l 454 115 l 454 121 l 448 121 b 448 68 448 113 448 77 l 455 68 l 455 88 l 455 88 b 484 103 464 76 484 84 b 468 122 484 114 477 122 z m 465 88 b 455 96 460 88 456 91 b 455 105 455 98 455 103 b 466 116 455 111 460 117 b 465 88 481 117 480 87 z m 499 83 l 499 139 l 492 139 l 492 83 z m 508 93 b 531 88 507 81 525 79 l 531 88 l 532 83 l 538 83 b 537 107 537 89 537 101 b 510 119 538 121 522 126 l 512 114 b 530 107 520 119 531 118 b 508 93 516 107 508 102 z m 531 103 b 521 88 531 96 530 88 b 515 94 518 88 515 90 b 531 103 515 101 523 103 z m 556 130 l 549 128 l 549 121 l 544 121 l 544 116 l 549 116 b 552 85 550 110 547 90 b 566 84 554 82 562 82 l 565 89 b 556 96 561 87 556 89 l 556 116 l 566 116 l 566 121 l 556 121 l 556 130 z m 600 90 b 577 101 592 86 577 87 l 603 101 b 588 122 604 109 602 122 b 570 102 577 122 570 113 b 601 85 569 84 589 79 z m 588 117 b 597 106 595 117 597 110 l 577 106 b 588 117 578 111 581 117 z m 637 88 b 628 90 633 88 630 89 l 626 85 b 651 94 634 80 651 83 b 641 105 651 100 647 103 b 640 117 632 107 631 116 b 648 115 643 117 646 116 l 649 120 b 627 111 642 125 626 121 b 637 100 627 106 630 103 b 637 88 646 98 647 88 z m 690 104 b 674 122 690 111 687 122 b 657 102 663 122 657 113 b 688 85 656 84 675 79 l 687 90 b 663 101 678 86 663 87 l 690 101 b 690 104 690 102 690 103 z m 663 106 b 683 106 665 120 684 121 z m 707 130 l 700 128 l 700 121 l 694 121 l 694 116 l 700 116 b 703 85 701 110 698 90 b 716 84 705 82 713 82 l 716 89 b 707 96 711 87 706 89 l 707 116 l 716 116 l 716 121 l 707 121 z m 757 122 b 756 83 733 123 731 82 b 757 122 779 81 782 122 z m 756 88 b 756 117 742 87 740 117 b 756 88 773 116 770 87 z m 815 83 l 815 106 b 790 115 815 126 796 125 l 790 115 l 789 121 l 783 121 b 783 83 784 114 783 91 l 790 83 b 791 109 790 86 790 108 b 809 105 794 120 810 118 l 809 83 z m 859 102 l 859 107 l 840 107 l 840 102 z m 742 518 b 746 542 745 525 747 534 b 736 553 745 547 740 556 b 723 494 724 539 724 512 b 742 518 731 500 738 508 z m 545 608 b 516 607 537 608 524 607 b 514 478 520 565 514 521 b 520 428 513 462 512 439 b 553 449 531 412 548 441 b 568 500 561 465 564 483 b 574 565 572 522 573 543 b 574 607 574 568 576 607 b 545 608 565 608 554 607 z m 418 518 b 422 542 421 525 424 534 b 412 553 421 547 417 556 b 399 494 401 539 401 512 b 418 518 408 500 414 508 z m 1097 667 b 561 1203 1097 963 857 1203 b 174 296 90 1205 -150 630 l 82 296 l 82 164 l 1041 164 l 1041 296 l 947 296 b 1097 667 1040 392 1097 523 z m 984 260 b 982 193 1031 260 1028 191 b 984 260 936 192 939 261 z m 623 899 b 675 888 629 938 682 928 b 675 887 675 888 675 887 b 628 867 676 859 646 843 b 623 899 622 877 621 888 z m 611 773 b 619 831 614 801 612 803 b 669 824 626 859 670 853 b 660 732 665 793 661 763 b 664 706 660 724 659 713 b 683 714 670 699 680 710 b 696 747 689 724 693 736 b 709 846 708 779 709 813 b 732 869 710 858 719 869 b 755 846 745 869 754 858 b 757 773 757 822 757 797 b 827 869 767 807 780 875 b 851 793 858 858 852 819 b 847 735 851 773 847 754 b 859 707 847 725 848 711 b 896 723 872 703 888 714 b 927 872 930 763 943 822 b 848 913 919 895 875 942 b 817 895 833 897 827 869 b 820 931 814 903 813 915 b 941 914 848 976 916 949 b 867 669 1000 836 964 696 b 804 824 774 647 797 769 b 801 833 804 826 805 839 b 779 778 790 817 785 796 b 763 713 773 757 768 735 b 737 673 759 697 757 675 b 708 699 721 670 709 684 b 708 716 708 704 708 710 b 644 673 698 687 678 659 b 611 773 606 689 609 738 z m 430 1058 b 576 1000 484 1087 551 1049 b 598 770 612 931 603 844 b 522 670 596 726 581 656 b 486 713 502 676 492 695 b 408 690 476 670 438 649 b 391 763 394 710 392 739 b 389 846 389 791 389 818 b 416 872 390 861 401 872 b 442 846 430 873 442 860 b 441 780 442 823 441 803 b 457 713 443 761 436 712 b 474 742 467 714 472 733 b 486 825 478 759 479 805 b 526 822 494 842 526 840 b 527 743 526 799 527 758 b 566 729 528 706 557 687 b 520 1014 575 814 591 953 b 423 987 485 1045 432 1030 b 397 1009 420 977 395 984 b 430 1058 400 1035 416 1050 z m 167 904 b 380 964 208 964 315 962 b 499 936 416 965 472 965 b 504 921 502 932 505 927 b 466 910 502 905 477 909 b 361 913 431 912 396 915 b 355 778 358 868 356 823 b 370 605 352 719 355 662 b 347 596 372 592 355 594 b 301 762 287 613 303 714 b 307 911 301 812 303 861 b 304 911 306 911 305 911 b 195 886 288 909 187 910 b 238 883 202 877 228 883 b 238 855 256 884 256 856 b 182 861 219 853 198 851 b 167 904 167 870 161 888 z m 137 246 l 137 194 l 122 194 l 122 246 l 102 246 l 102 259 l 157 259 l 157 246 z m 209 194 l 209 221 l 181 221 l 181 194 l 165 194 l 165 259 l 181 259 l 181 234 l 209 234 l 209 259 l 224 259 l 224 194 z m 253 194 l 237 194 l 237 259 l 253 259 z m 284 193 b 264 197 276 193 268 195 l 267 210 b 296 212 273 206 296 200 b 284 221 296 216 293 218 b 265 240 273 224 265 230 b 309 256 264 260 295 264 l 306 244 b 290 248 303 245 298 248 b 294 233 277 247 276 236 b 284 193 322 225 317 192 z m 387 246 l 359 246 l 359 232 l 386 232 l 386 220 l 359 220 l 359 194 l 344 194 l 344 259 l 387 259 z m 430 193 b 431 260 383 192 386 261 b 430 193 478 260 476 191 z m 518 194 b 490 243 510 208 497 228 l 490 243 b 490 194 490 228 490 209 l 476 194 l 476 259 l 495 259 b 521 212 503 246 516 227 l 522 212 b 520 259 520 226 521 244 l 535 259 l 535 194 z m 578 246 l 578 194 l 563 194 l 563 246 l 543 246 l 543 259 l 598 259 l 598 246 z m 642 194 l 627 194 l 627 259 l 642 259 z m 674 193 b 653 197 666 193 657 195 l 657 210 b 686 212 662 206 685 200 b 674 221 686 216 682 218 b 654 240 662 224 654 230 b 699 256 653 260 684 264 l 695 244 b 680 248 692 245 687 248 b 683 233 666 247 666 236 b 674 193 711 225 707 192 z m 785 202 b 733 194 776 192 747 192 l 733 258 b 785 252 748 260 775 261 b 785 202 801 243 799 211 z m 807 194 l 807 259 l 851 259 l 851 246 l 822 246 l 822 233 l 849 233 l 849 221 l 822 221 l 822 206 l 853 206 l 853 194 z m 924 194 b 923 248 924 211 923 230 l 922 248 b 905 195 918 232 910 210 l 893 195 l 885 221 b 879 248 883 229 881 239 l 879 248 b 876 194 878 231 877 210 l 862 194 l 866 259 l 888 259 l 894 238 b 900 214 896 230 899 222 l 900 214 b 915 259 904 228 910 246 l 936 259 l 939 194 l 924 194 z m 924 325 b 770 334 874 358 810 338 b 235 306 592 319 414 291 b 238 342 213 309 215 344 b 770 358 415 316 593 339 b 941 334 797 361 943 393 b 924 325 940 321 933 319 z m 944 661 b 808 597 934 593 851 595 b 622 606 746 597 680 605 b 619 478 625 564 619 521 b 625 428 618 462 617 439 b 658 449 637 412 653 441 b 719 576 681 489 674 551 b 767 558 737 585 759 578 b 723 475 780 526 751 490 b 722 458 721 474 722 463 b 738 423 722 446 725 427 b 793 502 768 415 791 475 b 785 557 793 521 790 539 b 786 575 784 563 780 571 b 838 558 802 588 830 573 b 845 531 842 549 844 540 b 874 573 851 547 858 565 b 923 563 890 582 911 576 b 887 468 953 534 944 434 b 878 487 883 471 874 484 b 896 505 885 492 893 497 b 896 533 900 514 899 524 b 863 523 885 564 868 545 b 839 406 849 485 843 447 b 829 386 839 400 836 388 b 802 404 819 384 808 397 b 791 440 795 414 792 427 b 726 389 779 415 757 388 b 676 443 698 390 679 416 b 574 451 655 370 581 374 b 550 405 569 435 561 417 b 470 445 515 371 473 402 b 402 389 458 418 435 388 b 358 422 383 390 365 404 b 351 414 356 419 354 416 b 223 425 307 376 245 373 b 222 617 201 485 221 555 b 213 682 223 639 219 661 b 215 693 211 686 211 690 b 267 676 231 706 260 691 b 272 590 279 651 273 616 b 266 461 270 547 266 504 b 279 423 266 449 264 427 b 327 439 295 419 315 427 b 367 547 354 468 350 513 b 443 558 381 579 426 597 b 399 475 456 526 427 490 b 398 458 398 474 398 463 b 415 423 398 446 401 427 b 452 450 431 417 445 438 b 467 519 464 471 466 496 b 469 610 467 526 470 610 b 409 609 449 609 429 609 b 409 627 397 609 397 627 b 468 631 429 629 449 630 b 467 645 468 636 468 640 b 509 650 465 669 502 672 b 513 633 510 645 512 638 b 573 632 532 633 555 633 b 572 645 573 636 573 641 b 614 650 570 669 607 672 b 618 633 615 645 617 639 b 791 636 660 634 769 637 b 930 665 849 636 889 646 b 944 661 937 669 946 673 z m 983 205 b 983 248 1007 203 1008 249 b 983 205 959 249 959 204 z m 431 248 b 431 205 406 249 407 204 b 431 248 455 203 455 249 z m 757 248 b 749 247 753 248 750 247 l 749 205 b 780 227 765 203 781 210 b 757 248 780 241 771 248 z "},"1":{"ha":1121,"x_min":0,"x_max":0,"o":"m 147 30 b 144 14 146 25 145 19 l 144 14 b 135 49 142 24 138 39 l 123 49 b 114 14 120 39 116 24 l 114 14 b 106 49 112 24 109 39 l 91 49 l 106 1 l 120 1 b 128 33 123 11 127 22 l 129 33 b 137 1 130 23 134 11 l 151 1 l 167 49 l 152 49 z m 227 30 b 224 14 225 25 224 19 l 223 14 b 215 49 222 24 217 39 l 202 49 b 193 14 200 39 195 24 l 193 14 b 186 49 192 24 188 39 l 171 49 l 185 1 l 200 1 b 208 33 203 11 206 22 l 208 33 b 216 1 210 23 213 11 l 231 1 l 246 49 l 231 49 z m 306 30 b 303 14 305 25 304 19 l 303 14 b 294 49 301 24 297 39 l 282 49 b 273 14 279 39 275 24 l 273 14 b 266 49 271 24 268 39 l 250 49 l 265 1 l 279 1 b 287 33 282 11 286 22 l 288 33 b 296 1 289 23 293 11 l 310 1 l 326 49 l 311 49 z m 336 18 b 336 0 324 19 324 0 b 345 9 341 0 345 4 b 336 18 345 15 341 18 z m 371 62 l 356 58 l 356 49 l 350 49 l 350 37 l 356 37 b 360 5 357 29 354 10 b 382 2 364 0 377 -1 l 382 13 b 371 22 376 12 370 13 l 371 37 l 382 37 l 382 49 l 371 49 z m 443 30 b 440 14 442 25 441 19 l 440 14 b 431 49 438 24 434 39 l 419 49 b 410 14 416 39 412 24 l 410 14 b 402 49 408 24 405 39 l 387 49 l 401 1 l 416 1 b 424 33 419 11 423 22 l 424 33 b 432 1 426 23 430 11 l 447 1 l 462 49 l 447 49 z m 478 69 b 478 55 467 70 467 54 b 486 62 483 54 486 58 b 478 69 486 66 483 69 z m 485 1 l 485 49 l 470 49 l 470 1 z m 528 50 b 512 42 519 50 514 45 l 512 42 l 511 49 l 498 49 b 498 1 498 40 498 11 l 513 1 b 514 32 514 3 513 30 b 531 26 518 41 532 39 l 531 1 l 546 1 l 546 29 b 528 50 546 44 537 50 z m 574 1 l 574 71 l 559 71 l 559 1 z m 609 50 b 584 25 591 50 584 35 b 629 4 582 1 611 -4 l 627 14 b 598 20 619 11 600 9 l 631 20 b 609 50 634 33 629 50 z m 598 31 b 618 31 599 43 618 43 z m 658 62 l 643 58 l 643 49 l 637 49 l 637 37 l 643 37 b 647 5 644 29 641 10 b 669 2 651 0 664 -1 l 669 13 b 658 22 663 12 657 13 l 658 37 l 669 37 l 669 49 l 658 49 z m 695 62 l 680 58 l 680 49 l 674 49 l 674 37 l 680 37 b 684 5 681 29 678 10 b 706 2 688 0 701 -1 l 706 13 b 695 22 700 12 695 13 l 695 37 l 706 37 l 706 49 l 695 49 z m 738 50 b 712 25 719 50 712 35 b 758 4 711 1 739 -4 l 755 14 b 727 20 747 11 728 9 l 760 20 b 738 50 762 33 757 50 z m 727 31 b 746 31 728 43 746 43 z m 783 39 l 783 39 l 782 49 l 769 49 b 770 1 770 41 769 11 l 785 1 b 785 28 785 3 785 27 b 800 35 786 34 794 37 l 800 49 b 783 39 794 51 786 48 z m 810 18 b 809 0 798 19 798 0 b 819 9 815 0 819 4 b 810 18 819 15 815 18 z m 855 12 b 841 25 847 12 841 16 b 864 36 840 37 855 41 l 866 48 b 867 3 810 63 812 -15 l 864 14 b 855 12 862 13 859 12 z m 899 50 b 898 0 862 51 863 -1 b 899 50 932 -1 935 50 z m 898 11 b 898 39 884 10 883 39 b 898 11 913 39 912 10 z m 994 50 b 977 41 986 50 982 47 l 977 41 b 948 42 972 54 952 51 l 948 42 l 947 49 l 934 49 b 935 1 935 40 934 11 l 949 1 l 949 28 b 958 38 949 32 952 37 b 965 27 963 38 965 34 l 965 1 l 980 1 b 981 32 980 4 980 30 b 996 26 984 41 997 38 l 996 1 l 1011 1 l 1011 28 b 994 50 1011 44 1003 50 z m 272 106 l 272 111 l 253 111 l 253 106 z m 314 120 b 322 119 318 120 320 120 l 323 124 b 323 89 284 138 284 73 l 322 94 b 301 106 313 89 300 93 b 314 120 301 114 305 120 z m 365 107 b 328 106 366 132 327 132 b 365 107 327 81 365 79 z m 346 92 b 347 121 332 91 330 121 b 346 92 363 120 360 91 z m 397 110 l 397 87 l 404 87 l 404 111 b 412 120 404 116 407 120 b 421 109 418 120 421 116 l 421 87 l 427 87 l 427 110 b 402 118 427 130 409 130 l 402 118 b 380 119 399 129 383 127 l 379 119 l 379 125 l 373 125 b 373 87 374 118 373 95 l 380 87 b 381 113 380 90 380 112 b 397 110 384 124 398 122 z m 458 126 b 445 119 452 126 447 123 l 444 119 l 444 125 l 438 125 b 438 72 439 117 438 81 l 445 72 l 445 92 l 445 92 b 474 107 455 80 475 88 b 458 126 474 118 467 126 z m 456 92 b 445 100 451 92 447 95 b 445 109 445 102 445 107 b 456 120 445 115 450 121 b 456 92 471 121 470 91 z m 489 87 l 489 143 l 483 143 l 483 87 z m 498 97 b 521 92 497 85 515 83 l 521 92 l 522 87 l 528 87 b 527 111 527 93 528 105 b 501 123 529 125 513 130 l 502 118 b 521 111 510 123 522 122 b 498 97 506 111 498 106 z m 521 107 b 511 92 521 100 521 92 b 505 98 508 92 505 94 b 521 107 505 105 513 107 z m 546 134 l 540 132 l 540 125 l 534 125 l 534 120 l 540 120 b 542 89 540 114 538 94 b 556 88 545 86 553 86 l 555 93 b 546 100 551 91 546 93 l 546 120 l 556 120 l 556 125 l 546 125 l 546 134 z m 591 94 b 567 105 582 90 567 91 l 594 105 b 578 126 595 113 592 126 b 561 106 567 126 561 117 b 592 89 560 88 579 83 z m 578 121 b 587 110 586 121 587 114 l 567 110 b 578 121 568 115 571 121 z m 627 92 b 618 94 624 92 620 93 l 616 89 b 641 98 625 84 642 87 b 631 109 641 104 638 107 b 630 121 622 111 621 120 b 638 119 634 121 636 120 l 640 124 b 617 115 632 129 617 125 b 627 104 617 110 621 107 b 627 92 637 102 637 92 z m 680 108 b 665 126 680 115 677 126 b 647 106 654 126 647 117 b 678 89 646 88 665 83 l 677 94 b 653 105 669 90 653 91 l 680 105 b 680 108 680 106 680 107 z m 654 110 b 674 110 655 124 674 125 z m 697 134 l 690 132 l 690 125 l 684 125 l 684 120 l 690 120 b 693 89 691 114 688 94 b 706 88 695 86 703 86 l 706 93 b 697 100 701 91 696 93 l 697 120 l 707 120 l 707 125 l 697 125 z m 747 126 b 746 87 723 127 722 86 b 747 126 769 85 773 126 z m 747 92 b 747 121 732 91 731 121 b 747 92 763 120 761 91 z m 806 87 l 806 110 b 780 119 806 130 786 129 l 780 119 l 779 125 l 773 125 b 774 87 774 118 774 95 l 780 87 b 781 113 781 90 780 112 b 799 109 785 124 800 122 l 799 87 z m 849 106 l 849 111 l 830 111 l 830 106 z m 732 522 b 736 546 735 529 738 538 b 726 557 735 551 731 560 b 713 498 715 543 715 516 b 732 522 722 504 728 512 z m 535 612 b 507 611 527 612 515 611 b 504 482 510 569 505 525 b 510 432 503 466 502 443 b 543 453 522 416 539 445 b 558 504 551 469 555 487 b 564 569 562 526 563 547 b 565 611 564 572 566 611 b 535 612 555 612 544 611 z m 409 522 b 412 546 411 529 414 538 b 402 557 411 551 407 560 b 390 498 391 543 391 516 b 409 522 398 504 405 512 z m 1087 671 b 551 1207 1087 967 847 1207 b 164 300 80 1209 -160 634 l 72 300 l 72 168 l 1031 168 l 1031 300 l 938 300 b 1087 671 1030 396 1087 527 z m 974 264 b 973 197 1021 264 1018 195 b 974 264 926 196 929 265 z m 613 903 b 666 892 620 942 672 932 b 665 891 666 892 666 891 b 618 871 667 863 636 847 b 613 903 613 881 612 892 z m 602 777 b 609 835 604 805 602 807 b 659 828 616 863 660 857 b 651 736 656 797 651 767 b 655 710 651 728 650 717 b 673 718 660 703 670 714 b 687 751 680 728 683 740 b 699 850 698 783 699 817 b 722 873 700 862 709 873 b 745 850 735 873 744 862 b 748 777 747 826 747 801 b 817 873 758 811 771 879 b 841 797 848 862 842 823 b 838 739 841 777 838 758 b 849 711 838 729 838 715 b 886 727 862 707 878 718 b 918 876 921 767 933 826 b 838 917 909 899 865 946 b 807 899 824 901 817 873 b 811 935 804 907 803 919 b 932 918 838 980 907 953 b 857 673 990 840 955 700 b 794 828 764 651 787 773 b 791 837 794 830 796 843 b 770 782 780 821 775 800 b 753 717 763 761 758 739 b 727 677 749 701 747 679 b 699 703 711 674 700 688 b 698 720 698 708 699 714 b 635 677 688 691 669 663 b 602 777 596 693 600 742 z m 421 1062 b 566 1004 474 1091 541 1053 b 588 774 602 935 593 848 b 512 674 586 730 571 660 b 477 717 492 680 482 699 b 399 694 466 674 429 653 b 381 767 384 714 383 743 b 380 850 379 795 379 822 b 406 876 380 865 391 876 b 432 850 420 877 432 864 b 431 784 432 827 432 807 b 447 717 433 765 427 716 b 464 746 457 718 462 737 b 477 829 468 763 470 809 b 516 826 484 846 516 844 b 518 747 516 803 518 762 b 556 733 518 710 548 691 b 511 1018 565 818 581 957 b 413 991 475 1049 423 1034 b 388 1013 410 981 385 988 b 421 1062 390 1039 406 1054 z m 158 908 b 370 968 198 968 305 966 b 489 940 407 969 462 969 b 494 925 493 936 495 931 b 456 914 492 909 467 913 b 351 917 421 916 386 919 b 345 782 348 872 346 827 b 360 609 342 723 345 666 b 337 600 363 596 345 598 b 291 766 277 617 293 718 b 297 915 292 816 294 865 b 294 915 296 915 295 915 b 186 890 278 913 178 914 b 228 887 192 881 219 887 b 228 859 246 888 246 860 b 172 865 210 857 189 855 b 158 908 157 874 151 892 z m 148 250 l 128 250 l 128 198 l 112 198 l 112 250 l 93 250 l 93 263 l 148 263 z m 214 198 l 199 198 l 199 225 l 171 225 l 171 198 l 156 198 l 156 263 l 171 263 l 171 238 l 199 238 l 199 263 l 214 263 z m 243 198 l 228 198 l 228 263 l 243 263 z m 274 197 b 254 201 266 197 258 199 l 258 214 b 287 216 263 210 286 204 b 275 225 287 220 283 222 b 255 244 263 228 255 234 b 300 260 254 264 285 268 l 296 248 b 281 252 293 249 288 252 b 284 237 267 251 267 240 b 274 197 312 229 308 196 z m 378 250 l 349 250 l 349 236 l 376 236 l 376 224 l 349 224 l 349 198 l 334 198 l 334 263 l 378 263 z m 420 197 b 421 264 374 196 376 265 b 420 197 469 264 466 195 z m 508 198 b 480 247 500 212 487 232 l 480 247 b 480 198 481 232 480 213 l 466 198 l 466 263 l 485 263 b 512 216 493 250 506 231 l 512 216 b 511 263 510 230 511 248 l 525 263 l 525 198 z m 568 250 l 568 198 l 553 198 l 553 250 l 533 250 l 533 263 l 588 263 l 588 250 z m 632 198 l 617 198 l 617 263 l 632 263 z m 664 197 b 644 201 656 197 648 199 l 647 214 b 676 216 652 210 676 204 b 664 225 676 220 673 222 b 644 244 653 228 644 234 b 689 260 644 264 674 268 l 685 248 b 670 252 683 249 677 252 b 673 237 656 251 656 240 b 664 197 702 229 697 196 z m 776 206 b 724 198 766 196 737 196 l 724 262 b 775 256 738 264 765 265 b 776 206 791 247 790 215 z m 797 198 l 797 263 l 841 263 l 841 250 l 813 250 l 813 237 l 840 237 l 840 225 l 813 225 l 813 210 l 843 210 l 843 198 z m 914 198 b 913 252 914 215 913 234 l 913 252 b 896 199 908 236 901 214 l 883 199 l 876 225 b 869 252 873 233 871 243 l 869 252 b 867 198 869 235 868 214 l 852 198 l 856 263 l 878 263 l 885 242 b 890 218 887 234 889 226 l 891 218 b 905 263 894 232 900 250 l 926 263 l 930 198 l 914 198 z m 915 329 b 761 338 864 362 800 342 b 225 310 582 323 404 295 b 228 346 203 313 205 348 b 761 362 405 320 584 343 b 931 338 787 365 934 397 b 915 329 930 325 924 323 z m 935 665 b 798 601 924 597 842 599 b 613 610 736 601 671 609 b 609 482 615 568 610 525 b 615 432 609 466 607 443 b 648 453 627 416 644 445 b 709 580 672 493 665 555 b 757 562 728 589 749 582 b 713 479 770 530 741 494 b 712 462 711 478 712 467 b 728 427 712 450 715 431 b 783 506 758 419 781 479 b 776 561 783 525 781 543 b 776 579 774 567 770 575 b 828 562 792 592 821 577 b 835 535 832 553 834 544 b 864 577 841 551 849 569 b 913 567 880 586 901 580 b 877 472 943 538 934 438 b 869 491 873 475 864 488 b 886 509 875 496 883 501 b 886 537 890 518 889 528 b 853 527 875 568 858 549 b 829 410 839 489 833 451 b 819 390 829 404 827 392 b 793 408 809 388 798 401 b 782 444 785 418 782 431 b 716 393 769 419 747 392 b 667 447 688 394 669 420 b 564 455 645 374 571 378 b 540 409 559 439 551 421 b 460 449 505 375 463 406 b 393 393 448 422 425 392 b 349 426 373 394 355 408 b 341 418 346 423 344 420 b 213 429 297 380 235 377 b 212 621 191 489 211 559 b 203 686 213 643 210 665 b 206 697 202 690 201 694 b 257 680 222 710 250 695 b 262 594 269 655 264 620 b 256 465 261 551 256 508 b 269 427 256 453 254 431 b 317 443 286 423 306 431 b 358 551 345 472 340 517 b 433 562 371 583 416 601 b 390 479 446 530 417 494 b 388 462 388 478 388 467 b 405 427 389 450 392 431 b 443 454 422 421 435 442 b 457 523 454 475 456 500 b 459 614 457 530 460 614 b 399 613 439 613 419 613 b 399 631 387 613 388 631 b 459 635 419 633 439 634 b 457 649 458 640 458 644 b 499 654 455 673 492 676 b 503 637 501 649 502 642 b 564 636 522 637 545 637 b 563 649 563 640 563 645 b 604 654 560 673 598 676 b 608 637 606 649 607 643 b 781 640 651 638 759 641 b 921 669 839 640 880 650 b 935 665 928 673 936 677 z m 973 209 b 974 252 998 207 998 253 b 973 209 949 253 949 208 z m 421 252 b 421 209 397 253 397 208 b 421 252 445 207 446 253 z m 747 252 b 739 251 743 252 740 251 l 739 209 b 771 231 755 207 771 214 b 747 252 771 245 761 252 z "},"2":{"ha":1110,"x_min":0,"x_max":0,"o":"m 156 36 b 152 20 154 31 153 25 l 152 20 b 143 54 150 30 146 44 l 131 54 b 122 20 129 44 124 30 l 122 20 b 115 54 120 30 117 44 l 99 54 l 114 7 l 129 7 b 137 38 131 17 135 28 l 137 38 b 145 7 138 28 142 17 l 160 7 l 175 54 l 160 54 z m 235 36 b 232 20 234 31 233 25 l 232 20 b 223 54 230 30 226 44 l 211 54 b 202 20 208 44 204 30 l 202 20 b 194 54 200 30 197 44 l 179 54 l 193 7 l 208 7 b 216 38 211 17 215 28 l 216 38 b 224 7 218 28 222 17 l 239 7 l 254 54 l 239 54 z m 315 36 b 311 20 313 31 312 25 l 311 20 b 302 54 309 30 305 44 l 290 54 b 281 20 288 44 283 30 l 281 20 b 274 54 279 30 276 44 l 258 54 l 273 7 l 288 7 b 296 38 290 17 294 28 l 296 38 b 304 7 298 28 301 17 l 319 7 l 334 54 l 319 54 z m 344 24 b 344 6 332 25 332 6 b 353 15 350 6 353 10 b 344 24 353 20 350 24 z m 379 67 l 364 63 l 364 54 l 358 54 l 358 43 l 364 43 b 369 10 365 35 363 16 b 390 8 372 5 385 5 l 390 19 b 379 27 384 18 379 19 l 379 43 l 390 43 l 390 54 l 379 54 z m 451 36 b 448 20 450 31 449 25 l 448 20 b 439 54 446 30 442 44 l 427 54 b 418 20 425 44 420 30 l 418 20 b 411 54 416 30 413 44 l 395 54 l 410 7 l 424 7 b 433 38 427 17 431 28 l 433 38 b 441 7 434 28 438 17 l 456 7 l 471 54 l 456 54 z m 486 75 b 486 60 475 76 475 60 b 494 68 491 60 494 64 b 486 75 494 72 491 75 z m 494 7 l 494 54 l 478 54 l 478 7 z m 536 56 b 520 48 527 56 522 50 l 520 48 l 519 54 l 506 54 b 506 7 507 45 506 17 l 522 7 b 522 37 522 9 521 36 b 539 32 526 47 540 45 l 539 7 l 554 7 l 554 34 b 536 56 554 49 546 56 z m 582 7 l 582 76 l 567 76 l 567 7 z m 617 56 b 592 30 599 56 592 41 b 637 9 591 7 619 1 l 635 20 b 607 26 627 17 608 15 l 640 26 b 617 56 642 39 637 55 z m 606 36 b 626 36 608 49 626 49 z m 666 67 l 651 63 l 651 54 l 645 54 l 645 43 l 651 43 b 655 10 652 35 649 16 b 677 8 659 5 672 5 l 677 19 b 666 27 671 18 666 19 l 666 43 l 677 43 l 677 54 l 666 54 z m 704 67 l 689 63 l 689 54 l 682 54 l 682 43 l 689 43 b 693 10 689 35 687 16 b 715 8 696 5 710 5 l 714 19 b 704 27 708 18 703 19 l 704 43 l 715 43 l 715 54 l 704 54 z m 746 56 b 720 30 728 56 720 41 b 766 9 719 7 748 1 l 764 20 b 735 26 756 17 737 15 l 768 26 b 746 56 770 39 765 55 z m 735 36 b 754 36 736 49 754 49 z m 792 45 l 791 45 l 791 54 l 778 54 b 778 7 778 46 778 17 l 793 7 b 793 34 793 9 793 33 b 809 41 794 40 803 43 l 809 55 b 792 45 802 56 795 54 z m 818 24 b 818 6 806 25 806 6 b 827 15 823 6 827 10 b 818 24 827 20 823 24 z m 863 18 b 849 31 856 18 849 22 b 872 42 848 43 864 47 l 875 54 b 875 9 818 69 821 -10 l 873 20 b 863 18 870 19 867 18 z m 907 56 b 906 6 870 56 871 5 b 907 56 940 5 944 56 z m 906 17 b 906 45 892 16 891 45 b 906 17 922 45 920 16 z m 1002 56 b 986 47 995 56 990 53 l 985 47 b 956 48 980 60 960 56 l 956 48 l 955 54 l 942 54 b 943 7 943 45 943 17 l 958 7 l 958 34 b 966 43 958 38 960 43 b 974 33 971 43 974 39 l 974 7 l 988 7 b 989 38 989 10 988 36 b 1004 32 993 47 1005 44 l 1004 7 l 1019 7 l 1019 34 b 1002 56 1019 49 1011 56 z m 280 112 l 280 117 l 261 117 l 261 112 z m 322 126 b 330 124 326 126 328 125 l 332 130 b 331 95 292 144 292 79 l 330 100 b 309 112 322 95 308 99 b 322 126 309 120 314 126 z m 373 112 b 336 112 374 138 336 138 b 373 112 336 86 373 85 z m 355 97 b 355 127 340 97 339 127 b 355 97 371 126 369 97 z m 405 116 l 405 93 l 412 93 l 412 116 b 421 126 412 121 415 126 b 429 115 426 126 429 122 l 429 93 l 436 93 l 436 115 b 411 124 435 135 417 136 l 410 124 b 388 125 407 135 392 133 l 388 125 l 387 131 l 381 131 b 382 93 382 124 382 100 l 388 93 b 389 119 389 96 388 118 b 405 116 392 129 406 128 z m 466 132 b 453 124 460 132 456 129 l 453 124 l 452 131 l 446 131 b 447 78 447 123 447 87 l 453 78 l 453 98 l 454 98 b 482 113 463 86 483 94 b 466 132 482 124 475 132 z m 464 98 b 454 106 459 98 455 101 b 453 115 453 108 453 113 b 464 126 454 121 459 126 b 464 98 480 127 479 97 z m 498 93 l 498 148 l 491 148 l 491 93 z m 506 103 b 529 98 506 91 524 89 l 530 98 l 530 93 l 536 93 b 536 116 535 98 536 111 b 509 128 537 131 521 136 l 511 124 b 529 117 519 129 530 127 b 506 103 514 117 506 112 z m 529 112 b 520 97 530 106 529 98 b 513 104 516 97 513 99 b 529 112 513 111 522 113 z m 555 140 l 548 138 l 548 131 l 542 131 l 542 126 l 548 126 b 551 95 549 119 546 100 b 564 93 553 92 561 92 l 564 98 b 555 105 559 97 554 98 l 555 126 l 565 126 l 565 131 l 555 131 l 555 140 z m 599 100 b 576 111 591 96 575 96 l 602 111 b 587 132 603 119 600 131 b 569 111 576 132 569 123 b 600 95 568 94 588 89 z m 586 127 b 596 116 594 127 596 120 l 576 116 b 586 127 576 120 579 127 z m 635 97 b 626 100 632 97 628 99 l 625 95 b 649 104 633 90 650 92 b 639 115 649 109 646 113 b 639 127 630 117 629 126 b 646 124 642 127 645 125 l 648 129 b 626 121 640 134 625 131 b 636 110 626 116 629 112 b 635 97 645 108 645 98 z m 689 114 b 673 132 689 121 685 132 b 655 111 662 132 655 123 b 686 95 654 94 674 89 l 685 100 b 662 111 677 96 662 96 l 688 111 b 689 114 688 111 689 113 z m 662 116 b 682 116 663 130 682 131 z m 705 140 l 699 138 l 699 131 l 693 131 l 693 126 l 699 126 b 701 95 699 119 697 100 b 715 93 704 92 711 92 l 714 98 b 705 105 710 97 705 98 l 705 126 l 715 126 l 715 131 l 705 131 z m 755 132 b 755 92 731 133 730 92 b 755 132 778 91 781 131 z m 755 97 b 755 127 740 97 739 127 b 755 97 771 126 769 97 z m 814 93 l 814 116 b 788 125 814 136 794 135 l 788 125 l 788 131 l 782 131 b 782 93 782 124 782 100 l 789 93 b 789 119 789 95 788 118 b 807 115 793 130 808 127 l 807 93 z m 858 112 l 858 117 l 838 117 l 838 112 z m 740 528 b 744 552 743 535 746 544 b 734 563 743 557 739 566 b 722 504 723 549 723 522 b 740 528 730 510 737 518 z m 543 617 b 515 617 535 618 523 617 b 512 488 518 575 513 531 b 518 438 512 472 511 448 b 551 459 530 422 547 450 b 566 510 559 474 563 493 b 572 575 571 531 571 553 b 573 617 572 577 575 617 b 543 617 563 617 553 617 z m 417 528 b 421 552 420 535 422 544 b 411 563 419 557 415 566 b 398 504 399 549 399 522 b 417 528 406 510 413 518 z m 1095 677 b 559 1213 1095 973 855 1213 b 172 306 88 1214 -152 639 l 80 306 l 80 173 l 1039 173 l 1039 306 l 946 306 b 1095 677 1038 402 1095 533 z m 982 270 b 981 202 1029 270 1027 201 b 982 270 934 202 937 271 z m 622 909 b 674 898 628 947 681 938 b 674 897 674 897 674 897 b 627 877 675 868 645 853 b 622 909 621 887 620 898 z m 610 783 b 617 840 612 811 610 813 b 668 834 625 869 669 863 b 659 742 664 803 660 772 b 663 716 659 734 658 722 b 682 724 668 708 679 720 b 695 757 688 734 691 746 b 708 856 706 789 707 822 b 731 879 708 868 718 879 b 754 856 744 879 753 868 b 756 783 755 831 756 807 b 826 879 766 817 779 885 b 850 802 857 868 850 829 b 846 745 849 783 846 764 b 857 717 846 735 846 720 b 894 733 870 713 886 724 b 926 881 929 773 942 832 b 847 923 917 905 874 952 b 816 905 832 907 826 879 b 819 941 812 913 811 925 b 940 924 847 986 915 959 b 865 679 999 846 963 706 b 803 834 772 657 795 779 b 800 842 803 835 804 848 b 778 787 788 827 784 806 b 761 723 771 766 766 745 b 735 682 758 707 755 685 b 707 708 720 680 708 693 b 707 725 707 713 707 720 b 643 683 696 697 677 669 b 610 783 605 699 608 748 z m 429 1067 b 575 1010 482 1097 549 1059 b 596 779 610 941 601 854 b 520 680 594 736 579 666 b 485 723 500 686 490 704 b 407 700 475 679 437 659 b 389 773 392 720 391 749 b 388 856 387 801 388 828 b 414 882 388 870 400 881 b 441 856 428 883 441 870 b 440 789 440 832 440 813 b 456 722 441 771 435 722 b 472 752 465 724 470 743 b 485 835 476 769 478 815 b 525 831 493 852 525 850 b 526 752 524 809 526 768 b 565 739 526 715 556 697 b 519 1024 574 824 590 963 b 421 997 484 1055 431 1040 b 396 1019 418 987 394 993 b 429 1067 398 1045 415 1059 z m 166 913 b 379 974 206 974 313 972 b 497 945 415 974 470 975 b 503 931 501 941 503 936 b 465 920 500 915 475 919 b 360 923 430 922 395 925 b 354 788 356 878 354 833 b 368 615 351 729 353 671 b 345 606 371 602 353 604 b 300 772 285 623 301 724 b 306 921 300 821 302 871 b 302 920 305 920 303 920 b 194 896 287 919 186 920 b 236 893 201 887 227 892 b 236 865 255 894 254 866 b 180 871 218 863 197 860 b 166 913 166 880 159 897 z m 156 256 l 136 256 l 136 204 l 121 204 l 121 256 l 101 256 l 101 269 l 156 269 z m 223 204 l 207 204 l 207 231 l 179 231 l 179 204 l 164 204 l 164 269 l 179 269 l 179 244 l 207 244 l 207 269 l 223 269 z m 251 204 l 236 204 l 236 269 l 251 269 z m 283 202 b 263 207 275 202 267 205 l 266 219 b 295 222 271 216 294 210 b 283 230 295 226 292 228 b 263 250 272 234 263 239 b 308 266 262 270 293 274 l 304 254 b 289 257 302 255 296 257 b 292 242 275 257 275 246 b 283 202 321 235 316 202 z m 386 256 l 358 256 l 358 242 l 384 242 l 384 229 l 358 229 l 358 204 l 342 204 l 342 269 l 386 269 z m 429 202 b 430 270 382 202 385 271 b 429 202 477 270 474 201 z m 517 204 b 489 253 508 218 495 238 l 488 253 b 489 204 489 238 489 219 l 474 204 l 474 269 l 493 269 b 520 222 502 255 514 236 l 520 222 b 519 269 519 236 519 254 l 533 269 l 533 204 z m 577 256 l 577 204 l 561 204 l 561 256 l 542 256 l 542 269 l 596 269 l 596 256 z m 641 204 l 625 204 l 625 269 l 641 269 z m 672 202 b 652 207 664 202 656 205 l 655 219 b 684 222 661 216 684 210 b 673 230 684 226 681 228 b 653 250 661 234 653 239 b 697 266 652 270 683 274 l 694 254 b 678 257 691 255 686 257 b 682 242 665 257 664 246 b 672 202 710 235 705 202 z m 784 212 b 732 204 775 202 745 201 l 732 268 b 784 262 746 270 773 271 b 784 212 800 253 798 221 z m 806 204 l 806 269 l 850 269 l 850 256 l 821 256 l 821 243 l 848 243 l 848 231 l 821 231 l 821 216 l 851 216 l 851 204 z m 923 204 b 921 258 922 221 921 240 l 921 258 b 904 205 917 242 909 220 l 892 205 l 884 230 b 878 258 882 239 879 249 l 877 258 b 875 204 877 241 876 220 l 861 204 l 864 269 l 886 269 l 893 247 b 899 224 895 240 897 232 l 899 224 b 913 269 902 238 909 255 l 935 269 l 938 204 l 923 204 z m 923 335 b 769 344 873 368 808 348 b 233 316 591 329 413 301 b 236 351 212 318 213 354 b 769 368 414 326 592 349 b 939 344 795 371 942 403 b 923 335 939 331 932 329 z m 943 671 b 806 607 933 603 850 605 b 621 616 745 607 679 614 b 618 488 624 573 618 530 b 624 438 617 472 616 448 b 656 459 635 422 652 450 b 717 586 680 499 673 561 b 765 568 736 595 758 587 b 722 484 778 535 749 499 b 720 468 720 483 720 473 b 737 433 720 456 724 437 b 791 512 766 425 789 485 b 784 567 791 531 789 549 b 785 585 782 573 778 581 b 836 567 801 597 829 583 b 844 541 840 559 843 550 b 872 583 850 557 857 574 b 921 573 888 592 910 586 b 885 478 951 544 943 443 b 877 497 881 481 872 494 b 895 515 884 502 891 507 b 894 543 899 524 897 534 b 861 533 883 573 867 555 b 838 416 848 495 841 457 b 827 396 837 410 835 398 b 801 413 817 393 806 406 b 790 450 794 424 791 437 b 725 399 778 425 755 397 b 675 453 696 400 677 426 b 573 460 654 380 580 384 b 549 414 567 445 560 427 b 469 455 514 381 471 412 b 401 399 456 428 434 397 b 357 432 382 400 363 413 b 350 424 355 429 352 426 b 221 435 306 386 243 383 b 221 627 200 495 219 565 b 211 691 221 649 218 671 b 214 703 210 696 210 700 b 266 685 230 715 258 701 b 271 600 278 661 272 626 b 264 471 269 557 264 514 b 278 433 265 459 262 437 b 326 448 294 428 314 437 b 366 557 353 478 348 523 b 442 568 380 589 424 606 b 398 485 455 535 426 500 b 397 468 396 484 397 473 b 413 433 397 456 400 437 b 451 460 430 427 444 448 b 465 529 463 481 464 506 b 468 619 466 536 468 619 b 408 619 448 619 428 619 b 408 637 396 619 396 636 b 467 641 427 639 447 640 b 466 655 467 645 466 650 b 507 660 463 679 501 682 b 511 642 509 654 510 648 b 572 642 530 643 553 642 b 571 655 572 646 571 650 b 612 660 569 679 606 682 b 616 643 614 654 615 649 b 789 646 659 644 767 646 b 929 675 847 645 888 656 b 943 671 936 678 944 682 z m 982 214 b 982 258 1006 213 1006 258 b 982 214 958 259 958 213 z m 429 258 b 429 214 405 259 405 213 b 429 258 454 213 454 258 z m 755 257 b 747 257 751 257 749 257 l 747 215 b 779 237 764 213 780 220 b 755 257 779 251 770 257 z "},"3":{"ha":1128,"x_min":0,"x_max":0,"o":"m 158 36 b 155 20 157 31 156 25 l 155 20 b 146 54 153 30 149 45 l 134 54 b 125 20 131 44 127 30 l 125 20 b 118 54 123 30 120 44 l 102 54 l 117 7 l 131 7 b 139 39 134 17 138 28 l 140 39 b 148 7 141 29 145 17 l 162 7 l 178 54 l 163 54 z m 238 36 b 235 20 237 31 235 25 l 235 20 b 226 54 233 30 228 45 l 214 54 b 205 20 211 44 206 30 l 204 20 b 197 54 203 30 199 44 l 182 54 l 196 7 l 211 7 b 219 39 214 17 218 28 l 219 39 b 227 7 221 29 225 17 l 242 7 l 257 54 l 242 54 z m 317 36 b 314 20 316 31 315 25 l 314 20 b 305 54 312 30 308 45 l 293 54 b 284 20 290 44 286 30 l 284 20 b 277 54 282 30 279 44 l 261 54 l 276 7 l 290 7 b 299 39 293 17 297 28 l 299 39 b 307 7 300 29 304 17 l 322 7 l 337 54 l 322 54 z m 347 24 b 347 6 335 25 335 6 b 356 15 352 6 356 10 b 347 24 356 21 352 24 z m 382 67 l 367 63 l 367 54 l 361 54 l 361 43 l 367 43 b 371 11 368 35 365 16 b 393 8 375 5 388 5 l 393 19 b 382 27 387 18 382 19 l 382 43 l 393 43 l 393 54 l 382 54 z m 454 36 b 451 20 453 31 452 25 l 451 20 b 442 54 449 30 445 45 l 430 54 b 421 20 427 44 423 30 l 421 20 b 413 54 419 30 416 44 l 398 54 l 413 7 l 427 7 b 435 39 430 17 434 28 l 436 39 b 444 7 437 29 441 17 l 458 7 l 474 54 l 459 54 z m 489 75 b 489 60 478 76 478 60 b 497 68 494 60 497 64 b 489 75 497 72 494 75 z m 496 7 l 496 54 l 481 54 l 481 7 z m 539 56 b 523 48 530 56 525 50 l 523 48 l 522 54 l 509 54 b 509 7 509 45 509 17 l 524 7 b 525 37 525 9 524 36 b 542 32 529 47 543 45 l 542 7 l 557 7 l 557 35 b 539 56 557 49 549 56 z m 585 7 l 585 76 l 570 76 l 570 7 z m 620 56 b 595 30 602 56 595 41 b 640 9 593 7 622 1 l 638 20 b 609 26 630 17 611 15 l 642 26 b 620 56 645 39 640 55 z m 609 37 b 629 37 610 49 629 49 z m 669 67 l 654 63 l 654 54 l 648 54 l 648 43 l 654 43 b 658 11 655 35 652 16 b 680 8 662 5 675 5 l 680 19 b 669 27 674 18 668 19 l 669 43 l 680 43 l 680 54 l 669 54 z m 706 67 l 691 63 l 691 54 l 685 54 l 685 43 l 691 43 b 695 11 692 35 690 16 b 717 8 699 5 712 5 l 717 19 b 706 27 711 18 706 19 l 706 43 l 717 43 l 717 54 l 706 54 z m 749 56 b 723 30 730 56 723 41 b 769 9 722 7 750 1 l 767 20 b 738 26 758 17 739 15 l 771 26 b 749 56 773 39 768 55 z m 738 37 b 757 37 739 49 757 49 z m 794 45 l 794 45 l 793 54 l 780 54 b 781 7 781 46 781 17 l 796 7 b 796 34 796 9 796 33 b 812 41 797 40 805 43 l 812 55 b 794 45 805 57 798 54 z m 821 24 b 821 6 809 25 809 6 b 830 15 826 6 830 10 b 821 24 830 21 826 24 z m 866 18 b 852 31 858 18 852 22 b 875 42 851 43 866 47 l 877 54 b 878 9 821 69 823 -10 l 876 20 b 866 18 873 19 870 18 z m 910 56 b 909 6 873 56 874 5 b 910 56 943 5 946 56 z m 909 17 b 909 45 895 16 894 45 b 909 17 924 45 923 16 z m 1005 56 b 988 47 998 56 993 53 l 988 47 b 959 48 983 60 963 56 l 959 48 l 958 55 l 945 55 b 946 7 946 45 946 17 l 961 7 l 961 34 b 969 43 961 38 963 43 b 976 33 974 43 976 40 l 976 7 l 991 7 b 992 38 991 10 991 36 b 1007 32 996 47 1008 44 l 1007 7 l 1022 7 l 1022 34 b 1005 56 1022 49 1014 56 z m 283 112 l 283 117 l 264 117 l 264 112 z m 325 126 b 333 124 329 126 331 125 l 334 130 b 334 95 295 144 295 79 l 333 100 b 312 112 325 95 311 99 b 325 126 312 120 316 126 z m 376 112 b 339 112 377 138 338 138 b 376 112 339 87 376 85 z m 357 98 b 358 127 343 97 342 127 b 357 98 374 126 371 97 z m 408 116 l 408 93 l 415 93 l 415 117 b 423 126 415 121 418 126 b 432 115 429 126 432 122 l 432 93 l 438 93 l 438 115 b 413 124 438 135 420 136 l 413 124 b 391 125 410 135 394 133 l 391 125 l 390 131 l 384 131 b 385 93 385 124 384 100 l 391 93 b 392 119 391 96 391 118 b 408 116 395 129 409 128 z m 469 132 b 456 124 463 132 459 129 l 456 124 l 455 131 l 449 131 b 449 78 450 123 449 87 l 456 78 l 456 98 l 456 98 b 485 113 466 86 486 94 b 469 132 485 124 478 132 z m 467 98 b 457 106 462 98 458 101 b 456 115 456 108 456 113 b 467 126 456 121 461 127 b 467 98 482 127 482 97 z m 501 93 l 501 149 l 494 149 l 494 93 z m 509 103 b 532 98 509 91 526 89 l 532 98 l 533 93 l 539 93 b 539 116 538 98 539 111 b 512 128 540 131 524 136 l 513 124 b 532 117 522 129 533 127 b 509 103 517 117 509 112 z m 532 113 b 522 97 532 106 532 98 b 516 104 519 97 516 100 b 532 113 516 111 524 113 z m 558 140 l 551 138 l 551 131 l 545 131 l 545 126 l 551 126 b 553 95 551 119 549 100 b 567 93 556 92 564 92 l 567 99 b 558 105 562 97 557 99 l 558 126 l 567 126 l 567 131 l 558 131 l 558 140 z m 602 100 b 578 111 593 96 578 97 l 605 111 b 589 132 606 119 603 131 b 572 111 579 132 572 123 b 603 95 571 94 590 89 z m 589 127 b 598 116 597 127 599 120 l 578 116 b 589 127 579 121 582 127 z m 638 98 b 629 100 635 98 631 99 l 627 95 b 652 104 636 90 653 93 b 642 115 652 109 649 113 b 641 127 633 117 632 126 b 649 124 645 127 648 125 l 651 129 b 628 121 643 135 628 131 b 638 110 628 116 632 112 b 638 98 648 108 648 98 z m 691 114 b 676 132 691 121 688 132 b 658 111 665 132 658 123 b 689 95 657 94 677 89 l 688 100 b 665 111 680 96 664 97 l 691 111 b 691 114 691 112 691 113 z m 665 116 b 685 116 666 130 685 131 z m 708 140 l 701 138 l 701 131 l 696 131 l 696 126 l 701 126 b 704 95 702 119 699 100 b 717 93 706 92 714 92 l 717 99 b 708 105 712 97 707 99 l 708 126 l 718 126 l 718 131 l 708 131 z m 758 132 b 757 92 734 133 733 92 b 758 132 781 91 784 132 z m 758 98 b 758 127 743 97 742 127 b 758 98 774 126 772 97 z m 817 93 l 817 116 b 791 125 817 136 797 135 l 791 125 l 791 131 l 784 131 b 785 93 785 124 785 100 l 792 93 b 792 119 792 95 791 118 b 810 115 796 130 811 128 l 810 93 z m 860 112 l 860 117 l 841 117 l 841 112 z m 743 528 b 747 552 746 535 749 544 b 737 563 746 557 742 566 b 724 504 726 549 726 522 b 743 528 733 510 739 518 z m 546 618 b 518 617 538 618 526 617 b 515 488 521 575 516 531 b 521 438 514 472 513 448 b 554 459 533 422 550 450 b 569 510 562 475 566 493 b 575 575 574 531 574 553 b 576 617 575 577 578 617 b 546 618 566 618 556 617 z m 420 528 b 423 552 422 535 425 544 b 414 563 422 557 418 566 b 401 504 402 549 402 522 b 420 528 409 510 416 518 z m 1098 677 b 562 1213 1098 973 858 1213 b 175 306 91 1215 -149 640 l 83 306 l 83 173 l 1042 173 l 1042 306 l 949 306 b 1098 677 1041 402 1098 533 z m 985 270 b 984 202 1032 270 1030 201 b 985 270 937 202 940 271 z m 624 909 b 677 898 631 948 684 938 b 677 897 677 898 677 897 b 629 877 678 869 648 853 b 624 909 624 887 623 898 z m 613 783 b 620 841 615 811 613 813 b 671 834 627 869 672 863 b 662 742 667 803 662 773 b 666 716 662 734 661 722 b 684 724 671 709 681 720 b 698 757 691 734 694 746 b 711 856 709 789 710 823 b 733 879 711 868 721 879 b 756 856 746 879 755 868 b 759 783 758 832 758 807 b 829 879 769 817 782 885 b 853 803 859 868 853 829 b 849 745 852 783 849 764 b 860 717 849 735 849 721 b 897 733 873 713 889 724 b 929 881 932 773 945 832 b 849 923 920 905 877 952 b 818 905 835 907 829 879 b 822 941 815 913 814 925 b 943 924 850 986 918 959 b 868 679 1002 846 966 706 b 805 834 775 657 798 779 b 802 843 806 835 807 848 b 781 788 791 827 786 806 b 764 723 774 766 769 745 b 738 682 761 707 758 685 b 710 708 722 680 711 693 b 710 726 709 714 710 720 b 646 683 699 697 680 669 b 613 783 608 699 611 748 z m 432 1068 b 578 1010 485 1097 552 1059 b 599 780 613 941 604 854 b 523 680 597 736 582 666 b 488 723 503 686 493 704 b 410 700 477 679 440 659 b 392 773 395 720 394 749 b 391 856 390 801 390 828 b 417 882 391 871 403 882 b 443 856 431 883 444 870 b 443 789 443 833 443 813 b 459 722 444 771 438 722 b 475 752 468 724 473 743 b 488 835 479 769 481 815 b 527 832 496 852 528 850 b 529 753 527 809 529 768 b 567 739 529 716 559 697 b 522 1024 576 824 592 963 b 424 997 486 1055 434 1040 b 399 1019 421 987 396 994 b 432 1068 401 1045 417 1060 z m 169 914 b 381 974 209 974 316 972 b 500 945 418 974 473 975 b 505 931 504 941 506 937 b 467 920 503 915 478 919 b 363 923 432 922 398 925 b 356 788 359 878 357 833 b 371 615 353 729 356 671 b 348 606 374 602 356 604 b 303 772 288 623 304 724 b 308 921 303 822 305 871 b 305 920 307 921 306 920 b 197 896 289 919 189 920 b 239 893 203 887 230 892 b 239 865 257 894 257 866 b 183 871 221 863 200 860 b 169 914 168 880 162 898 z m 159 256 l 139 256 l 139 204 l 123 204 l 123 256 l 104 256 l 104 269 l 159 269 z m 225 204 l 210 204 l 210 231 l 182 231 l 182 204 l 167 204 l 167 269 l 182 269 l 182 244 l 210 244 l 210 269 l 225 269 z m 254 204 l 239 204 l 239 269 l 254 269 z m 286 202 b 265 207 278 202 269 205 l 269 220 b 298 222 274 216 297 210 b 286 231 298 226 294 228 b 266 250 274 234 266 239 b 311 266 265 270 296 274 l 307 254 b 292 257 304 255 299 257 b 295 243 278 257 278 246 b 286 202 323 235 319 202 z m 389 256 l 361 256 l 361 242 l 387 242 l 387 229 l 361 229 l 361 204 l 345 204 l 345 269 l 389 269 z m 432 202 b 432 270 385 202 387 271 b 432 202 480 270 477 201 z m 519 204 b 491 253 511 218 498 238 l 491 253 b 492 204 492 238 492 219 l 477 204 l 477 269 l 496 269 b 523 222 504 255 517 236 l 523 222 b 522 269 521 236 522 254 l 536 269 l 536 204 z m 579 256 l 579 204 l 564 204 l 564 256 l 544 256 l 544 269 l 599 269 l 599 256 z m 644 204 l 628 204 l 628 269 l 644 269 z m 675 202 b 655 207 667 202 659 205 l 658 220 b 687 222 663 216 687 210 b 675 231 687 226 684 228 b 656 250 664 234 656 239 b 700 266 655 270 686 274 l 697 254 b 681 257 694 255 688 257 b 684 243 667 257 667 246 b 675 202 713 235 708 202 z m 787 212 b 735 204 777 202 748 202 l 735 268 b 786 262 749 270 776 271 b 787 212 803 253 801 221 z m 808 204 l 808 269 l 852 269 l 852 256 l 824 256 l 824 243 l 851 243 l 851 231 l 824 231 l 824 216 l 854 216 l 854 204 z m 926 204 b 924 258 925 221 924 240 l 924 258 b 907 205 920 242 912 220 l 894 205 l 887 231 b 880 258 885 239 882 249 l 880 258 b 878 204 880 241 879 220 l 863 204 l 867 269 l 889 269 l 896 248 b 902 224 898 240 900 232 l 902 224 b 916 269 905 238 911 255 l 937 269 l 941 204 l 926 204 z m 926 335 b 772 344 876 368 811 348 b 236 316 593 329 416 301 b 239 351 214 319 216 354 b 772 368 417 326 595 349 b 942 344 798 371 945 403 b 926 335 941 331 935 329 z m 946 671 b 809 607 936 603 853 605 b 624 616 747 607 682 614 b 620 488 626 574 621 531 b 626 438 620 472 619 448 b 659 459 638 422 655 450 b 720 586 683 499 676 561 b 768 568 739 595 760 587 b 724 485 781 535 752 500 b 723 468 723 484 723 473 b 740 433 723 456 726 437 b 794 512 769 425 792 485 b 787 567 794 531 792 549 b 787 585 785 573 781 581 b 839 567 803 597 832 583 b 846 541 843 559 845 550 b 875 583 853 557 860 574 b 924 573 891 592 913 586 b 888 478 954 544 945 443 b 880 497 884 481 875 494 b 897 515 886 502 894 507 b 897 543 901 524 900 534 b 864 533 886 574 869 555 b 841 416 850 495 844 457 b 830 396 840 410 838 398 b 804 414 820 394 809 406 b 793 450 796 424 793 437 b 727 399 780 425 758 398 b 678 453 699 400 680 426 b 575 461 656 380 582 384 b 551 415 570 445 563 427 b 471 455 517 381 474 412 b 404 399 459 428 436 398 b 360 432 384 400 366 413 b 352 424 357 429 355 426 b 224 435 309 386 246 383 b 224 627 202 495 222 565 b 214 692 224 649 221 671 b 217 703 213 696 212 700 b 268 686 233 715 261 701 b 273 600 280 661 275 626 b 267 471 272 557 267 514 b 281 433 267 459 265 437 b 328 448 297 428 317 437 b 369 557 356 478 351 523 b 445 568 382 589 427 607 b 401 485 457 536 429 500 b 399 468 399 484 399 473 b 416 433 400 456 403 437 b 454 460 433 427 447 448 b 468 529 465 481 467 506 b 471 619 468 536 471 619 b 410 619 450 619 430 619 b 410 637 398 619 399 637 b 470 641 430 639 450 640 b 469 655 469 645 469 650 b 510 660 466 679 504 682 b 514 642 512 654 513 648 b 575 642 533 643 556 643 b 574 655 574 646 574 651 b 615 660 571 679 609 682 b 619 643 617 655 618 649 b 792 646 662 644 770 647 b 932 675 850 645 891 656 b 946 671 939 678 947 682 z m 985 214 b 985 258 1009 213 1009 259 b 985 214 960 259 960 214 z m 432 258 b 432 214 408 259 408 214 b 432 258 456 213 457 259 z m 758 258 b 750 257 754 258 751 257 l 750 215 b 782 237 766 213 783 220 b 758 258 782 251 772 258 z "},"4":{"ha":1113,"x_min":0,"x_max":0,"o":"m 153 27 b 150 10 152 21 150 16 l 149 10 b 141 45 148 20 143 35 l 128 45 b 119 10 126 35 121 20 l 119 10 b 112 45 118 20 114 35 l 97 45 l 111 -2 l 126 -2 b 134 29 129 7 132 18 l 134 29 b 142 -2 136 19 140 7 l 157 -2 l 172 45 l 157 45 z m 232 27 b 229 10 231 21 230 16 l 229 10 b 220 45 227 20 223 35 l 208 45 b 199 10 205 35 201 20 l 199 10 b 192 45 197 20 194 35 l 176 45 l 191 -2 l 205 -2 b 213 29 208 7 212 18 l 214 29 b 222 -2 215 19 219 7 l 236 -2 l 252 45 l 237 45 z m 312 27 b 309 10 311 21 309 16 l 309 10 b 300 45 307 20 302 35 l 287 45 b 279 10 285 35 280 20 l 278 10 b 271 45 277 20 273 35 l 256 45 l 270 -2 l 285 -2 b 293 29 288 7 292 18 l 293 29 b 301 -2 295 19 299 7 l 316 -2 l 331 45 l 316 45 z m 341 15 b 341 -3 329 15 329 -4 b 350 6 347 -4 350 0 b 341 15 350 11 347 15 z m 377 58 l 362 54 l 362 45 l 355 45 l 355 33 l 362 33 b 366 1 362 25 360 6 b 388 -2 369 -4 383 -4 l 387 10 b 377 18 381 8 376 9 l 377 33 l 388 33 l 388 45 l 377 45 z m 449 27 b 446 10 447 21 446 16 l 445 10 b 437 45 444 20 439 35 l 424 45 b 415 10 422 35 417 20 l 415 10 b 408 45 414 20 410 35 l 392 45 l 407 -2 l 422 -2 b 430 29 424 7 428 18 l 430 29 b 438 -2 432 19 435 7 l 453 -2 l 468 45 l 453 45 z m 483 66 b 483 51 472 66 472 51 b 491 58 488 51 491 54 b 483 66 491 62 488 66 z m 491 -2 l 491 45 l 475 45 l 475 -2 z m 533 46 b 518 38 524 46 519 41 l 517 38 l 517 45 l 503 45 b 504 -2 504 36 504 8 l 519 -2 b 519 28 519 0 518 27 b 536 23 523 37 537 35 l 536 -2 l 552 -2 l 552 25 b 533 46 552 40 543 46 z m 580 -2 l 580 67 l 564 67 l 564 -2 z m 615 46 b 589 21 596 46 589 31 b 635 0 588 -2 616 -8 l 633 10 b 604 16 624 7 605 6 l 637 16 b 615 46 639 29 634 46 z m 604 27 b 623 27 605 39 623 39 z m 664 58 l 649 54 l 649 45 l 642 45 l 642 33 l 649 33 b 653 1 649 25 647 6 b 675 -2 656 -4 670 -4 l 674 10 b 664 18 668 8 663 9 l 664 33 l 675 33 l 675 45 l 664 45 z m 701 58 l 686 54 l 686 45 l 679 45 l 679 33 l 686 33 b 690 1 686 25 684 6 b 712 -2 694 -4 707 -4 l 712 10 b 701 18 706 8 700 9 l 701 33 l 712 33 l 712 45 l 701 45 z m 743 46 b 718 21 725 46 718 31 b 763 0 716 -2 745 -8 l 761 10 b 732 16 753 7 734 6 l 765 16 b 743 46 768 29 763 46 z m 732 27 b 752 27 733 39 752 39 z m 789 35 l 788 35 l 788 45 l 775 45 b 775 -2 775 37 775 7 l 791 -2 b 791 24 791 -1 790 24 b 806 32 791 30 800 33 l 806 46 b 789 35 799 47 792 44 z m 815 15 b 815 -3 803 15 803 -4 b 824 6 821 -4 824 0 b 815 15 824 11 821 15 z m 860 8 b 846 21 853 8 846 13 b 869 33 845 33 861 37 l 872 44 b 872 -1 815 59 818 -19 l 870 10 b 860 8 868 9 864 8 z m 904 46 b 903 -3 867 47 868 -4 b 904 46 937 -5 941 46 z m 904 7 b 904 35 890 7 888 36 b 904 7 919 36 917 6 z m 999 46 b 983 37 992 46 987 43 l 983 37 b 954 38 978 50 957 47 l 953 38 l 953 45 l 940 45 b 940 -2 940 36 940 8 l 955 -2 l 955 24 b 963 34 955 29 957 33 b 971 23 968 34 971 30 l 971 -2 l 986 -2 b 986 28 986 0 985 27 b 1001 23 990 37 1003 35 l 1001 -2 l 1016 -2 l 1016 25 b 999 46 1016 40 1008 46 z m 277 102 l 277 107 l 258 107 l 258 102 z m 319 117 b 327 115 323 117 326 116 l 329 120 b 329 85 289 134 290 70 l 328 90 b 306 102 319 85 305 90 b 319 117 306 110 311 117 z m 370 103 b 334 102 371 129 333 129 b 370 103 333 77 370 76 z m 352 88 b 352 117 337 87 336 117 b 352 88 368 117 366 87 z m 403 106 l 403 84 l 409 84 l 409 107 b 418 117 409 112 413 116 b 426 105 423 117 426 112 l 426 84 l 433 84 l 433 106 b 408 115 433 126 415 126 l 408 115 b 385 115 404 125 389 124 l 385 115 l 385 121 l 379 121 b 379 84 379 115 379 91 l 386 84 b 386 110 386 86 385 108 b 403 106 389 120 403 118 z m 464 122 b 450 115 457 122 453 119 l 450 115 l 450 121 l 444 121 b 444 68 444 113 444 77 l 451 68 l 451 89 l 451 89 b 480 103 460 76 480 84 b 464 122 480 114 473 122 z m 461 88 b 451 96 456 88 452 91 b 451 105 450 98 451 103 b 461 117 451 111 456 117 b 461 88 477 117 476 87 z m 495 84 l 495 139 l 488 139 l 488 84 z m 504 94 b 527 88 503 82 521 79 l 527 88 l 527 84 l 534 84 b 533 107 533 89 533 101 b 506 119 534 122 518 126 l 508 114 b 526 108 516 119 527 118 b 504 94 512 108 504 103 z m 526 103 b 517 88 527 96 526 88 b 510 94 513 88 510 90 b 526 103 510 102 519 103 z m 552 130 l 545 128 l 545 121 l 539 121 l 539 116 l 545 116 b 548 86 546 110 543 90 b 561 84 550 82 558 82 l 561 89 b 552 96 556 87 551 89 l 552 116 l 562 116 l 562 121 l 552 121 z m 596 90 b 573 101 588 86 573 87 l 599 101 b 584 122 600 109 598 122 b 566 102 573 122 566 113 b 597 85 565 84 585 79 z m 583 117 b 593 106 591 117 593 110 l 573 106 b 583 117 573 111 576 117 z m 633 88 b 624 91 629 88 626 89 l 622 85 b 646 94 630 80 647 83 b 637 106 646 100 643 103 b 636 117 628 108 627 116 b 643 115 639 117 642 116 l 645 120 b 623 111 638 125 622 121 b 633 100 623 107 626 103 b 633 88 642 98 642 88 z m 686 104 b 670 122 686 111 683 122 b 653 102 659 122 653 113 b 684 85 652 84 671 79 l 682 90 b 659 101 674 86 659 87 l 686 101 b 686 104 686 102 686 103 z m 659 106 b 679 106 660 121 680 121 z m 702 130 l 696 128 l 696 121 l 690 121 l 690 116 l 696 116 b 698 86 696 110 694 90 b 712 84 701 82 709 82 l 712 89 b 702 96 707 87 702 89 l 702 116 l 712 116 l 712 121 l 702 121 z m 752 122 b 752 83 728 123 727 82 b 752 122 775 81 778 122 z m 752 88 b 752 117 738 87 736 117 b 752 88 768 117 766 87 z m 811 84 l 811 106 b 786 115 811 126 792 126 l 785 115 l 785 121 l 779 121 b 779 84 779 115 779 91 l 786 84 b 787 109 786 86 786 108 b 804 105 790 121 806 118 l 804 84 z m 855 102 l 855 107 l 836 107 l 836 102 z m 738 518 b 741 543 741 526 743 534 b 732 553 740 548 736 557 b 719 494 720 539 720 512 b 738 518 727 500 734 508 z m 540 608 b 512 608 532 608 520 607 b 510 478 515 565 510 521 b 516 428 509 462 508 439 b 548 449 527 413 544 441 b 564 501 556 465 560 484 b 570 565 568 522 569 543 b 570 608 570 568 572 608 b 540 608 560 608 550 608 z m 414 518 b 418 543 417 526 420 534 b 408 553 417 548 413 557 b 395 494 397 539 397 512 b 414 518 404 500 410 508 z m 1092 667 b 556 1203 1092 963 852 1203 b 170 296 86 1205 -155 630 l 78 296 l 78 164 l 1037 164 l 1037 296 l 943 296 b 1092 667 1036 393 1092 523 z m 979 260 b 978 193 1027 261 1024 191 b 979 260 932 193 934 261 z m 619 899 b 671 888 625 938 678 929 b 671 887 671 888 671 888 b 624 867 672 859 642 844 b 619 899 618 877 617 889 z m 607 773 b 615 831 609 801 607 804 b 665 824 622 859 666 853 b 656 732 661 794 657 763 b 660 706 656 724 655 713 b 679 715 666 699 676 710 b 692 748 685 724 689 737 b 705 846 703 779 705 813 b 728 869 706 859 715 869 b 751 846 741 869 750 859 b 753 773 752 822 753 798 b 823 870 763 807 776 875 b 847 793 854 859 847 819 b 843 735 847 774 843 754 b 855 707 843 725 844 711 b 892 723 868 703 883 715 b 923 872 926 763 939 822 b 844 913 915 895 871 942 b 813 895 829 898 823 870 b 816 931 809 904 808 915 b 937 914 844 976 912 949 b 862 669 996 836 960 697 b 800 824 770 647 793 769 b 797 833 800 826 801 839 b 775 778 786 817 781 796 b 759 713 768 757 764 735 b 733 673 755 698 752 675 b 704 699 717 671 705 684 b 704 716 704 704 704 711 b 640 673 694 688 674 659 b 607 773 602 689 605 739 z m 426 1058 b 572 1000 479 1087 546 1050 b 593 770 608 931 599 844 b 518 670 592 726 576 656 b 482 714 498 677 488 695 b 404 690 472 670 434 650 b 386 764 390 711 388 739 b 385 846 384 791 385 819 b 411 873 385 861 397 872 b 438 846 426 873 438 860 b 437 780 438 823 437 803 b 453 713 438 762 432 712 b 469 742 462 715 467 733 b 482 825 474 759 475 805 b 522 822 490 843 522 840 b 523 743 522 799 523 758 b 562 729 524 706 553 687 b 516 1015 571 814 587 953 b 418 988 481 1045 428 1031 b 393 1009 416 977 391 984 b 426 1058 396 1035 412 1050 z m 163 904 b 376 964 203 964 310 962 b 495 936 412 965 468 965 b 500 921 498 932 501 927 b 462 910 497 905 473 910 b 357 913 427 912 392 915 b 351 778 354 868 351 823 b 366 605 348 720 350 662 b 342 596 368 592 350 594 b 297 762 282 613 298 714 b 303 911 297 812 299 861 b 300 911 302 911 301 911 b 191 887 284 910 183 911 b 234 883 198 878 224 883 b 234 855 252 885 251 857 b 178 861 215 854 194 851 b 163 904 163 870 156 888 z m 153 246 l 133 246 l 133 194 l 118 194 l 118 246 l 98 246 l 98 259 l 153 259 z m 220 194 l 205 194 l 205 221 l 177 221 l 177 194 l 161 194 l 161 259 l 177 259 l 177 234 l 205 234 l 205 259 l 220 259 z m 249 194 l 233 194 l 233 259 l 249 259 z m 280 193 b 260 197 272 193 264 195 l 263 210 b 292 212 268 206 292 201 b 280 221 292 216 289 218 b 261 240 269 224 261 230 b 305 257 260 260 291 264 l 302 244 b 286 248 299 246 293 248 b 289 233 272 247 272 237 b 280 193 318 225 313 192 z m 383 247 l 355 247 l 355 232 l 381 232 l 381 220 l 355 220 l 355 194 l 340 194 l 340 259 l 383 259 z m 426 193 b 427 260 379 192 382 261 b 426 193 474 261 472 191 z m 514 194 b 486 243 505 208 492 228 l 485 243 b 486 194 486 228 486 209 l 472 194 l 472 259 l 491 259 b 517 212 499 246 512 227 l 517 212 b 516 259 516 227 516 244 l 531 259 l 531 194 z m 574 246 l 574 194 l 558 194 l 558 246 l 539 246 l 539 259 l 594 259 l 594 246 z m 638 194 l 623 194 l 623 259 l 638 259 z m 669 193 b 649 197 661 193 653 195 l 653 210 b 682 212 658 206 681 201 b 670 221 682 216 678 218 b 650 240 658 224 650 230 b 695 257 649 260 680 264 l 691 244 b 676 248 688 246 683 248 b 679 233 662 247 662 237 b 669 193 707 225 703 192 z m 781 202 b 729 194 772 193 742 192 l 729 258 b 781 252 744 260 771 261 b 781 202 797 243 795 211 z m 803 194 l 803 259 l 847 259 l 847 247 l 818 247 l 818 234 l 845 234 l 845 221 l 818 221 l 818 206 l 848 206 l 848 194 z m 920 194 b 918 248 919 211 918 230 l 918 248 b 901 195 914 232 906 211 l 889 195 l 881 221 b 875 248 879 229 877 239 l 875 248 b 872 194 874 231 873 210 l 858 194 l 862 259 l 883 259 l 890 238 b 896 214 892 231 894 222 l 896 214 b 911 259 900 228 906 246 l 932 259 l 935 194 l 920 194 z m 920 325 b 766 334 870 358 806 338 b 231 307 588 320 410 291 b 234 342 209 309 211 344 b 766 358 411 316 589 339 b 936 334 793 361 939 394 b 920 325 936 322 929 319 z m 940 661 b 803 597 930 593 847 595 b 618 606 742 598 676 605 b 615 478 621 564 615 521 b 621 428 614 462 613 439 b 654 449 632 413 649 441 b 715 577 677 490 670 551 b 763 558 733 586 755 578 b 719 475 776 526 747 490 b 717 458 717 474 717 463 b 734 423 718 446 721 428 b 789 503 763 415 787 475 b 781 557 789 521 786 540 b 782 576 780 563 776 571 b 834 558 798 588 826 573 b 841 531 838 549 840 540 b 870 573 847 547 854 565 b 919 563 886 582 907 576 b 883 468 949 534 940 434 b 874 488 878 471 870 484 b 892 505 881 493 888 498 b 891 533 896 514 895 524 b 859 524 881 564 864 545 b 835 407 845 485 838 447 b 825 386 835 400 832 388 b 798 404 815 384 803 397 b 787 440 791 415 788 428 b 722 389 775 416 753 388 b 672 443 694 390 674 417 b 570 451 651 371 577 374 b 546 405 565 435 557 417 b 466 445 511 371 469 403 b 398 389 454 419 431 388 b 354 422 379 390 360 404 b 347 414 352 419 350 417 b 219 425 303 376 241 374 b 218 617 197 485 217 555 b 209 682 219 639 215 661 b 211 694 207 687 207 691 b 263 676 227 706 255 691 b 268 590 275 651 269 617 b 262 461 266 547 261 504 b 275 423 262 449 259 428 b 323 439 291 419 311 427 b 363 547 350 469 346 513 b 439 558 377 579 422 597 b 395 475 452 526 423 490 b 394 458 393 474 394 464 b 410 423 394 447 397 428 b 448 451 427 418 441 438 b 463 519 460 471 461 496 b 465 610 463 526 466 610 b 405 609 445 610 425 610 b 405 628 393 609 393 627 b 464 631 425 629 444 630 b 463 645 464 636 463 640 b 504 651 461 670 498 673 b 509 633 506 645 507 639 b 569 632 528 633 551 633 b 568 645 569 637 569 641 b 610 651 566 670 603 673 b 614 633 611 645 613 639 b 786 637 656 635 764 637 b 926 665 844 636 885 646 b 940 661 933 669 942 673 z m 979 205 b 979 248 1003 204 1004 249 b 979 205 955 249 955 204 z m 427 248 b 427 205 402 249 402 204 b 427 248 451 204 451 249 z m 753 248 b 744 247 748 248 746 248 l 744 205 b 776 228 761 203 777 210 b 753 248 776 241 767 248 z "},"5":{"ha":1128,"x_min":0,"x_max":0,"o":"m 162 38 b 159 21 161 32 160 27 l 159 21 b 150 56 157 31 153 46 l 138 56 b 129 21 136 46 131 31 l 129 21 b 122 56 127 31 124 46 l 106 56 l 121 9 l 136 9 b 144 40 138 18 142 29 l 144 40 b 152 9 145 30 149 18 l 167 9 l 182 56 l 167 56 z m 242 38 b 239 21 241 32 240 27 l 239 21 b 230 56 237 31 233 46 l 218 56 b 209 21 215 46 211 31 l 209 21 b 201 56 207 31 204 46 l 186 56 l 200 9 l 215 9 b 223 40 218 18 222 29 l 223 40 b 231 9 225 30 229 18 l 246 9 l 261 56 l 246 56 z m 322 38 b 318 21 320 32 319 27 l 318 21 b 309 56 316 31 312 46 l 297 56 b 288 21 295 46 290 31 l 288 21 b 281 56 286 31 283 46 l 265 56 l 280 9 l 295 9 b 303 40 297 18 301 29 l 303 40 b 311 9 304 30 308 18 l 326 9 l 341 56 l 326 56 z m 351 26 b 351 7 339 26 339 7 b 360 17 356 7 360 11 b 351 26 360 22 357 26 z m 386 69 l 371 65 l 371 56 l 365 56 l 365 44 l 371 44 b 375 12 372 36 369 17 b 397 9 379 7 392 7 l 397 21 b 386 29 391 19 386 20 l 386 44 l 397 44 l 397 56 l 386 56 z m 458 38 b 455 21 457 32 456 27 l 455 21 b 446 56 453 31 449 46 l 434 56 b 425 21 431 46 427 31 l 425 21 b 418 56 423 31 420 46 l 402 56 l 417 9 l 431 9 b 440 40 434 18 438 29 l 440 40 b 448 9 441 30 445 18 l 463 9 l 478 56 l 463 56 z m 493 77 b 493 62 482 77 482 62 b 501 69 498 62 501 65 b 493 77 501 73 498 77 z m 501 9 l 501 56 l 485 56 l 485 9 z m 543 57 b 527 49 534 57 529 52 l 527 49 l 526 56 l 513 56 b 513 9 514 47 513 19 l 529 9 b 529 39 529 11 528 38 b 546 34 533 48 547 46 l 546 9 l 561 9 l 561 36 b 543 57 561 51 553 57 z m 589 9 l 589 78 l 574 78 l 574 9 z m 624 57 b 599 32 606 57 599 42 b 644 11 598 9 626 3 l 642 21 b 614 27 634 18 615 17 l 647 27 b 624 57 649 40 644 57 z m 613 38 b 633 38 615 50 633 50 z m 673 69 l 658 65 l 658 56 l 652 56 l 652 44 l 658 44 b 662 12 659 36 656 17 b 684 9 666 7 679 7 l 684 21 b 673 29 678 19 673 20 l 673 44 l 684 44 l 684 56 l 673 56 z m 711 69 l 696 65 l 696 56 l 689 56 l 689 44 l 696 44 b 700 12 696 36 694 17 b 722 9 703 7 717 7 l 721 21 b 711 29 715 19 710 20 l 711 44 l 722 44 l 722 56 l 711 56 z m 753 57 b 727 32 735 57 727 42 b 773 11 726 9 755 3 l 771 21 b 742 27 763 18 743 17 l 775 27 b 753 57 777 40 772 57 z m 742 38 b 761 38 743 50 761 50 z m 798 46 l 798 46 l 798 56 l 784 56 b 785 9 785 48 785 18 l 800 9 b 800 35 800 10 800 35 b 816 43 801 41 809 44 l 816 57 b 798 46 809 58 802 55 z m 825 26 b 825 7 813 26 813 7 b 834 17 830 7 834 11 b 825 26 834 22 830 26 z m 870 19 b 856 32 863 19 856 24 b 879 44 855 44 871 48 l 882 55 b 882 10 825 70 828 -8 l 880 21 b 870 19 877 20 874 19 z m 914 57 b 913 7 877 58 878 7 b 914 57 947 6 951 57 z m 913 18 b 913 46 899 17 898 47 b 913 18 929 47 927 17 z m 1009 57 b 993 48 1002 57 997 54 l 992 48 b 963 49 987 61 967 58 l 963 49 l 962 56 l 949 56 b 950 9 950 47 950 19 l 965 9 l 965 35 b 973 45 965 40 967 44 b 981 34 978 45 981 41 l 981 9 l 995 9 b 996 39 996 11 995 38 b 1011 34 1000 48 1012 46 l 1011 9 l 1026 9 l 1026 36 b 1009 57 1026 51 1018 57 z m 287 113 l 287 118 l 268 118 l 268 113 z m 329 128 b 337 126 333 128 335 127 l 339 131 b 338 96 299 145 299 81 l 337 101 b 316 113 329 96 315 101 b 329 128 316 121 320 128 z m 380 114 b 343 113 381 140 343 140 b 380 114 343 88 380 87 z m 362 99 b 362 128 347 98 346 128 b 362 99 378 128 376 98 z m 412 117 l 412 95 l 419 95 l 419 118 b 428 128 419 123 422 127 b 436 116 433 128 436 123 l 436 95 l 442 95 l 442 117 b 418 126 442 137 424 137 l 417 126 b 395 126 414 136 399 135 l 395 126 l 394 132 l 388 132 b 389 95 389 126 389 102 l 395 95 b 396 121 396 97 395 119 b 412 117 399 131 413 129 z m 473 133 b 460 126 467 133 463 130 l 460 126 l 459 132 l 453 132 b 454 79 454 124 454 88 l 460 79 l 460 100 l 461 100 b 489 114 470 87 490 95 b 473 133 489 125 482 133 z m 471 99 b 461 107 466 99 462 102 b 460 116 460 109 460 114 b 471 128 461 122 466 128 b 471 99 486 128 486 98 z m 505 95 l 505 150 l 498 150 l 498 95 z m 513 105 b 536 99 513 93 531 90 l 537 99 l 537 95 l 543 95 b 543 118 542 100 543 112 b 516 130 544 133 528 137 l 518 125 b 536 119 526 130 537 129 b 513 105 521 119 513 114 z m 536 114 b 527 99 537 107 536 99 b 520 105 523 99 520 101 b 536 114 520 113 529 114 z m 562 141 l 555 139 l 555 132 l 549 132 l 549 127 l 555 127 b 558 97 556 121 553 101 b 571 95 560 93 568 93 l 571 100 b 562 107 566 98 561 100 l 562 127 l 571 127 l 571 132 l 562 132 l 562 141 z m 606 101 b 583 112 598 97 582 98 l 609 112 b 594 133 610 120 607 133 b 576 113 583 133 576 124 b 607 96 575 95 594 90 z m 593 128 b 603 117 601 128 603 121 l 583 117 b 593 128 583 122 586 128 z m 642 99 b 633 102 639 99 635 100 l 632 96 b 656 105 640 91 657 94 b 646 116 656 111 653 114 b 645 128 637 119 636 127 b 653 126 649 128 652 127 l 655 131 b 633 122 647 136 632 132 b 643 111 633 118 636 114 b 642 99 652 109 652 99 z m 695 115 b 680 133 695 122 692 133 b 662 113 669 133 662 124 b 693 96 661 95 681 90 l 692 101 b 669 112 684 97 668 98 l 695 112 b 695 115 695 113 695 114 z m 669 117 b 689 117 670 132 689 132 z m 712 141 l 706 139 l 706 132 l 700 132 l 700 127 l 706 127 b 708 97 706 121 704 101 b 722 95 711 93 718 93 l 721 100 b 712 107 717 98 712 100 l 712 127 l 722 127 l 722 132 l 712 132 z m 762 133 b 762 94 738 134 737 93 b 762 133 785 92 788 133 z m 762 99 b 762 128 747 98 746 128 b 762 99 778 128 776 98 z m 821 95 l 821 117 b 795 126 821 137 801 137 l 795 126 l 795 132 l 789 132 b 789 95 789 126 789 102 l 796 95 b 796 120 796 97 795 119 b 814 116 800 132 815 129 l 814 95 z m 864 113 l 864 118 l 845 118 l 845 113 z m 747 529 b 751 553 750 537 753 545 b 741 564 750 559 746 568 b 729 505 730 550 730 523 b 747 529 737 511 744 519 z m 550 619 b 522 619 542 619 530 618 b 519 489 525 576 520 532 b 525 439 519 473 518 450 b 558 460 537 424 554 452 b 573 512 566 476 570 495 b 579 576 578 533 578 554 b 580 619 579 579 582 619 b 550 619 570 619 560 619 z m 424 529 b 428 553 427 537 429 545 b 418 564 426 559 422 568 b 405 505 406 550 406 523 b 424 529 413 511 420 519 z m 1102 678 b 566 1214 1102 974 862 1214 b 179 307 95 1216 -145 641 l 87 307 l 87 175 l 1046 175 l 1046 307 l 953 307 b 1102 678 1045 404 1102 534 z m 989 271 b 988 204 1036 272 1034 202 b 989 271 941 204 944 272 z m 629 910 b 681 899 635 949 688 940 b 681 898 681 899 681 899 b 634 878 682 870 652 855 b 629 910 628 888 627 900 z m 617 784 b 624 842 619 812 617 814 b 675 835 632 870 676 864 b 666 743 671 805 667 774 b 670 717 666 735 665 724 b 689 726 675 710 686 721 b 702 759 695 735 698 748 b 715 857 713 790 714 824 b 738 880 715 870 725 880 b 760 857 751 880 760 870 b 763 784 762 833 762 809 b 833 881 773 818 786 886 b 857 804 864 870 857 830 b 853 746 856 785 853 765 b 864 718 853 736 853 722 b 901 734 877 714 893 726 b 933 883 936 774 949 833 b 854 924 924 906 881 953 b 822 906 839 909 833 881 b 826 942 819 915 818 926 b 947 925 854 987 922 960 b 872 680 1006 847 970 708 b 810 835 779 658 802 780 b 807 844 810 837 811 850 b 785 789 795 828 791 807 b 768 724 778 768 773 746 b 742 684 765 709 762 686 b 714 710 727 682 715 695 b 714 727 714 715 714 722 b 650 684 703 699 684 670 b 617 784 612 700 615 750 z m 436 1069 b 582 1011 489 1098 556 1061 b 603 781 617 942 608 855 b 527 681 601 737 586 667 b 492 725 507 688 497 706 b 414 701 482 681 444 661 b 396 775 399 722 398 750 b 395 857 394 802 394 830 b 421 884 395 872 407 883 b 448 857 435 884 448 871 b 447 791 447 834 447 814 b 463 724 448 773 442 723 b 479 753 472 726 477 744 b 492 836 483 770 485 816 b 532 833 500 854 532 851 b 533 754 531 810 533 769 b 572 740 533 717 563 698 b 526 1026 581 825 597 964 b 428 999 491 1056 438 1042 b 403 1020 425 988 401 995 b 436 1069 405 1046 421 1061 z m 173 915 b 386 975 213 975 320 973 b 504 947 422 976 477 976 b 510 932 508 943 510 938 b 471 921 507 916 482 920 b 367 924 437 923 402 926 b 361 789 363 879 361 834 b 375 616 357 731 360 673 b 352 607 378 603 360 605 b 307 773 292 624 308 725 b 313 922 307 823 309 872 b 309 922 312 922 310 922 b 201 898 294 920 193 921 b 243 894 208 889 234 894 b 243 866 261 895 261 868 b 187 872 225 865 204 862 b 173 915 173 881 166 899 z m 163 257 l 143 257 l 143 205 l 128 205 l 128 257 l 108 257 l 108 270 l 163 270 z m 230 205 l 214 205 l 214 232 l 186 232 l 186 205 l 171 205 l 171 270 l 186 270 l 186 245 l 214 245 l 214 270 l 230 270 z m 258 205 l 243 205 l 243 270 l 258 270 z m 290 204 b 269 208 282 204 274 206 l 273 221 b 302 223 278 217 301 212 b 290 232 302 227 299 229 b 270 251 279 235 270 241 b 315 268 269 271 300 275 l 311 255 b 296 259 308 257 303 259 b 299 244 282 258 282 248 b 290 204 328 236 323 203 z m 365 258 l 365 243 l 391 243 l 391 231 l 365 231 l 365 205 l 349 205 l 349 270 l 393 270 l 393 258 z m 436 204 b 437 271 389 203 392 272 b 436 204 484 272 481 202 z m 540 205 l 524 205 b 496 254 515 219 502 239 l 495 254 b 496 205 496 239 496 220 l 481 205 l 481 270 l 500 270 b 527 223 509 257 521 238 l 527 223 b 526 270 525 238 526 255 l 540 270 z m 584 257 l 584 205 l 568 205 l 568 257 l 549 257 l 549 270 l 603 270 l 603 257 z m 648 205 l 632 205 l 632 270 l 648 270 z m 679 204 b 659 208 671 204 663 206 l 662 221 b 691 223 668 217 691 212 b 679 232 691 227 688 229 b 660 251 668 235 660 241 b 704 268 659 271 690 275 l 701 255 b 685 259 698 257 693 259 b 689 244 671 258 671 248 b 679 204 717 236 712 203 z m 791 213 b 739 205 782 204 752 203 l 739 269 b 791 263 753 271 780 272 b 791 213 807 254 805 222 z m 813 205 l 813 270 l 857 270 l 857 258 l 828 258 l 828 245 l 855 245 l 855 232 l 828 232 l 828 217 l 858 217 l 858 205 z m 930 205 b 928 259 929 222 928 241 l 928 259 b 911 206 924 243 916 222 l 899 206 l 891 232 b 885 259 889 240 886 250 l 884 259 b 882 205 884 242 883 221 l 867 205 l 871 270 l 893 270 l 900 249 b 906 225 902 242 904 233 l 906 225 b 920 270 909 239 916 257 l 942 270 l 945 205 l 930 205 z m 930 336 b 776 345 880 369 815 349 b 240 318 597 331 420 302 b 243 353 219 320 220 355 b 776 369 421 327 599 350 b 946 345 802 372 949 405 b 930 336 945 333 939 330 z m 950 672 b 813 608 940 604 857 606 b 628 617 752 609 686 616 b 624 489 630 575 625 532 b 631 439 624 473 623 450 b 663 460 642 424 659 452 b 724 588 687 501 680 562 b 772 569 743 597 765 589 b 729 486 785 537 756 501 b 727 469 727 485 727 474 b 744 434 727 457 730 439 b 798 514 773 426 796 486 b 791 568 798 532 796 551 b 791 587 789 574 785 582 b 843 569 808 599 836 584 b 851 542 847 560 849 551 b 879 584 857 558 864 576 b 928 574 895 593 917 587 b 892 479 958 545 950 445 b 884 499 888 482 879 495 b 902 516 891 504 898 509 b 901 544 906 525 904 535 b 868 535 890 575 874 556 b 845 418 854 496 848 458 b 834 397 844 411 842 399 b 808 415 824 395 813 408 b 797 451 801 426 798 439 b 732 400 785 427 762 399 b 682 454 703 401 684 428 b 580 462 660 382 587 385 b 555 416 574 446 567 428 b 476 456 521 382 478 414 b 408 400 463 430 441 399 b 364 433 389 401 370 415 b 356 425 362 430 359 427 b 228 436 313 387 250 385 b 228 628 206 496 226 566 b 218 693 228 650 225 672 b 221 705 217 697 217 702 b 273 687 237 717 265 702 b 278 601 284 662 279 628 b 271 472 276 558 271 515 b 285 434 271 460 269 439 b 332 450 301 430 321 438 b 373 558 360 480 355 524 b 449 569 387 590 431 608 b 405 486 462 537 433 501 b 404 469 403 485 403 475 b 420 434 404 457 407 439 b 458 462 437 429 451 449 b 472 530 470 482 471 507 b 475 621 472 537 475 621 b 414 620 455 621 435 621 b 414 639 403 620 403 638 b 474 642 434 640 454 641 b 473 656 474 647 473 651 b 514 662 470 681 508 684 b 518 644 516 656 517 650 b 579 643 537 644 560 644 b 578 656 579 648 578 652 b 619 662 576 681 613 684 b 623 644 621 656 622 650 b 796 648 666 646 774 648 b 936 676 854 647 895 657 b 950 672 943 680 951 684 z m 989 216 b 989 259 1013 215 1013 260 b 989 216 964 260 964 215 z m 436 259 b 436 216 412 260 412 215 b 436 259 461 215 461 260 z m 762 259 b 754 258 758 259 756 259 l 754 216 b 786 239 771 214 787 221 b 762 259 786 252 777 259 z "},"6":{"ha":1117,"x_min":0,"x_max":0,"o":"m 160 35 b 157 18 158 29 157 24 l 156 18 b 148 53 155 28 150 43 l 135 53 b 126 18 133 43 128 29 l 126 18 b 119 53 125 29 121 43 l 104 53 l 118 6 l 133 6 b 141 37 135 15 139 27 l 141 37 b 149 6 143 27 146 15 l 164 6 l 179 53 l 164 53 z m 239 35 b 236 18 238 29 237 24 l 236 18 b 227 53 234 28 230 43 l 215 53 b 206 18 212 43 208 29 l 206 18 b 198 53 204 29 201 43 l 183 53 l 198 6 l 212 6 b 220 37 215 15 219 27 l 221 37 b 229 6 222 27 226 15 l 243 6 l 259 53 l 244 53 z m 319 35 b 316 18 318 29 316 24 l 315 18 b 307 53 314 28 309 43 l 294 53 b 285 18 292 43 287 29 l 285 18 b 278 53 284 29 280 43 l 263 53 l 277 6 l 292 6 b 300 37 295 15 298 27 l 300 37 b 308 6 302 27 306 15 l 323 6 l 338 53 l 323 53 z m 348 23 b 348 5 336 23 336 4 b 357 14 354 5 357 9 b 348 23 357 19 354 23 z m 384 66 l 369 62 l 369 53 l 362 53 l 362 42 l 369 42 b 373 9 369 33 367 15 b 395 6 376 4 390 4 l 394 18 b 384 26 388 16 383 17 l 384 42 l 395 42 l 395 53 l 384 53 z m 456 35 b 453 18 454 29 453 24 l 452 18 b 444 53 450 28 446 43 l 431 53 b 422 18 429 43 424 29 l 422 18 b 415 53 420 29 417 43 l 399 53 l 414 6 l 429 6 b 437 37 431 15 435 27 l 437 37 b 445 6 439 27 442 15 l 460 6 l 475 53 l 460 53 z m 490 74 b 490 59 479 74 479 59 b 498 66 495 59 498 62 b 490 74 498 71 495 74 z m 498 6 l 498 53 l 482 53 l 482 6 z m 540 54 b 525 46 531 54 526 49 l 524 46 l 523 53 l 510 53 b 511 6 511 44 510 16 l 526 6 b 526 36 526 8 525 35 b 543 31 530 46 544 44 l 543 6 l 559 6 l 559 33 b 540 54 558 48 550 54 z m 586 6 l 586 75 l 571 75 l 571 6 z m 622 54 b 596 29 603 54 596 40 b 642 8 595 6 623 0 l 640 18 b 611 25 631 15 612 14 l 644 25 b 622 54 646 37 641 54 z m 611 35 b 630 35 612 47 630 47 z m 671 66 l 656 62 l 656 53 l 649 53 l 649 42 l 656 42 b 660 9 656 33 654 15 b 682 6 663 4 677 4 l 681 18 b 671 26 675 16 670 18 l 671 42 l 682 42 l 682 53 l 671 53 z m 708 66 l 693 62 l 693 53 l 686 53 l 686 42 l 693 42 b 697 9 693 33 691 15 b 719 6 701 4 714 4 l 719 18 b 708 26 713 16 707 18 l 708 42 l 719 42 l 719 53 l 708 53 z m 750 54 b 725 29 732 54 725 40 b 770 8 723 6 752 0 l 768 18 b 739 25 760 15 741 14 l 772 25 b 750 54 775 37 769 54 z m 739 35 b 758 35 740 47 759 47 z m 796 44 l 795 44 l 795 53 l 782 53 b 782 6 782 45 782 16 l 797 6 b 798 33 798 7 797 32 b 813 40 798 39 807 42 l 813 54 b 796 44 806 55 799 53 z m 822 23 b 822 5 810 23 810 4 b 831 14 827 5 831 9 b 822 23 831 19 828 23 z m 867 17 b 853 30 860 17 853 21 b 876 41 852 42 868 45 l 879 52 b 879 7 822 67 825 -11 l 877 18 b 867 17 874 17 871 17 z m 911 54 b 910 5 874 55 875 4 b 911 54 944 3 948 54 z m 911 16 b 911 43 897 15 895 44 b 911 16 926 44 924 14 z m 1006 54 b 990 46 999 54 994 51 l 990 46 b 961 46 985 58 964 55 l 960 46 l 960 53 l 947 53 b 947 6 947 44 947 16 l 962 6 l 962 33 b 970 42 962 37 964 42 b 978 31 975 42 978 38 l 978 6 l 993 6 b 993 37 993 9 992 35 b 1008 31 997 46 1010 43 l 1008 6 l 1023 6 l 1023 33 b 1006 54 1023 48 1015 54 z m 284 110 l 284 115 l 265 115 l 265 110 z m 326 125 b 334 123 330 125 333 124 l 336 128 b 336 93 296 142 297 78 l 335 98 b 313 111 326 94 312 98 b 326 125 313 118 318 125 z m 377 111 b 341 110 378 137 340 137 b 377 111 340 85 377 84 z m 359 96 b 359 125 344 96 343 125 b 359 96 375 125 373 96 z m 410 114 l 410 92 l 416 92 l 416 115 b 425 125 416 120 420 125 b 433 113 430 125 433 120 l 433 92 l 440 92 l 440 114 b 415 123 440 134 422 134 l 415 123 b 392 123 411 133 396 132 l 392 123 l 392 130 l 386 130 b 386 92 386 123 386 99 l 393 92 b 393 118 393 94 392 116 b 410 114 396 128 410 127 z m 471 130 b 457 123 464 130 460 128 l 457 123 l 457 130 l 451 130 b 451 76 451 122 451 85 l 458 76 l 458 97 l 458 97 b 486 111 467 84 487 92 b 471 130 486 123 480 130 z m 468 96 b 458 104 463 96 459 100 b 458 114 457 106 458 112 b 468 125 458 120 463 125 b 468 96 484 125 483 95 z m 502 92 l 502 147 l 495 147 l 495 92 z m 511 102 b 534 97 510 90 528 88 l 534 97 l 534 92 l 541 92 b 540 115 540 97 540 109 b 513 127 541 130 525 134 l 515 123 b 533 116 523 128 534 126 b 511 102 519 116 511 111 z m 533 111 b 524 96 534 104 533 96 b 517 103 520 96 517 98 b 533 111 517 110 526 111 z m 559 139 l 552 136 l 552 130 l 546 130 l 546 124 l 552 124 b 555 94 553 118 550 98 b 568 92 557 90 565 90 l 568 97 b 559 104 563 96 558 97 l 559 124 l 569 124 l 569 130 l 559 130 l 559 139 z m 603 98 b 580 109 595 95 579 95 l 606 109 b 591 130 607 118 605 130 b 573 110 580 130 573 121 b 604 93 572 92 592 87 z m 590 125 b 600 114 598 125 600 119 l 580 114 b 590 125 580 119 583 125 z m 639 96 b 630 99 636 96 633 98 l 629 94 b 653 102 637 88 654 91 b 644 114 653 108 650 111 b 643 125 635 116 634 125 b 650 123 646 125 649 124 l 652 128 b 630 119 644 133 629 130 b 640 109 630 115 633 111 b 639 96 649 106 649 96 z m 693 113 b 677 130 693 120 689 130 b 659 110 666 130 659 121 b 691 93 659 92 678 87 l 689 98 b 666 109 681 95 666 95 l 692 109 b 693 113 693 110 693 111 z m 666 114 b 686 114 667 129 687 129 z m 709 139 l 703 136 l 703 130 l 697 130 l 697 124 l 703 124 b 705 94 703 118 701 98 b 719 92 708 90 716 90 l 719 97 b 709 104 714 96 709 97 l 709 124 l 719 124 l 719 130 l 709 130 z m 759 130 b 759 91 735 131 734 91 b 759 130 782 90 785 130 z m 759 96 b 759 125 745 96 743 125 b 759 96 775 125 773 96 z m 818 92 l 818 114 b 792 123 818 134 798 134 l 792 123 l 792 130 l 786 130 b 786 92 786 123 786 99 l 793 92 b 793 118 793 94 793 116 b 811 114 797 129 813 126 l 811 92 z m 862 110 l 862 115 l 842 115 l 842 110 z m 745 526 b 748 551 748 534 750 543 b 739 562 747 556 743 565 b 726 502 727 547 727 520 b 745 526 734 508 741 516 z m 547 616 b 519 616 539 616 527 615 b 517 486 522 573 517 529 b 523 436 516 471 515 447 b 555 458 534 421 551 449 b 571 509 563 473 567 492 b 577 573 575 530 575 552 b 577 616 577 576 579 616 b 547 616 567 616 557 616 z m 421 526 b 425 551 424 534 427 543 b 415 562 424 556 420 565 b 402 502 404 547 404 520 b 421 526 410 508 417 516 z m 1099 675 b 563 1211 1099 971 859 1211 b 177 305 93 1213 -148 638 l 84 305 l 84 172 l 1044 172 l 1044 305 l 950 305 b 1099 675 1043 401 1099 532 z m 986 268 b 985 201 1034 269 1031 200 b 986 268 939 201 941 269 z m 626 908 b 678 896 632 946 685 937 b 678 896 678 896 678 896 b 631 876 679 867 649 852 b 626 908 625 885 624 897 z m 614 781 b 622 839 616 810 614 812 b 672 832 629 867 673 861 b 663 740 668 802 664 771 b 667 714 663 732 662 721 b 686 723 673 707 683 718 b 699 756 692 733 696 745 b 712 854 710 788 712 821 b 735 877 713 867 722 877 b 758 854 748 877 757 867 b 760 781 759 830 760 806 b 830 878 770 815 783 883 b 854 801 861 867 854 827 b 850 743 854 782 850 763 b 862 715 850 734 850 719 b 899 731 875 711 890 723 b 930 880 933 772 946 830 b 851 922 921 903 878 950 b 820 903 836 906 830 878 b 823 939 816 912 815 924 b 944 922 851 985 919 957 b 869 677 1003 844 967 705 b 807 832 777 656 800 777 b 804 841 807 834 808 847 b 782 786 793 826 788 804 b 766 722 775 765 771 743 b 739 681 762 706 759 684 b 711 707 724 679 712 692 b 711 724 711 712 711 719 b 647 682 701 696 681 667 b 614 781 609 697 612 747 z m 433 1066 b 579 1008 486 1096 553 1058 b 600 778 615 939 606 853 b 525 679 599 735 583 664 b 489 722 505 685 494 703 b 411 698 479 678 441 658 b 393 772 397 719 395 748 b 392 854 391 799 392 827 b 418 881 392 869 404 880 b 445 854 433 881 445 868 b 444 788 445 831 444 811 b 460 721 445 770 439 720 b 476 750 469 723 474 742 b 489 833 481 767 482 814 b 529 830 497 851 529 849 b 530 751 528 807 530 767 b 569 737 530 714 560 695 b 523 1023 578 822 594 961 b 425 996 488 1054 435 1039 b 400 1018 422 985 398 992 b 433 1066 403 1044 419 1058 z m 170 912 b 383 973 210 973 317 971 b 502 944 419 973 475 973 b 507 929 505 940 508 935 b 469 918 504 914 479 918 b 364 922 434 920 399 923 b 358 786 361 877 358 831 b 373 614 355 728 357 670 b 349 604 375 600 357 602 b 304 771 289 622 305 722 b 310 919 304 820 306 870 b 307 919 309 919 308 919 b 198 895 291 918 190 919 b 241 892 205 886 231 891 b 241 863 259 893 258 865 b 184 869 222 862 201 859 b 170 912 170 878 163 896 z m 160 255 l 140 255 l 140 202 l 125 202 l 125 255 l 105 255 l 105 267 l 160 267 z m 227 202 l 212 202 l 212 229 l 184 229 l 184 202 l 168 202 l 168 267 l 184 267 l 184 242 l 212 242 l 212 267 l 227 267 z m 256 202 l 240 202 l 240 267 l 256 267 z m 287 201 b 267 206 279 201 271 203 l 270 218 b 299 220 275 214 299 209 b 287 229 299 224 296 227 b 267 249 276 232 267 238 b 312 265 267 268 298 272 l 309 253 b 293 256 306 254 300 256 b 296 241 279 255 279 245 b 287 201 325 234 320 200 z m 362 255 l 362 241 l 388 241 l 388 228 l 362 228 l 362 202 l 347 202 l 347 267 l 390 267 l 390 255 z m 433 201 b 434 268 386 201 389 269 b 433 201 481 269 479 200 z m 538 202 l 521 202 b 493 252 512 216 499 236 l 492 252 b 493 202 493 237 493 217 l 479 202 l 479 267 l 498 267 b 524 221 506 254 519 235 l 524 221 b 523 267 523 235 523 253 l 538 267 z m 581 255 l 581 202 l 565 202 l 565 255 l 546 255 l 546 267 l 601 267 l 601 255 z m 645 202 l 630 202 l 630 267 l 645 267 z m 676 201 b 656 206 668 201 660 203 l 660 218 b 688 220 665 214 688 209 b 677 229 688 224 685 227 b 657 249 665 232 657 238 b 702 265 656 268 687 272 l 698 253 b 683 256 695 254 690 256 b 686 241 669 255 669 245 b 676 201 714 234 710 200 z m 788 211 b 736 202 779 201 749 200 l 736 266 b 788 260 750 269 778 269 b 788 211 804 252 802 220 z m 810 202 l 810 267 l 854 267 l 854 255 l 825 255 l 825 242 l 852 242 l 852 229 l 825 229 l 825 215 l 855 215 l 855 202 z m 927 202 b 925 256 926 219 925 238 l 925 256 b 908 203 921 241 913 219 l 896 203 l 888 229 b 882 256 886 238 884 247 l 882 256 b 879 202 881 240 880 219 l 865 202 l 869 267 l 890 267 l 897 246 b 903 223 899 239 901 230 l 903 223 b 918 267 907 237 913 254 l 939 267 l 942 202 l 927 202 z m 927 333 b 773 343 877 366 813 346 b 238 315 595 328 417 299 b 241 350 216 317 217 352 b 773 367 418 325 596 347 b 943 342 800 369 946 402 b 927 333 943 330 936 328 z m 947 669 b 810 606 937 602 854 604 b 625 615 749 606 683 613 b 622 486 628 572 622 529 b 628 436 621 471 620 447 b 660 458 639 421 656 449 b 722 585 684 498 677 559 b 770 567 740 594 762 586 b 726 483 782 534 754 498 b 724 466 724 482 724 472 b 741 431 725 455 728 436 b 796 511 770 424 794 483 b 788 566 796 529 793 548 b 789 584 786 572 783 579 b 841 566 805 596 833 582 b 848 539 845 557 847 548 b 877 582 854 555 861 573 b 926 571 893 590 914 585 b 890 476 955 542 947 442 b 881 496 885 480 876 492 b 899 514 888 501 895 506 b 898 541 903 522 902 533 b 866 532 888 572 871 554 b 842 415 852 493 845 456 b 832 395 841 408 839 397 b 805 412 822 392 810 405 b 794 449 798 423 795 436 b 729 397 782 424 759 396 b 679 451 700 399 681 425 b 577 459 658 379 584 382 b 553 413 571 443 564 426 b 473 453 518 380 476 411 b 405 397 460 427 438 396 b 361 430 386 399 367 412 b 354 423 359 427 356 425 b 225 433 310 385 248 382 b 225 626 204 494 223 564 b 215 690 225 647 222 669 b 218 702 214 695 214 699 b 270 684 234 714 262 700 b 275 598 282 659 276 625 b 269 470 273 555 268 513 b 282 432 269 458 266 436 b 330 447 298 427 318 436 b 370 556 357 477 353 521 b 446 567 384 587 429 605 b 402 483 459 534 430 498 b 401 467 400 482 401 472 b 417 431 401 455 404 436 b 455 459 434 426 448 446 b 469 528 467 479 468 504 b 472 618 470 534 473 618 b 412 618 452 618 432 618 b 412 636 400 617 400 635 b 471 639 432 637 451 638 b 470 653 471 644 470 649 b 511 659 468 678 505 681 b 516 641 513 653 514 647 b 576 641 535 642 558 641 b 575 653 576 645 576 649 b 617 659 573 678 610 681 b 621 642 618 653 619 647 b 793 645 663 643 771 645 b 933 674 851 644 892 654 b 947 669 940 677 949 681 z m 986 213 b 986 256 1010 212 1011 257 b 986 213 962 257 962 212 z m 434 256 b 433 213 409 257 409 212 b 434 256 458 212 458 257 z m 759 256 b 751 255 755 256 753 256 l 751 214 b 783 236 768 211 784 218 b 759 256 783 249 774 256 z "},"7":{"ha":1110,"x_min":0,"x_max":0,"o":"m 146 30 b 143 13 145 24 143 19 l 143 13 b 134 48 141 23 136 38 l 121 48 b 113 13 119 38 114 24 l 112 13 b 105 48 111 24 107 38 l 90 48 l 104 1 l 119 1 b 127 32 122 10 126 22 l 127 32 b 135 1 129 22 133 10 l 150 1 l 165 48 l 150 48 z m 225 30 b 222 13 224 24 223 19 l 222 13 b 213 48 220 23 216 38 l 201 48 b 192 13 198 38 194 24 l 192 13 b 185 48 190 24 187 38 l 169 48 l 184 1 l 198 1 b 206 32 201 10 205 22 l 207 32 b 215 1 208 22 212 10 l 229 1 l 245 48 l 230 48 z m 305 30 b 302 13 304 24 302 19 l 302 13 b 293 48 300 23 295 38 l 281 48 b 272 13 278 38 273 24 l 271 13 b 264 48 270 24 266 38 l 249 48 l 263 1 l 278 1 b 286 32 281 10 285 22 l 286 32 b 294 1 288 22 292 10 l 309 1 l 324 48 l 309 48 z m 334 18 b 334 0 323 18 322 -1 b 343 9 340 0 343 3 b 334 18 343 14 340 18 z m 370 61 l 355 57 l 355 48 l 348 48 l 348 36 l 355 36 b 359 4 355 28 353 10 b 381 1 362 -1 376 -1 l 381 13 b 370 21 374 11 369 12 l 370 36 l 381 36 l 381 48 l 370 48 z m 442 30 b 439 13 440 24 439 19 l 438 13 b 430 48 437 23 432 38 l 417 48 b 408 13 415 38 410 24 l 408 13 b 401 48 407 24 403 38 l 386 48 l 400 1 l 415 1 b 423 32 417 10 421 22 l 423 32 b 431 1 425 22 428 10 l 446 1 l 461 48 l 446 48 z m 476 69 b 476 54 466 69 465 54 b 484 61 481 54 484 57 b 476 69 484 66 481 69 z m 484 1 l 484 48 l 469 48 l 469 1 z m 526 49 b 511 41 517 49 512 44 l 510 41 l 510 48 l 496 48 b 497 1 497 39 497 11 l 512 1 b 512 31 512 3 511 30 b 529 26 516 40 530 38 l 529 1 l 545 1 l 545 28 b 526 49 545 43 536 49 z m 573 1 l 573 70 l 557 70 l 557 1 z m 608 49 b 582 24 589 49 582 35 b 628 3 581 1 610 -5 l 626 13 b 597 20 618 10 598 9 l 630 20 b 608 49 632 32 627 49 z m 597 30 b 616 30 598 42 616 42 z m 657 61 l 642 57 l 642 48 l 635 48 l 635 36 l 642 36 b 646 4 642 28 640 10 b 668 1 649 -1 663 -1 l 667 13 b 657 21 661 11 656 12 l 657 36 l 668 36 l 668 48 l 657 48 z m 694 61 l 679 57 l 679 48 l 672 48 l 672 36 l 679 36 b 683 4 679 28 677 10 b 705 1 687 -1 700 -1 l 705 13 b 694 21 699 11 693 12 l 694 36 l 705 36 l 705 48 l 694 48 z m 736 49 b 711 24 718 49 711 35 b 756 3 709 1 738 -5 l 754 13 b 725 20 746 10 727 9 l 758 20 b 736 49 761 32 756 49 z m 725 30 b 745 30 726 42 745 42 z m 782 39 l 781 39 l 781 48 l 768 48 b 768 1 769 40 768 10 l 784 1 b 784 27 784 2 783 27 b 799 35 784 34 793 36 l 799 49 b 782 39 792 50 785 47 z m 808 18 b 808 0 796 18 796 -1 b 817 9 814 0 817 3 b 808 18 817 14 814 18 z m 853 11 b 839 25 846 11 839 16 b 862 36 838 37 854 40 l 865 47 b 865 2 809 62 811 -16 l 863 13 b 853 11 861 12 857 11 z m 897 49 b 896 0 860 50 861 -1 b 897 49 930 -2 934 49 z m 897 10 b 897 38 883 10 881 39 b 897 10 912 39 910 9 z m 992 49 b 976 41 985 49 980 46 l 976 41 b 947 41 971 53 951 50 l 946 41 l 946 48 l 933 48 b 933 1 933 39 933 11 l 948 1 l 948 27 b 956 37 948 32 950 36 b 964 26 961 37 964 33 l 964 1 l 979 1 b 979 31 979 3 978 30 b 995 26 983 41 996 38 l 995 1 l 1009 1 l 1009 28 b 992 49 1009 43 1001 49 z m 270 105 l 270 110 l 251 110 l 251 105 z m 312 120 b 320 118 316 120 319 119 l 322 123 b 322 88 283 137 283 73 l 321 93 b 299 105 312 89 299 93 b 312 120 299 113 304 120 z m 363 106 b 327 105 364 132 326 132 b 363 106 326 80 364 79 z m 345 91 b 345 120 331 91 329 120 b 345 91 361 120 359 90 z m 396 109 l 396 87 l 402 87 l 402 110 b 411 120 402 115 406 120 b 419 108 416 120 419 115 l 419 87 l 426 87 l 426 109 b 401 118 426 129 408 129 l 401 118 b 378 118 398 128 382 127 l 378 118 l 378 124 l 372 124 b 372 87 372 118 372 94 l 379 87 b 379 113 379 89 378 111 b 396 109 382 123 396 122 z m 457 125 b 443 118 450 125 446 123 l 443 118 l 443 124 l 437 124 b 437 71 437 117 437 80 l 444 71 l 444 92 l 444 92 b 473 106 453 79 473 87 b 457 125 473 118 466 125 z m 454 91 b 444 99 449 91 445 95 b 444 109 443 101 444 107 b 455 120 444 115 449 120 b 454 91 470 120 469 90 z m 488 87 l 488 142 l 481 142 l 481 87 z m 497 97 b 520 91 496 85 514 83 l 520 91 l 520 87 l 527 87 b 526 110 526 92 526 104 b 499 122 527 125 511 129 l 501 117 b 519 111 509 123 520 121 b 497 97 505 111 497 106 z m 519 106 b 510 91 520 99 519 91 b 503 97 506 91 503 93 b 519 106 503 105 512 106 z m 545 133 l 538 131 l 538 124 l 532 124 l 532 119 l 538 119 b 541 89 539 113 536 93 b 554 87 543 85 551 85 l 554 92 b 545 99 549 91 544 92 l 545 119 l 555 119 l 555 124 l 545 124 l 545 133 z m 589 93 b 566 104 581 89 566 90 l 592 104 b 577 125 593 113 591 125 b 559 105 566 125 559 116 b 590 88 558 87 578 82 z m 576 120 b 586 109 584 120 586 114 l 566 109 b 576 120 566 114 570 120 z m 626 91 b 617 94 622 91 619 92 l 615 89 b 640 97 623 83 640 86 b 630 109 640 103 636 106 b 629 120 621 111 620 119 b 637 118 632 120 635 119 l 638 123 b 616 114 631 128 615 124 b 626 104 616 110 619 106 b 626 91 635 101 636 91 z m 679 107 b 663 125 679 114 676 125 b 646 105 652 125 646 116 b 677 88 645 87 664 82 l 675 93 b 652 104 667 89 652 90 l 679 104 b 679 107 679 105 679 106 z m 652 109 b 672 109 653 124 673 124 z m 696 133 l 689 131 l 689 124 l 683 124 l 683 119 l 689 119 b 691 89 690 113 687 93 b 705 87 694 85 702 85 l 705 92 b 696 99 700 91 695 92 l 696 119 l 705 119 l 705 124 l 696 124 z m 745 125 b 745 86 721 126 720 85 b 745 125 768 85 771 125 z m 745 91 b 745 120 731 91 729 120 b 745 91 761 120 759 90 z m 804 87 l 804 109 b 779 118 804 129 785 129 l 778 118 l 778 124 l 772 124 b 772 87 773 118 772 94 l 779 87 b 780 113 779 89 779 111 b 797 108 783 124 799 121 l 797 87 z m 848 105 l 848 110 l 829 110 l 829 105 z m 731 521 b 735 546 734 529 736 538 b 725 556 733 551 729 560 b 712 497 713 542 713 515 b 731 521 720 503 727 511 z m 533 611 b 505 611 526 611 513 610 b 503 481 508 568 503 524 b 509 431 502 466 501 442 b 541 452 520 416 537 444 b 557 504 549 468 553 487 b 563 568 561 525 562 547 b 563 611 563 571 565 611 b 533 611 553 611 543 611 z m 407 521 b 411 546 410 529 413 538 b 401 556 410 551 406 560 b 388 497 390 542 390 515 b 407 521 397 503 403 511 z m 1085 670 b 550 1206 1085 966 846 1206 b 163 300 79 1208 -161 633 l 71 300 l 71 167 l 1030 167 l 1030 300 l 936 300 b 1085 670 1029 396 1085 526 z m 972 263 b 971 196 1020 264 1017 194 b 972 263 925 196 927 264 z m 612 902 b 664 891 618 941 671 932 b 664 890 664 891 664 891 b 617 870 665 862 635 847 b 612 902 611 880 610 892 z m 600 776 b 608 834 602 804 601 807 b 658 827 615 862 659 856 b 649 735 654 797 650 766 b 653 709 649 727 648 716 b 672 718 659 702 669 713 b 685 751 678 727 682 740 b 698 849 697 782 698 816 b 721 872 699 862 708 872 b 744 849 734 872 743 862 b 746 776 746 825 746 801 b 816 873 756 810 769 878 b 840 796 847 862 840 822 b 836 738 840 777 836 758 b 848 710 836 728 837 714 b 885 726 861 706 876 718 b 916 875 919 766 932 825 b 837 916 908 898 864 945 b 806 898 822 901 816 873 b 809 934 803 907 802 918 b 930 917 837 979 905 952 b 855 672 989 839 953 700 b 793 827 763 651 786 772 b 790 836 793 829 794 842 b 768 781 779 821 774 799 b 752 716 762 760 757 738 b 726 676 748 701 745 679 b 697 702 710 674 698 687 b 697 719 697 707 697 714 b 633 676 687 691 667 662 b 600 776 595 692 598 742 z m 419 1061 b 565 1003 473 1090 539 1053 b 587 773 601 934 592 848 b 511 674 585 729 569 659 b 475 717 491 680 481 698 b 397 693 465 673 427 653 b 380 767 383 714 381 743 b 378 849 378 794 378 822 b 404 876 378 864 390 875 b 431 849 419 876 431 863 b 430 783 431 826 430 806 b 446 716 432 765 425 715 b 462 745 455 718 461 736 b 475 828 467 762 468 808 b 515 825 483 846 515 843 b 516 746 515 802 516 762 b 555 732 517 709 546 690 b 509 1018 564 817 580 956 b 411 991 474 1049 421 1034 b 386 1013 409 980 384 987 b 419 1061 389 1038 405 1053 z m 156 907 b 369 967 196 968 303 966 b 488 939 405 968 461 968 b 493 924 491 935 494 930 b 455 913 490 909 466 913 b 350 917 420 915 385 918 b 344 781 347 872 344 826 b 359 609 341 723 343 665 b 336 599 361 595 343 597 b 290 765 276 616 291 717 b 296 914 290 815 292 865 b 293 914 295 914 294 914 b 184 890 277 913 176 914 b 227 886 191 881 217 886 b 227 858 245 888 245 860 b 171 864 208 857 187 854 b 156 907 156 873 149 891 z m 146 250 l 126 250 l 126 197 l 111 197 l 111 250 l 91 250 l 91 262 l 146 262 z m 213 197 l 198 197 l 198 224 l 170 224 l 170 197 l 154 197 l 154 262 l 170 262 l 170 237 l 198 237 l 198 262 l 213 262 z m 242 197 l 226 197 l 226 262 l 242 262 z m 273 196 b 253 200 265 196 257 198 l 256 213 b 285 215 261 209 285 204 b 273 224 285 219 282 221 b 254 244 262 227 254 233 b 298 260 253 263 284 267 l 295 248 b 279 251 292 249 287 251 b 282 236 265 250 265 240 b 273 196 311 229 306 195 z m 376 250 l 348 250 l 348 235 l 374 235 l 374 223 l 348 223 l 348 197 l 333 197 l 333 262 l 376 262 z m 419 196 b 420 263 372 195 375 264 b 419 196 467 264 465 195 z m 524 197 l 507 197 b 479 246 498 211 485 231 l 478 246 b 479 197 479 232 479 212 l 465 197 l 465 262 l 484 262 b 510 215 492 249 505 230 l 510 215 b 509 262 509 230 509 248 l 524 262 z m 567 250 l 567 197 l 552 197 l 552 250 l 532 250 l 532 262 l 587 262 l 587 250 z m 631 197 l 616 197 l 616 262 l 631 262 z m 663 196 b 642 200 654 196 646 198 l 646 213 b 675 215 651 209 674 204 b 663 224 675 219 671 221 b 643 244 651 227 643 233 b 688 260 642 263 673 267 l 684 248 b 669 251 681 249 676 251 b 672 236 655 250 655 240 b 663 196 700 229 696 195 z m 774 205 b 722 197 765 196 735 195 l 722 261 b 774 255 737 264 764 264 b 774 205 790 247 788 214 z m 796 197 l 796 262 l 840 262 l 840 250 l 811 250 l 811 237 l 838 237 l 838 224 l 811 224 l 811 210 l 841 210 l 841 197 z m 913 197 b 912 251 912 214 911 233 l 911 251 b 894 198 907 236 899 214 l 882 198 l 874 224 b 868 251 872 232 870 242 l 868 251 b 865 197 867 235 866 213 l 851 197 l 855 262 l 876 262 l 883 241 b 889 218 885 234 887 225 l 889 218 b 904 262 893 231 899 249 l 925 262 l 928 197 l 913 197 z m 913 328 b 759 338 863 361 799 341 b 224 310 581 323 403 294 b 227 345 202 312 204 347 b 759 361 404 320 582 342 b 929 337 786 364 932 397 b 913 328 929 325 922 322 z m 933 664 b 796 600 923 596 840 599 b 611 609 735 601 669 608 b 608 481 614 567 608 524 b 614 431 607 466 606 442 b 647 452 625 416 642 444 b 708 580 670 493 663 554 b 756 561 726 589 748 581 b 712 478 769 529 740 493 b 711 461 710 477 710 467 b 727 426 711 450 714 431 b 782 506 757 419 780 478 b 774 560 782 524 779 543 b 775 579 773 566 769 574 b 827 561 791 591 819 576 b 834 534 831 552 833 543 b 863 577 840 550 847 568 b 912 566 879 585 900 579 b 876 471 942 537 933 437 b 867 491 871 474 863 487 b 885 508 874 496 881 501 b 885 536 889 517 888 528 b 852 527 874 567 857 548 b 828 410 838 488 831 450 b 818 390 828 403 825 392 b 791 407 808 387 796 400 b 780 444 784 418 781 431 b 715 392 768 419 746 391 b 665 446 687 394 668 420 b 563 454 644 374 570 377 b 539 408 558 438 550 420 b 459 448 504 375 462 406 b 391 392 447 422 424 391 b 347 425 372 393 353 407 b 340 418 345 422 343 420 b 212 428 296 380 234 377 b 211 620 190 488 210 558 b 202 685 212 642 208 664 b 204 697 200 690 200 694 b 256 679 220 709 248 695 b 261 593 268 654 262 620 b 255 464 259 550 254 507 b 268 426 255 452 252 431 b 316 442 284 422 304 430 b 356 551 343 472 339 516 b 432 562 370 582 415 600 b 388 478 445 529 416 493 b 387 461 386 477 387 467 b 403 426 387 450 390 431 b 441 454 420 421 434 441 b 456 522 453 474 455 499 b 458 613 456 529 459 613 b 398 612 438 613 418 613 b 398 631 386 612 386 630 b 457 634 418 632 437 633 b 456 648 457 639 457 644 b 497 654 454 673 491 676 b 502 636 499 648 501 642 b 562 635 521 636 544 636 b 561 648 562 640 562 644 b 603 654 559 673 596 676 b 607 637 604 648 606 642 b 779 640 649 638 758 640 b 919 668 837 639 878 649 b 933 664 926 672 935 676 z m 972 208 b 972 251 996 207 997 252 b 972 208 948 252 948 207 z m 420 251 b 420 208 395 252 395 207 b 420 251 444 207 444 252 z m 746 251 b 737 250 742 251 739 251 l 737 208 b 769 231 754 206 770 213 b 746 251 769 244 760 251 z "},"8":{"ha":1131,"x_min":0,"x_max":0,"o":"m 161 26 b 158 10 160 21 159 15 l 158 10 b 149 45 156 20 152 35 l 137 45 b 128 10 134 35 130 20 l 128 10 b 120 45 126 20 123 35 l 105 45 l 119 -3 l 134 -3 b 142 29 137 7 141 18 l 142 29 b 150 -3 144 19 148 7 l 165 -3 l 180 45 l 165 45 z m 241 26 b 238 10 239 21 238 15 l 237 10 b 229 45 235 20 231 35 l 216 45 b 207 10 214 35 209 20 l 207 10 b 200 45 206 20 202 35 l 184 45 l 199 -3 l 214 -3 b 222 29 216 7 220 18 l 222 29 b 230 -3 224 19 227 7 l 245 -3 l 260 45 l 245 45 z m 320 26 b 317 10 319 21 318 15 l 317 10 b 308 45 315 20 311 35 l 296 45 b 287 10 293 35 289 20 l 287 10 b 279 45 285 20 282 35 l 264 45 l 278 -3 l 293 -3 b 301 29 296 7 300 18 l 302 29 b 310 -3 303 19 307 7 l 324 -3 l 339 45 l 324 45 z m 350 14 b 350 -4 338 15 338 -4 b 359 5 355 -4 359 0 b 350 14 359 11 355 14 z m 385 58 l 370 54 l 370 45 l 364 45 l 364 33 l 370 33 b 374 1 370 25 368 6 b 396 -2 378 -4 391 -4 l 396 9 b 385 18 390 8 384 9 l 385 33 l 396 33 l 396 45 l 385 45 z m 457 26 b 454 10 456 21 455 15 l 454 10 b 445 45 452 20 447 35 l 433 45 b 424 10 430 35 426 20 l 423 10 b 416 45 422 20 418 35 l 401 45 l 415 -3 l 430 -3 b 438 29 433 7 437 18 l 438 29 b 446 -3 440 19 444 7 l 461 -3 l 476 45 l 461 45 z m 492 66 b 491 51 481 66 481 50 b 500 58 497 51 500 54 b 492 66 500 62 497 66 z m 499 -3 l 499 45 l 484 45 l 484 -3 z m 542 46 b 526 38 533 46 528 41 l 526 38 l 525 45 l 512 45 b 512 -3 512 36 512 7 l 527 -3 b 528 28 527 0 527 27 b 545 22 531 37 546 35 l 545 -3 l 560 -3 l 560 25 b 542 46 560 40 551 46 z m 588 -3 l 588 67 l 573 67 l 573 -3 z m 623 46 b 598 21 605 46 598 31 b 643 0 596 -2 625 -8 l 641 10 b 612 16 633 7 614 5 l 645 16 b 623 46 648 29 642 46 z m 612 27 b 631 27 613 39 631 39 z m 672 58 l 657 54 l 657 45 l 650 45 l 650 33 l 657 33 b 661 1 657 25 655 6 b 683 -2 665 -4 678 -4 l 683 9 b 672 18 677 8 671 9 l 672 33 l 683 33 l 683 45 l 672 45 z m 709 58 l 694 54 l 694 45 l 688 45 l 688 33 l 694 33 b 698 1 695 25 692 6 b 720 -2 702 -4 715 -4 l 720 9 b 709 18 714 8 708 9 l 709 33 l 720 33 l 720 45 l 709 45 z m 751 46 b 726 21 733 46 726 31 b 771 0 725 -2 753 -8 l 769 10 b 741 16 761 7 742 5 l 774 16 b 751 46 776 29 771 46 z m 740 27 b 760 27 742 39 760 39 z m 797 35 l 797 35 l 796 45 l 783 45 b 783 -3 784 37 783 7 l 799 -3 b 799 24 799 -1 799 24 b 814 31 800 30 808 33 l 814 46 b 797 35 808 47 800 44 z m 823 14 b 823 -4 812 15 811 -4 b 832 5 829 -4 833 0 b 823 14 832 11 829 14 z m 869 8 b 855 21 861 8 855 13 b 878 33 854 33 869 37 l 880 44 b 880 -1 824 59 826 -19 l 878 10 b 869 8 876 9 873 8 z m 913 46 b 912 -4 876 47 877 -5 b 913 46 946 -5 949 46 z m 912 7 b 912 35 898 6 897 35 b 912 7 927 35 925 6 z m 1007 46 b 991 37 1000 46 995 43 l 991 37 b 962 38 986 50 966 47 l 962 38 l 961 45 l 948 45 b 948 -3 949 36 948 7 l 963 -3 l 963 24 b 971 34 963 29 965 33 b 979 23 976 34 979 30 l 979 -3 l 994 -3 b 995 28 994 0 993 26 b 1010 22 998 37 1011 34 l 1010 -3 l 1025 -3 l 1025 25 b 1007 46 1025 40 1017 46 z m 286 102 l 286 107 l 267 107 l 267 102 z m 328 116 b 336 115 331 116 334 116 l 337 120 b 337 85 298 134 298 69 l 336 90 b 314 102 327 85 314 89 b 328 116 314 110 319 116 z m 379 103 b 342 102 379 128 341 128 b 379 103 341 77 379 75 z m 360 88 b 360 117 346 87 344 117 b 360 88 377 116 374 87 z m 411 106 l 411 83 l 418 83 l 418 107 b 426 116 418 112 421 116 b 434 105 432 116 434 112 l 434 83 l 441 83 l 441 106 b 416 114 441 126 423 126 l 416 114 b 394 115 413 125 397 123 l 393 115 l 393 121 l 387 121 b 387 83 388 115 387 91 l 394 83 b 395 110 394 86 393 108 b 411 106 398 120 412 118 z m 472 122 b 459 115 466 122 461 119 l 458 115 l 458 121 l 452 121 b 452 68 452 113 452 77 l 459 68 l 459 89 l 459 89 b 488 103 469 76 489 84 b 472 122 488 114 481 122 z m 470 88 b 459 96 465 88 461 91 b 459 105 459 98 459 103 b 470 117 459 111 464 117 b 470 88 485 117 484 87 z m 503 83 l 503 139 l 496 139 l 496 83 z m 512 93 b 535 88 511 81 529 79 l 535 88 l 536 83 l 542 83 b 541 107 541 89 541 101 b 515 119 542 121 527 126 l 516 114 b 535 107 524 119 536 118 b 512 93 520 107 512 103 z m 535 103 b 525 88 535 96 535 88 b 519 94 522 88 519 90 b 535 103 519 101 527 103 z m 560 130 l 554 128 l 554 121 l 548 121 l 548 116 l 554 116 b 556 86 554 110 552 90 b 570 84 559 82 566 82 l 569 89 b 560 96 565 87 560 89 l 560 116 l 570 116 l 570 121 l 560 121 l 560 130 z m 604 90 b 581 101 596 86 581 87 l 608 101 b 592 122 609 109 606 122 b 575 102 581 122 575 113 b 606 85 574 84 593 79 z m 592 117 b 601 106 599 117 601 110 l 581 106 b 592 117 582 111 585 117 z m 641 88 b 632 90 637 88 634 89 l 630 85 b 655 94 638 80 656 83 b 645 105 655 100 651 103 b 644 117 636 107 635 116 b 652 115 648 117 650 116 l 653 120 b 631 111 646 125 631 121 b 641 100 631 106 634 103 b 641 88 651 98 651 88 z m 694 104 b 679 122 694 111 691 122 b 661 102 668 122 661 113 b 692 85 660 84 679 79 l 691 90 b 667 101 682 86 667 87 l 694 101 b 694 104 694 102 694 103 z m 667 106 b 687 106 669 121 688 121 z m 711 130 l 704 128 l 704 121 l 698 121 l 698 116 l 704 116 b 707 86 705 110 702 90 b 720 84 709 82 717 82 l 720 89 b 711 96 715 87 710 89 l 711 116 l 721 116 l 721 121 l 711 121 z m 761 122 b 760 83 737 123 736 82 b 761 122 783 81 787 122 z m 760 88 b 761 117 746 87 745 117 b 760 88 777 116 774 87 z m 820 83 l 820 106 b 794 115 820 126 800 125 l 794 115 l 793 121 l 787 121 b 788 83 788 114 787 91 l 794 83 b 795 109 795 86 794 108 b 813 105 799 120 814 118 l 813 83 z m 863 102 l 863 107 l 844 107 l 844 102 z m 746 518 b 750 542 749 525 752 534 b 740 553 749 547 745 556 b 727 494 729 539 729 512 b 746 518 736 500 742 508 z m 549 608 b 520 608 541 608 529 607 b 518 478 524 565 519 521 b 524 428 517 462 516 439 b 557 449 536 412 552 441 b 572 500 565 465 569 483 b 578 565 576 522 577 543 b 578 608 578 568 580 607 b 549 608 569 608 558 607 z m 422 518 b 426 542 425 525 428 534 b 416 553 425 547 421 556 b 404 494 405 539 405 512 b 422 518 412 500 419 508 z m 1101 667 b 565 1203 1101 963 861 1203 b 178 296 94 1205 -146 630 l 86 296 l 86 164 l 1045 164 l 1045 296 l 952 296 b 1101 667 1044 392 1101 523 z m 988 260 b 987 193 1035 261 1032 191 b 988 260 940 192 943 261 z m 627 899 b 679 888 634 938 686 929 b 679 887 679 888 679 887 b 632 867 681 859 650 843 b 627 899 626 877 626 889 z m 615 773 b 623 831 618 801 616 803 b 673 824 630 859 674 853 b 665 732 670 793 665 763 b 669 706 664 724 663 713 b 687 714 674 699 684 710 b 700 747 693 724 697 736 b 713 846 712 779 713 813 b 736 869 714 858 723 869 b 759 846 749 869 758 858 b 762 773 761 822 761 797 b 831 869 772 807 785 875 b 855 793 862 858 856 819 b 851 735 855 773 851 754 b 863 707 851 725 852 711 b 900 723 876 703 892 715 b 932 872 935 763 947 822 b 852 913 923 895 879 942 b 821 895 838 898 831 869 b 825 931 818 903 817 915 b 946 914 852 976 921 949 b 871 669 1004 836 968 696 b 808 824 778 647 801 769 b 805 833 808 826 810 839 b 783 778 794 817 789 796 b 767 713 777 757 772 735 b 741 673 763 698 761 675 b 713 699 725 670 714 684 b 712 716 712 704 712 711 b 649 673 702 687 683 659 b 615 773 610 689 613 739 z m 434 1058 b 580 1000 488 1087 555 1049 b 602 770 616 931 607 844 b 526 670 600 726 585 656 b 491 713 506 676 496 695 b 413 690 480 670 443 649 b 395 764 398 711 397 739 b 393 846 393 791 393 819 b 420 872 394 861 405 872 b 446 846 434 873 446 860 b 445 780 446 823 446 803 b 461 713 447 761 441 712 b 478 742 471 714 476 733 b 491 825 482 759 484 805 b 530 822 498 842 530 840 b 532 743 530 799 531 758 b 570 729 532 706 561 687 b 524 1014 579 814 595 953 b 427 988 489 1045 437 1030 b 402 1009 424 977 399 984 b 434 1058 404 1035 420 1050 z m 172 904 b 384 964 212 964 319 962 b 503 936 421 965 476 965 b 508 921 507 932 509 927 b 470 910 506 905 481 909 b 365 913 435 912 400 915 b 359 778 362 868 360 823 b 374 605 356 720 359 662 b 351 596 377 592 359 594 b 305 762 291 613 307 714 b 311 911 306 812 308 861 b 308 911 310 911 309 911 b 200 887 292 909 192 910 b 242 883 206 877 233 883 b 242 855 260 884 260 856 b 186 861 224 853 202 851 b 172 904 171 870 165 888 z m 161 246 l 142 246 l 142 194 l 126 194 l 126 246 l 107 246 l 107 259 l 161 259 z m 228 194 l 213 194 l 213 221 l 185 221 l 185 194 l 170 194 l 170 259 l 185 259 l 185 234 l 213 234 l 213 259 l 228 259 z m 257 194 l 242 194 l 242 259 l 257 259 z m 288 193 b 268 197 280 193 272 195 l 271 210 b 300 212 277 206 300 201 b 289 221 300 216 297 218 b 269 240 277 224 269 230 b 314 256 268 260 299 264 l 310 244 b 295 248 307 246 302 248 b 298 233 281 247 281 237 b 288 193 326 225 322 192 z m 363 246 l 363 232 l 390 232 l 390 220 l 363 220 l 363 194 l 348 194 l 348 259 l 392 259 l 392 246 z m 434 193 b 435 260 388 192 390 261 b 434 193 482 261 480 191 z m 539 194 l 522 194 b 494 243 514 208 501 228 l 494 243 b 494 194 495 228 494 209 l 480 194 l 480 259 l 499 259 b 525 212 507 246 520 227 l 526 212 b 525 259 524 227 525 244 l 539 259 z m 582 246 l 582 194 l 567 194 l 567 246 l 547 246 l 547 259 l 602 259 l 602 246 z m 646 194 l 631 194 l 631 259 l 646 259 z m 678 193 b 658 197 670 193 662 195 l 661 210 b 690 212 666 206 689 201 b 678 221 690 216 687 218 b 658 240 667 224 658 230 b 703 256 657 260 688 264 l 699 244 b 684 248 697 246 691 248 b 687 233 670 247 670 237 b 678 193 716 225 711 192 z m 790 202 b 737 194 780 192 751 192 l 737 258 b 789 252 752 260 779 261 b 790 202 805 243 804 211 z m 811 194 l 811 259 l 855 259 l 855 246 l 827 246 l 827 233 l 854 233 l 854 221 l 827 221 l 827 206 l 857 206 l 857 194 z m 928 194 b 927 248 928 211 927 230 l 926 248 b 909 195 922 232 915 210 l 897 195 l 890 221 b 883 248 887 229 885 239 l 883 248 b 881 194 882 231 882 210 l 866 194 l 870 259 l 892 259 l 898 238 b 904 214 901 230 903 222 l 905 214 b 919 259 908 228 914 246 l 940 259 l 944 194 l 928 194 z m 929 325 b 774 334 878 358 814 338 b 239 307 596 319 418 291 b 242 342 217 309 219 344 b 774 358 419 316 598 339 b 945 334 801 361 948 393 b 929 325 944 321 938 319 z m 948 661 b 812 597 938 593 856 595 b 626 606 750 597 684 605 b 623 478 629 564 623 521 b 629 428 622 462 621 439 b 662 449 641 412 658 441 b 723 576 685 489 679 551 b 771 558 741 585 763 578 b 727 475 784 526 755 490 b 726 458 725 474 726 463 b 742 423 726 446 729 427 b 797 503 772 415 795 475 b 790 557 797 521 795 539 b 790 575 788 563 784 571 b 842 558 806 588 834 573 b 849 531 846 549 848 540 b 878 573 855 547 862 565 b 927 563 894 582 915 576 b 891 468 957 534 948 434 b 883 488 887 471 878 484 b 900 505 889 492 897 497 b 900 533 904 514 903 524 b 867 524 889 564 872 545 b 843 406 853 485 847 447 b 833 386 843 400 840 388 b 807 404 823 384 812 397 b 796 440 799 414 796 427 b 730 389 783 415 761 388 b 680 443 702 390 683 416 b 578 451 659 370 585 374 b 554 405 573 435 565 417 b 474 445 519 371 477 402 b 407 389 462 419 439 388 b 363 422 387 390 369 404 b 355 414 360 419 358 416 b 227 425 311 376 249 373 b 226 617 205 485 225 555 b 217 682 227 639 223 661 b 219 694 216 686 215 690 b 271 676 236 706 264 691 b 276 590 283 651 277 616 b 270 461 274 547 270 504 b 283 423 270 449 268 427 b 331 439 300 419 320 427 b 372 547 358 468 354 513 b 447 558 385 579 430 597 b 404 475 460 526 431 490 b 402 458 402 474 402 463 b 419 423 402 446 405 427 b 457 450 436 417 449 438 b 471 519 468 471 470 496 b 473 610 471 526 474 610 b 413 609 453 609 433 609 b 413 628 401 609 401 627 b 472 631 433 629 453 630 b 471 645 472 636 472 640 b 513 651 469 669 506 672 b 517 633 514 645 516 639 b 578 632 536 633 559 633 b 576 645 577 636 577 641 b 618 650 574 669 612 672 b 622 633 620 645 621 639 b 795 636 664 635 773 637 b 934 665 853 636 893 646 b 948 661 942 669 950 673 z m 987 205 b 987 248 1012 203 1012 249 b 987 205 963 249 963 204 z m 435 248 b 435 205 411 249 411 204 b 435 248 459 203 460 249 z m 761 248 b 753 247 757 248 754 247 l 753 205 b 785 227 769 203 785 210 b 761 248 785 241 775 248 z "},"9":{"ha":1111,"x_min":0,"x_max":0,"o":"m 143 35 b 140 18 142 29 141 24 l 140 18 b 131 53 138 28 134 43 l 119 53 b 110 18 116 43 112 29 l 110 18 b 102 53 108 29 105 43 l 87 53 l 101 6 l 116 6 b 124 37 119 15 123 27 l 124 37 b 132 6 126 27 130 15 l 147 6 l 162 53 l 147 53 z m 223 35 b 219 18 221 29 220 24 l 219 18 b 210 53 217 28 213 43 l 198 53 b 189 18 196 43 191 29 l 189 18 b 182 53 187 29 184 43 l 166 53 l 181 6 l 196 6 b 204 37 198 15 202 27 l 204 37 b 212 6 205 27 209 15 l 227 6 l 242 53 l 227 53 z m 302 35 b 299 18 301 29 300 24 l 299 18 b 290 53 297 28 293 43 l 278 53 b 269 18 275 43 271 29 l 269 18 b 261 53 267 29 264 43 l 246 53 l 260 6 l 275 6 b 283 37 278 15 282 27 l 283 37 b 291 6 285 27 289 15 l 306 6 l 321 53 l 306 53 z m 332 23 b 332 5 320 23 320 4 b 341 14 337 5 341 9 b 332 23 341 19 337 23 z m 367 66 l 352 62 l 352 53 l 346 53 l 346 42 l 352 42 b 356 9 352 33 350 15 b 378 6 360 4 373 4 l 378 18 b 367 26 372 16 366 17 l 367 42 l 378 42 l 378 53 l 367 53 z m 439 35 b 436 18 438 29 437 24 l 436 18 b 427 53 434 28 429 43 l 415 53 b 406 18 412 43 408 29 l 405 18 b 398 53 404 29 400 43 l 383 53 l 397 6 l 412 6 b 420 37 415 15 419 27 l 420 37 b 428 6 422 27 426 15 l 443 6 l 458 53 l 443 53 z m 473 74 b 473 59 463 74 463 59 b 482 66 479 59 482 62 b 473 74 482 71 479 74 z m 481 6 l 481 53 l 466 53 l 466 6 z m 523 54 b 508 46 515 54 510 49 l 507 46 l 507 53 l 493 53 b 494 6 494 44 494 16 l 509 6 b 510 36 509 8 509 35 b 526 31 513 46 528 44 l 526 6 l 542 6 l 542 33 b 523 54 542 48 533 54 z m 570 6 l 570 75 l 554 75 l 554 6 z m 605 54 b 579 29 587 54 579 40 b 625 8 578 6 607 0 l 623 18 b 594 25 615 15 596 14 l 627 25 b 605 54 629 37 624 54 z m 594 35 b 613 35 595 47 613 47 z m 654 66 l 639 62 l 639 53 l 632 53 l 632 42 l 639 42 b 643 9 639 33 637 15 b 665 6 647 4 660 4 l 665 18 b 654 26 659 16 653 17 l 654 42 l 665 42 l 665 53 l 654 53 z m 691 66 l 676 62 l 676 53 l 670 53 l 670 42 l 676 42 b 680 9 677 33 674 15 b 702 6 684 4 697 4 l 702 18 b 691 26 696 16 690 17 l 691 42 l 702 42 l 702 53 l 691 53 z m 733 54 b 708 29 715 54 708 40 b 753 8 707 6 735 0 l 751 18 b 723 25 743 15 724 14 l 756 25 b 733 54 758 37 753 54 z m 722 35 b 742 35 724 47 742 47 z m 779 44 l 779 44 l 778 53 l 765 53 b 765 6 766 45 765 16 l 781 6 b 781 33 781 7 781 32 b 796 40 782 39 790 42 l 796 54 b 779 44 790 55 782 53 z m 805 23 b 805 5 794 23 793 4 b 814 14 811 5 814 9 b 805 23 814 19 811 23 z m 851 17 b 837 30 843 17 837 21 b 860 41 836 42 851 45 l 862 52 b 862 7 806 67 808 -11 l 860 18 b 851 17 858 17 855 17 z m 895 54 b 894 5 858 55 858 4 b 895 54 928 3 931 54 z m 894 16 b 894 43 880 15 879 44 b 894 16 909 44 907 14 z m 989 54 b 973 46 982 54 977 51 l 973 46 b 944 46 968 58 948 55 l 943 46 l 943 53 l 930 53 b 930 6 931 44 930 16 l 945 6 l 945 33 b 953 42 945 37 947 42 b 961 31 958 42 961 38 l 961 6 l 976 6 b 976 37 976 8 975 35 b 992 31 980 46 993 43 l 992 6 l 1007 6 l 1007 33 b 989 54 1007 48 999 54 z m 268 110 l 268 115 l 248 115 l 248 110 z m 310 125 b 318 123 313 125 316 124 l 319 128 b 319 93 280 142 280 78 l 318 98 b 296 111 309 94 296 98 b 310 125 296 118 301 125 z m 361 111 b 324 110 361 137 323 137 b 361 111 323 85 361 84 z m 342 96 b 342 125 328 96 326 125 b 342 96 358 125 356 96 z m 393 114 l 393 92 l 400 92 l 400 115 b 408 125 400 120 403 125 b 416 113 414 125 416 120 l 416 92 l 423 92 l 423 114 b 398 123 423 134 405 134 l 398 123 b 376 123 395 133 379 132 l 375 123 l 375 130 l 369 130 b 369 92 370 123 369 99 l 376 92 b 377 118 376 94 375 116 b 393 114 380 128 394 127 z m 454 130 b 440 123 448 130 443 128 l 440 123 l 440 130 l 434 130 b 434 76 434 122 434 85 l 441 76 l 441 97 l 441 97 b 470 111 451 84 471 92 b 454 130 470 123 463 130 z m 452 96 b 441 104 447 96 442 100 b 441 114 441 106 441 112 b 452 125 441 120 446 125 b 452 96 467 125 466 95 z m 485 92 l 485 147 l 478 147 l 478 92 z m 494 102 b 517 97 493 90 511 88 l 517 97 l 518 92 l 524 92 b 523 115 523 97 523 109 b 497 127 524 130 509 134 l 498 123 b 516 116 506 128 518 126 b 494 102 502 116 494 111 z m 517 111 b 507 96 517 104 517 96 b 501 103 504 96 501 98 b 517 111 501 110 509 111 z m 542 139 l 536 136 l 536 130 l 530 130 l 530 124 l 536 124 b 538 94 536 118 534 98 b 552 92 541 90 548 90 l 551 97 b 542 104 547 96 542 97 l 542 124 l 552 124 l 552 130 l 542 130 l 542 139 z m 586 98 b 563 109 578 95 563 95 l 590 109 b 574 130 591 118 588 130 b 557 110 563 130 557 121 b 588 93 556 92 575 87 z m 574 125 b 583 114 581 125 583 119 l 563 114 b 574 125 564 119 567 125 z m 623 96 b 614 99 619 96 616 98 l 612 94 b 637 102 620 88 638 91 b 627 114 637 108 633 111 b 626 125 618 116 617 125 b 634 123 630 125 632 124 l 635 128 b 613 119 628 133 612 130 b 623 109 613 115 616 111 b 623 96 633 106 633 96 z m 676 113 b 660 130 676 120 673 130 b 643 110 650 130 643 121 b 674 93 642 92 661 87 l 673 98 b 649 109 664 95 649 95 l 676 109 b 676 113 676 110 676 111 z m 649 114 b 669 114 651 129 670 129 z m 693 139 l 686 136 l 686 130 l 680 130 l 680 124 l 686 124 b 689 94 687 118 684 98 b 702 92 691 90 699 90 l 702 97 b 693 104 697 96 692 97 l 693 124 l 703 124 l 703 130 l 693 130 z m 743 130 b 742 91 719 131 718 91 b 743 130 765 90 769 130 z m 742 96 b 743 125 728 96 726 125 b 742 96 759 125 756 96 z m 802 92 l 802 114 b 776 123 802 134 782 134 l 776 123 l 775 130 l 769 130 b 769 92 770 123 769 99 l 776 92 b 777 118 776 94 776 116 b 795 114 781 129 796 126 l 795 92 z m 845 110 l 845 115 l 826 115 l 826 110 z m 728 526 b 732 551 731 534 734 543 b 722 562 731 556 727 565 b 709 502 711 547 711 520 b 728 526 717 508 724 516 z m 531 616 b 502 616 523 616 511 615 b 500 486 506 573 501 529 b 506 436 499 471 498 447 b 539 458 518 421 534 449 b 554 509 547 473 550 492 b 560 573 558 530 559 552 b 560 616 560 576 562 616 b 531 616 551 616 540 616 z m 404 526 b 408 551 407 534 410 543 b 398 562 407 556 403 565 b 385 502 387 547 387 520 b 404 526 394 508 400 516 z m 1083 675 b 547 1211 1083 971 843 1211 b 160 305 76 1213 -164 638 l 68 305 l 68 172 l 1027 172 l 1027 305 l 934 305 b 1083 675 1026 401 1083 532 z m 970 268 b 969 201 1017 269 1014 200 b 970 268 922 201 925 269 z m 609 908 b 661 896 616 946 668 937 b 661 896 661 896 661 896 b 614 876 662 867 632 852 b 609 908 608 885 608 897 z m 597 781 b 605 839 600 810 598 812 b 655 832 612 867 656 861 b 647 740 652 802 647 771 b 651 714 646 732 645 721 b 669 723 656 707 666 718 b 682 756 675 733 679 745 b 695 854 694 788 695 821 b 718 877 696 867 705 877 b 741 854 731 877 740 867 b 744 781 743 830 743 806 b 813 878 754 815 766 883 b 837 801 844 867 838 827 b 833 743 837 782 833 763 b 845 715 833 734 834 719 b 882 731 858 711 874 723 b 914 880 916 772 929 830 b 834 922 905 903 861 950 b 803 903 819 906 813 878 b 807 939 800 912 799 924 b 928 922 834 985 902 957 b 853 677 986 844 950 705 b 790 832 760 656 783 777 b 787 841 790 834 792 847 b 765 786 776 826 771 804 b 749 722 759 765 754 743 b 723 681 745 706 743 684 b 694 707 707 679 696 692 b 694 724 694 712 694 719 b 631 681 684 696 665 667 b 597 781 592 697 595 747 z m 416 1066 b 562 1008 470 1096 537 1058 b 584 778 598 939 589 853 b 508 679 582 735 567 664 b 472 722 488 685 478 703 b 395 698 462 678 425 658 b 377 772 380 719 379 748 b 375 854 375 799 375 827 b 402 881 376 869 387 880 b 428 854 416 881 428 868 b 427 788 428 831 428 811 b 443 721 429 770 423 720 b 460 750 453 723 458 742 b 472 833 464 767 466 814 b 512 830 480 851 512 849 b 514 751 512 807 513 767 b 552 737 514 714 543 695 b 506 1023 561 822 577 961 b 409 996 471 1054 419 1039 b 384 1018 406 985 381 992 b 416 1066 386 1044 402 1058 z m 154 912 b 366 973 194 973 301 971 b 485 944 402 973 458 973 b 490 929 489 940 491 935 b 452 918 488 914 463 918 b 347 922 417 920 382 923 b 341 786 344 877 342 831 b 356 614 338 728 341 670 b 333 604 359 600 341 602 b 287 771 273 622 289 722 b 293 919 288 820 290 870 b 290 919 292 919 291 919 b 182 895 274 918 174 919 b 224 892 188 886 215 891 b 224 863 242 893 242 865 b 168 869 206 862 184 859 b 154 912 153 878 147 896 z m 143 255 l 124 255 l 124 202 l 108 202 l 108 255 l 89 255 l 89 267 l 143 267 z m 210 202 l 195 202 l 195 229 l 167 229 l 167 202 l 151 202 l 151 267 l 167 267 l 167 242 l 195 242 l 195 267 l 210 267 z m 239 202 l 223 202 l 223 267 l 239 267 z m 270 201 b 250 206 262 201 254 203 l 253 218 b 282 220 259 214 282 209 b 271 229 282 224 279 227 b 251 249 259 232 251 238 b 296 265 250 268 281 272 l 292 253 b 276 256 289 254 284 256 b 280 241 263 255 263 245 b 270 201 308 234 304 200 z m 373 255 l 345 255 l 345 241 l 372 241 l 372 228 l 345 228 l 345 202 l 330 202 l 330 267 l 373 267 z m 416 201 b 417 268 370 201 372 269 b 416 201 464 269 462 200 z m 521 202 l 504 202 b 476 252 496 216 483 236 l 476 252 b 476 202 476 237 476 217 l 462 202 l 462 267 l 481 267 b 507 221 489 254 502 235 l 508 221 b 507 267 506 235 507 253 l 521 267 z m 564 255 l 564 202 l 549 202 l 549 255 l 529 255 l 529 267 l 584 267 l 584 255 z m 628 202 l 613 202 l 613 267 l 628 267 z m 660 201 b 639 206 652 201 644 203 l 643 218 b 672 220 648 214 671 209 b 660 229 672 224 669 227 b 640 249 649 232 640 238 b 685 265 639 268 670 272 l 681 253 b 666 256 678 254 673 256 b 669 241 652 255 652 245 b 660 201 698 234 693 200 z m 772 211 b 719 202 762 201 733 200 l 719 266 b 771 260 734 269 761 269 b 772 211 787 252 785 220 z m 793 202 l 793 267 l 837 267 l 837 255 l 809 255 l 809 242 l 835 242 l 835 229 l 809 229 l 809 215 l 839 215 l 839 202 z m 910 202 b 909 256 910 219 909 238 l 908 256 b 891 203 904 241 897 219 l 879 203 l 872 229 b 865 256 869 238 867 247 l 865 256 b 863 202 864 240 863 219 l 848 202 l 852 267 l 874 267 l 880 246 b 886 223 883 239 885 230 l 887 223 b 901 267 890 237 896 254 l 922 267 l 926 202 l 910 202 z m 911 333 b 756 343 860 366 796 346 b 221 315 578 328 400 299 b 224 350 199 317 201 352 b 756 367 401 325 579 347 b 927 342 783 369 930 402 b 911 333 926 330 920 328 z m 930 669 b 794 606 920 602 838 604 b 608 615 732 606 666 613 b 605 486 611 572 605 529 b 611 436 604 471 603 447 b 644 458 623 421 639 449 b 705 585 667 498 660 559 b 753 567 723 594 745 586 b 709 483 766 534 737 498 b 708 466 707 482 708 472 b 724 431 708 455 711 436 b 779 511 754 424 777 483 b 772 566 779 529 776 548 b 772 584 770 572 766 579 b 824 566 788 596 816 582 b 831 539 828 557 830 548 b 860 582 837 555 844 573 b 909 571 876 590 897 585 b 873 476 939 542 930 442 b 865 496 869 480 860 492 b 882 514 871 501 879 506 b 882 541 886 522 885 533 b 849 532 871 572 854 554 b 825 415 835 493 829 456 b 815 395 825 408 822 397 b 789 412 805 392 794 405 b 777 449 781 423 778 436 b 712 397 765 424 743 396 b 662 451 684 399 665 425 b 560 459 641 379 567 382 b 536 413 555 443 547 426 b 456 453 501 380 459 411 b 389 397 444 427 421 396 b 344 430 369 399 351 412 b 337 423 342 427 340 425 b 209 433 293 385 231 382 b 208 626 187 493 207 564 b 199 690 209 647 205 669 b 201 702 198 695 197 699 b 253 684 218 714 246 700 b 258 598 265 659 259 625 b 252 470 256 555 252 513 b 265 432 252 458 250 436 b 313 447 282 427 302 436 b 353 556 340 477 336 521 b 429 567 367 587 412 605 b 385 483 442 534 413 498 b 384 467 384 482 384 472 b 401 431 384 455 387 436 b 438 459 418 426 431 446 b 453 528 450 479 452 504 b 455 618 453 534 456 618 b 395 618 435 618 415 618 b 395 636 383 617 383 635 b 454 639 415 637 435 638 b 453 653 454 644 454 649 b 495 659 451 678 488 681 b 499 641 496 653 498 647 b 559 641 518 642 541 641 b 558 653 559 645 559 649 b 600 659 556 678 593 681 b 604 642 601 653 603 647 b 777 645 646 643 755 645 b 916 674 835 644 875 654 b 930 669 924 677 932 681 z m 969 213 b 969 256 994 212 994 257 b 969 213 945 257 945 212 z m 417 256 b 417 213 393 257 393 212 b 417 256 441 212 441 257 z m 743 256 b 735 255 739 256 736 256 l 735 214 b 767 236 751 211 767 218 b 743 256 767 249 757 256 z "},"\u0000":{"ha":0,"x_min":0,"x_max":0,"o":""},"\n":{"ha":0,"x_min":0,"x_max":0,"o":""},"\r":{"ha":0,"x_min":0,"x_max":0,"o":""}," ":{"ha":278,"x_min":0,"x_max":0,"o":""},"!":{"ha":1136,"x_min":0,"x_max":0,"o":"m 164 -32 b 161 -48 163 -37 161 -43 l 161 -48 b 152 -14 159 -38 154 -24 l 140 -14 b 131 -48 137 -24 132 -38 l 130 -48 b 123 -14 129 -38 125 -24 l 108 -14 l 122 -61 l 137 -61 b 145 -30 140 -51 144 -40 l 145 -30 b 153 -61 147 -40 151 -51 l 168 -61 l 183 -14 l 168 -14 z m 243 -32 b 240 -48 242 -37 241 -43 l 240 -48 b 231 -14 238 -38 234 -24 l 219 -14 b 210 -48 216 -24 212 -38 l 210 -48 b 203 -14 208 -38 205 -24 l 187 -14 l 202 -61 l 216 -61 b 225 -30 219 -51 223 -40 l 225 -30 b 233 -61 226 -40 230 -51 l 248 -61 l 263 -14 l 248 -14 z m 323 -32 b 320 -48 322 -37 321 -43 l 320 -48 b 311 -14 318 -38 313 -24 l 299 -14 b 290 -48 296 -24 292 -38 l 289 -48 b 282 -14 288 -38 284 -24 l 267 -14 l 281 -61 l 296 -61 b 304 -30 299 -51 303 -40 l 304 -30 b 312 -61 306 -40 310 -51 l 327 -61 l 342 -14 l 327 -14 z m 352 -44 b 352 -62 341 -43 340 -62 b 362 -53 358 -62 362 -58 b 352 -44 361 -48 358 -44 z m 388 -1 l 373 -5 l 373 -14 l 366 -14 l 366 -25 l 373 -25 b 377 -58 373 -33 371 -52 b 399 -60 381 -63 394 -63 l 399 -49 b 388 -41 393 -50 387 -49 l 388 -25 l 399 -25 l 399 -14 l 388 -14 l 388 -1 z m 460 -32 b 457 -48 459 -37 457 -43 l 456 -48 b 448 -14 455 -38 450 -24 l 435 -14 b 426 -48 433 -24 428 -38 l 426 -48 b 419 -14 425 -38 421 -24 l 404 -14 l 418 -61 l 433 -61 b 441 -30 436 -51 439 -40 l 441 -30 b 449 -61 443 -40 447 -51 l 464 -61 l 479 -14 l 464 -14 z m 494 7 b 494 -8 484 8 483 -8 b 503 0 499 -8 503 -4 b 494 7 502 4 499 7 z m 502 -61 l 502 -14 l 487 -14 l 487 -61 z m 544 -12 b 529 -20 535 -12 530 -18 l 528 -20 l 528 -14 l 514 -14 b 515 -61 515 -23 515 -51 l 530 -61 b 531 -31 530 -59 530 -32 b 547 -36 534 -21 548 -23 l 547 -61 l 563 -61 l 563 -34 b 544 -12 563 -19 554 -12 z m 591 -61 l 591 8 l 575 8 l 575 -61 z m 626 -12 b 600 -38 608 -12 600 -27 b 646 -59 599 -61 628 -67 l 644 -48 b 615 -42 636 -51 616 -53 l 648 -42 b 626 -12 650 -29 645 -13 z m 615 -32 b 634 -32 616 -19 634 -19 z m 675 -1 l 660 -5 l 660 -14 l 653 -14 l 653 -25 l 660 -25 b 664 -58 660 -33 658 -52 b 686 -60 667 -63 681 -63 l 686 -49 b 675 -41 679 -50 674 -49 l 675 -25 l 686 -25 l 686 -14 l 675 -14 z m 712 -1 l 697 -5 l 697 -14 l 691 -14 l 691 -25 l 697 -25 b 701 -58 697 -33 695 -52 b 723 -60 705 -63 718 -63 l 723 -49 b 712 -41 717 -50 711 -49 l 712 -25 l 723 -25 l 723 -14 l 712 -14 z m 754 -12 b 729 -38 736 -12 729 -27 b 774 -59 727 -61 756 -67 l 772 -48 b 743 -42 764 -51 745 -53 l 776 -42 b 754 -12 779 -29 774 -13 z m 743 -32 b 763 -32 744 -19 763 -19 z m 800 -23 l 799 -23 l 799 -14 l 786 -14 b 786 -61 787 -22 786 -51 l 802 -61 b 802 -34 802 -59 801 -35 b 817 -27 802 -28 811 -25 l 817 -13 b 800 -23 810 -12 803 -14 z m 826 -44 b 826 -62 814 -43 814 -62 b 835 -53 832 -62 835 -58 b 826 -44 835 -48 832 -44 z m 871 -50 b 857 -37 864 -50 857 -46 b 880 -26 856 -25 872 -21 l 883 -14 b 883 -59 827 1 829 -78 l 881 -48 b 871 -50 879 -49 876 -50 z m 915 -12 b 914 -62 878 -12 879 -63 b 915 -12 948 -63 952 -12 z m 915 -51 b 915 -23 901 -52 900 -23 b 915 -51 930 -23 928 -52 z m 1010 -12 b 994 -21 1003 -12 998 -15 l 994 -21 b 965 -20 989 -8 969 -12 l 964 -20 l 964 -14 l 951 -14 b 951 -61 951 -23 951 -51 l 966 -61 l 966 -34 b 974 -25 966 -30 968 -25 b 982 -35 979 -25 982 -29 l 982 -61 l 997 -61 b 997 -30 997 -58 996 -32 b 1013 -36 1001 -21 1014 -24 l 1013 -61 l 1027 -61 l 1027 -34 b 1010 -12 1027 -19 1020 -12 z m 288 44 l 288 49 l 269 49 l 269 44 z m 331 58 b 338 56 334 58 337 57 l 340 62 b 340 27 301 76 301 11 l 339 32 b 317 44 330 27 317 31 b 331 58 317 52 322 58 z m 381 44 b 345 44 382 70 344 70 b 381 44 344 18 382 17 z m 363 29 b 363 59 349 29 347 59 b 363 29 379 58 377 29 z m 414 48 l 414 25 l 420 25 l 420 48 b 429 58 420 53 424 58 b 437 47 435 58 437 54 l 437 25 l 444 25 l 444 47 b 419 56 444 67 426 68 l 419 56 b 396 57 416 67 400 65 l 396 57 l 396 63 l 390 63 b 390 25 390 56 390 32 l 397 25 b 397 51 397 28 396 50 b 414 48 400 61 415 60 z m 475 64 b 461 56 469 64 464 61 l 461 56 l 461 63 l 455 63 b 455 10 455 55 455 19 l 462 10 l 462 30 l 462 30 b 491 45 471 18 491 26 b 475 64 491 56 484 64 z m 472 30 b 462 38 467 30 463 33 b 462 47 462 40 462 45 b 473 58 462 53 467 58 b 472 30 488 59 487 29 z m 506 25 l 506 80 l 499 80 l 499 25 z m 515 35 b 538 30 514 23 532 21 l 538 30 l 538 25 l 545 25 b 544 48 544 30 544 43 b 517 60 545 63 529 68 l 519 56 b 537 49 527 61 538 59 b 515 35 523 49 515 44 z m 537 44 b 528 29 538 38 537 30 b 522 36 524 29 522 31 b 537 44 522 43 530 45 z m 563 72 l 556 70 l 556 63 l 551 63 l 551 58 l 556 58 b 559 27 557 51 554 32 b 572 25 561 24 569 24 l 572 30 b 563 37 567 29 562 30 l 563 58 l 573 58 l 573 63 l 563 63 l 563 72 z m 607 32 b 584 43 599 28 584 28 l 610 43 b 595 64 611 51 609 63 b 577 43 584 64 577 55 b 608 27 576 26 596 21 z m 594 59 b 604 48 602 59 604 52 l 584 48 b 594 59 585 52 588 59 z m 644 29 b 635 32 640 29 637 31 l 633 27 b 658 36 641 22 658 24 b 648 47 658 41 654 45 b 647 59 639 49 638 58 b 655 56 650 59 653 57 l 656 61 b 634 53 649 66 633 63 b 644 42 634 48 637 44 b 644 29 653 40 654 30 z m 697 46 b 681 64 697 53 694 64 b 664 43 670 64 664 55 b 695 27 663 26 682 21 l 694 32 b 670 43 685 28 670 28 l 697 43 b 697 46 697 43 697 45 z m 670 48 b 690 48 671 62 691 63 z m 714 72 l 707 70 l 707 63 l 701 63 l 701 58 l 707 58 b 710 27 708 51 705 32 b 723 25 712 24 720 24 l 723 30 b 714 37 718 29 713 30 l 714 58 l 723 58 l 723 63 l 714 63 l 714 72 z m 764 64 b 763 24 739 65 738 24 b 764 64 786 23 789 63 z m 763 29 b 763 59 749 29 747 59 b 763 29 780 58 777 29 z m 822 25 l 822 48 b 797 57 822 68 803 67 l 796 57 l 796 63 l 790 63 b 790 25 791 56 790 32 l 797 25 b 798 51 797 27 797 50 b 816 47 801 62 817 59 l 816 25 z m 866 44 l 866 49 l 847 49 l 847 44 z m 749 460 b 753 484 752 467 754 476 b 743 495 751 489 747 498 b 730 436 731 481 731 454 b 749 460 738 442 745 450 z m 551 549 b 523 549 544 550 531 549 b 521 420 527 507 521 463 b 527 370 520 404 519 380 b 560 391 538 354 555 382 b 575 442 568 406 571 425 b 581 507 579 463 580 485 b 581 549 581 509 583 549 b 551 549 572 549 561 549 z m 425 460 b 429 484 428 467 431 476 b 419 495 428 489 424 498 b 406 436 408 481 408 454 b 425 460 415 442 421 450 z m 1104 609 b 568 1145 1104 905 864 1145 b 181 238 97 1146 -143 571 l 89 238 l 89 105 l 1048 105 l 1048 238 l 954 238 b 1104 609 1047 334 1104 465 z m 990 202 b 989 134 1038 202 1035 133 b 990 202 943 134 945 203 z m 630 841 b 682 830 636 879 689 870 b 682 829 682 829 682 829 b 635 809 683 800 653 785 b 630 841 629 819 628 830 z m 618 715 b 626 772 620 743 619 745 b 676 766 633 801 677 795 b 667 674 672 735 668 704 b 671 648 667 666 666 654 b 690 656 677 640 687 652 b 703 689 696 666 700 678 b 716 788 715 721 716 754 b 739 811 717 800 726 811 b 762 788 752 811 761 800 b 764 715 764 763 764 739 b 834 811 774 749 787 817 b 858 734 865 800 859 761 b 854 677 858 715 854 696 b 866 649 854 667 855 652 b 903 665 879 645 895 656 b 934 813 937 705 950 764 b 855 855 926 837 882 884 b 824 837 840 839 834 811 b 827 873 821 845 820 857 b 948 856 855 918 923 891 b 874 611 1007 778 971 638 b 811 766 781 589 804 711 b 808 774 811 767 812 780 b 786 719 797 759 792 738 b 770 655 780 698 775 677 b 744 614 766 639 764 617 b 715 640 728 612 716 625 b 715 657 715 645 715 652 b 651 615 705 629 685 601 b 618 715 613 631 616 680 z m 437 999 b 583 942 491 1029 557 991 b 605 711 619 873 610 786 b 529 612 603 668 588 598 b 493 655 509 618 499 636 b 415 632 483 611 445 591 b 398 705 401 652 399 681 b 396 788 396 733 396 760 b 423 814 396 802 408 813 b 449 788 437 815 449 802 b 448 721 449 764 448 745 b 464 654 450 703 443 654 b 481 684 473 656 479 675 b 493 767 485 701 486 747 b 533 763 501 784 533 782 b 534 684 533 741 534 700 b 573 671 535 647 564 629 b 527 956 582 756 598 895 b 429 929 492 987 439 972 b 404 951 427 919 402 925 b 437 999 407 977 423 991 z m 174 845 b 387 906 214 906 322 904 b 506 877 423 906 479 907 b 511 863 509 873 512 868 b 473 852 509 847 484 851 b 368 855 438 854 403 857 b 362 720 365 810 363 765 b 377 547 359 661 362 603 b 354 538 379 534 361 536 b 308 704 294 555 310 656 b 314 853 308 753 310 803 b 311 852 313 852 312 852 b 202 828 295 851 194 852 b 245 825 209 819 235 824 b 245 797 263 826 263 798 b 189 803 226 795 205 792 b 174 845 174 812 167 829 z m 144 188 l 144 136 l 129 136 l 129 188 l 109 188 l 109 201 l 164 201 l 164 188 z m 231 136 l 216 136 l 216 163 l 188 163 l 188 136 l 172 136 l 172 201 l 188 201 l 188 176 l 216 176 l 216 201 l 231 201 z m 260 136 l 244 136 l 244 201 l 260 201 z m 291 134 b 271 139 283 134 275 137 l 274 151 b 303 154 280 148 303 142 b 291 162 303 158 300 160 b 272 182 280 166 272 171 b 316 198 271 202 302 206 l 313 186 b 297 189 310 187 305 189 b 301 174 283 189 283 178 b 291 134 329 167 324 134 z m 366 188 l 366 174 l 392 174 l 392 161 l 366 161 l 366 136 l 351 136 l 351 201 l 394 201 l 394 188 z m 437 134 b 438 202 390 134 393 203 b 437 134 485 202 483 133 z m 542 136 l 525 136 b 497 185 517 150 504 170 l 497 185 b 497 136 497 170 497 151 l 483 136 l 483 201 l 502 201 b 528 154 510 187 523 168 l 529 154 b 527 201 527 168 528 186 l 542 201 z m 605 188 l 585 188 l 585 136 l 570 136 l 570 188 l 550 188 l 550 201 l 605 201 z m 649 136 l 634 136 l 634 201 l 649 201 z m 681 134 b 660 139 673 134 664 137 l 664 151 b 693 154 669 148 692 142 b 681 162 693 158 689 160 b 661 182 669 166 661 171 b 706 198 660 202 691 206 l 702 186 b 687 189 699 187 694 189 b 690 174 673 189 673 178 b 681 134 718 167 714 134 z m 792 144 b 740 136 783 134 754 133 l 740 200 b 792 194 755 202 782 203 b 792 144 808 185 806 153 z m 814 136 l 814 201 l 858 201 l 858 188 l 829 188 l 829 175 l 856 175 l 856 163 l 829 163 l 829 148 l 859 148 l 859 136 z m 931 136 b 930 190 930 153 930 172 l 929 190 b 912 137 925 174 917 152 l 900 137 l 892 162 b 886 190 890 171 888 181 l 886 190 b 883 136 885 173 884 152 l 869 136 l 873 201 l 895 201 l 901 179 b 907 156 903 172 906 164 l 907 156 b 922 201 911 170 917 187 l 943 201 l 946 136 l 931 136 z m 931 267 b 777 276 881 300 817 280 b 242 248 599 261 421 233 b 245 283 220 250 222 286 b 777 300 422 258 600 281 b 947 276 804 303 950 335 b 931 267 947 263 940 261 z m 951 603 b 814 539 941 535 858 537 b 629 548 753 539 687 546 b 626 420 632 505 626 462 b 632 370 625 404 624 380 b 665 391 644 354 660 382 b 726 518 688 431 681 493 b 774 500 744 527 766 519 b 730 416 787 467 758 431 b 729 400 728 415 729 405 b 745 365 729 388 732 369 b 800 444 775 357 798 417 b 792 499 800 463 797 481 b 793 517 791 505 787 513 b 845 499 809 529 837 515 b 852 473 849 491 851 482 b 881 515 858 489 865 506 b 930 505 897 524 918 518 b 894 410 960 476 951 375 b 885 429 889 413 881 426 b 903 447 892 434 899 439 b 903 475 907 456 906 466 b 870 465 892 505 875 487 b 846 348 856 427 849 389 b 836 328 846 342 843 330 b 809 345 826 325 815 338 b 798 382 802 356 799 369 b 733 331 786 357 764 329 b 683 385 705 332 686 358 b 581 392 662 312 588 316 b 557 346 576 377 568 359 b 477 387 522 313 480 344 b 409 331 465 360 442 329 b 365 364 390 332 372 345 b 358 356 363 361 361 358 b 230 367 314 318 252 315 b 229 559 208 427 228 497 b 220 623 230 581 226 603 b 222 635 218 628 218 632 b 274 617 238 647 266 633 b 279 532 286 593 280 558 b 273 403 277 489 273 446 b 286 365 273 391 271 369 b 334 380 302 360 322 369 b 374 489 361 410 357 455 b 450 500 388 521 433 538 b 406 417 463 467 434 432 b 405 400 404 416 405 405 b 421 365 405 388 408 369 b 459 392 438 359 452 380 b 474 461 471 413 473 438 b 476 551 474 468 477 551 b 416 551 456 551 436 551 b 416 569 404 551 404 568 b 475 573 436 571 455 572 b 474 587 475 577 475 582 b 515 592 472 611 509 614 b 520 574 517 586 519 580 b 580 574 539 575 562 574 b 579 587 580 578 580 582 b 621 592 577 611 614 614 b 625 575 622 586 624 581 b 797 578 667 576 776 578 b 937 607 856 577 896 588 b 951 603 944 610 953 614 z m 990 146 b 990 190 1014 145 1015 190 b 990 146 966 191 966 145 z m 438 190 b 438 146 413 191 413 145 b 438 190 462 145 462 190 z m 764 189 b 756 189 760 189 757 189 l 756 147 b 787 169 772 145 788 152 b 764 189 787 183 778 189 z "},"\"":{"ha":1122,"x_min":0,"x_max":0,"o":"m 157 -10 b 154 -26 156 -15 155 -21 l 154 -26 b 145 8 152 -16 147 -2 l 133 8 b 124 -26 130 -2 126 -16 l 123 -26 b 116 8 122 -16 118 -2 l 101 8 l 115 -39 l 130 -39 b 138 -8 133 -29 137 -18 l 138 -8 b 146 -39 140 -18 144 -29 l 161 -39 l 176 8 l 161 8 z m 236 -10 b 233 -26 235 -15 234 -21 l 233 -26 b 224 8 231 -16 227 -2 l 212 8 b 203 -26 210 -2 205 -16 l 203 -26 b 196 8 201 -16 198 -2 l 180 8 l 195 -39 l 210 -39 b 218 -8 212 -29 216 -18 l 218 -8 b 226 -39 219 -18 223 -29 l 241 -39 l 256 8 l 241 8 z m 316 -10 b 313 -26 315 -15 314 -21 l 313 -26 b 304 8 311 -16 306 -2 l 292 8 b 283 -26 289 -2 285 -16 l 282 -26 b 275 8 281 -16 277 -2 l 260 8 l 274 -39 l 289 -39 b 297 -8 292 -29 296 -18 l 297 -8 b 305 -39 299 -18 303 -29 l 320 -39 l 335 8 l 320 8 z m 346 -22 b 345 -40 334 -21 334 -40 b 355 -31 351 -40 355 -36 b 346 -22 354 -26 351 -22 z m 381 21 l 366 17 l 366 8 l 359 8 l 359 -3 l 366 -3 b 370 -36 366 -11 364 -30 b 392 -39 374 -41 387 -41 l 392 -27 b 381 -19 386 -29 380 -27 l 381 -3 l 392 -3 l 392 8 l 381 8 z m 453 -10 b 450 -26 452 -15 450 -21 l 450 -26 b 441 8 448 -16 443 -2 l 429 8 b 420 -26 426 -2 421 -16 l 419 -26 b 412 8 418 -16 414 -2 l 397 8 l 411 -39 l 426 -39 b 434 -8 429 -29 433 -18 l 434 -8 b 442 -39 436 -18 440 -29 l 457 -39 l 472 8 l 457 8 z m 487 29 b 487 14 477 30 477 14 b 496 22 492 14 496 18 b 487 29 495 26 492 29 z m 495 -39 l 495 8 l 480 8 l 480 -39 z m 537 10 b 522 2 528 10 523 4 l 521 2 l 521 8 l 507 8 b 508 -39 508 -1 508 -29 l 523 -39 b 524 -9 523 -37 523 -10 b 540 -14 527 1 541 -1 l 540 -39 l 556 -39 l 556 -12 b 537 10 556 3 547 10 z m 584 -39 l 584 30 l 568 30 l 568 -39 z m 619 10 b 593 -16 601 10 593 -5 b 639 -37 592 -39 621 -45 l 637 -26 b 608 -20 629 -29 609 -31 l 641 -20 b 619 10 643 -7 638 9 z m 608 -10 b 627 -10 609 3 627 3 z m 668 21 l 653 17 l 653 8 l 646 8 l 646 -3 l 653 -3 b 657 -36 653 -11 651 -30 b 679 -39 661 -41 674 -41 l 679 -27 b 668 -19 672 -29 667 -27 l 668 -3 l 679 -3 l 679 8 l 668 8 z m 705 21 l 690 17 l 690 8 l 684 8 l 684 -3 l 690 -3 b 694 -36 690 -11 688 -30 b 716 -39 698 -41 711 -41 l 716 -27 b 705 -19 710 -29 704 -27 l 705 -3 l 716 -3 l 716 8 l 705 8 z m 747 10 b 722 -16 729 10 722 -5 b 767 -37 720 -39 749 -45 l 765 -26 b 736 -20 757 -29 738 -31 l 769 -20 b 747 10 772 -7 767 9 z m 736 -10 b 756 -10 738 3 756 3 z m 793 -1 l 793 -1 l 792 8 l 779 8 b 779 -39 780 0 779 -29 l 795 -39 b 795 -12 795 -37 794 -13 b 810 -5 795 -6 804 -3 l 810 9 b 793 -1 803 10 796 8 z m 819 -22 b 819 -40 807 -21 807 -40 b 828 -31 825 -40 828 -36 b 819 -22 828 -26 825 -22 z m 865 -28 b 850 -15 857 -28 850 -24 b 874 -4 850 -3 865 1 l 876 8 b 876 -37 820 23 822 -56 l 874 -26 b 865 -28 872 -27 869 -28 z m 908 10 b 907 -40 872 10 872 -41 b 908 10 941 -41 945 10 z m 908 -29 b 908 -1 894 -30 893 -1 b 908 -29 923 -1 921 -30 z m 1003 10 b 987 1 996 9 991 7 l 987 1 b 958 2 982 14 962 10 l 957 2 l 957 8 l 944 8 b 944 -39 944 -1 944 -29 l 959 -39 l 959 -12 b 967 -3 959 -8 961 -3 b 975 -13 972 -3 975 -7 l 975 -39 l 990 -39 b 990 -8 990 -36 989 -10 b 1006 -14 994 1 1007 -2 l 1006 -39 l 1021 -39 l 1021 -12 b 1003 10 1021 3 1013 10 z m 282 66 l 282 71 l 262 71 l 262 66 z m 324 80 b 332 78 327 80 330 79 l 333 84 b 333 49 294 98 294 33 l 332 54 b 310 66 323 49 310 53 b 324 80 310 74 315 80 z m 375 66 b 338 66 375 92 337 92 b 375 66 337 40 375 39 z m 356 51 b 356 81 342 51 340 81 b 356 51 372 80 370 51 z m 407 70 l 407 47 l 413 47 l 413 70 b 422 80 413 75 417 80 b 430 68 428 80 430 76 l 430 47 l 437 47 l 437 69 b 412 78 437 89 419 90 l 412 78 b 389 79 409 89 393 87 l 389 79 l 389 85 l 383 85 b 383 47 383 78 383 54 l 390 47 b 390 73 390 50 389 72 b 407 70 393 83 408 82 z m 468 86 b 454 78 462 86 457 83 l 454 78 l 454 85 l 448 85 b 448 32 448 77 448 41 l 455 32 l 455 52 l 455 52 b 484 67 464 40 484 48 b 468 86 484 78 477 86 z m 465 52 b 455 60 461 52 456 55 b 455 69 455 61 455 67 b 466 80 455 75 460 80 b 465 52 481 81 480 51 z m 499 47 l 499 102 l 492 102 l 492 47 z m 508 57 b 531 52 507 45 525 43 l 531 52 l 532 47 l 538 47 b 537 70 537 52 537 65 b 510 82 538 85 522 90 l 512 78 b 530 71 520 83 531 81 b 508 57 516 71 508 66 z m 531 66 b 521 51 531 59 530 52 b 515 58 518 51 515 53 b 531 66 515 65 523 67 z m 556 94 l 549 92 l 549 85 l 544 85 l 544 80 l 549 80 b 552 49 550 73 547 54 b 566 47 554 46 562 46 l 565 52 b 556 59 561 51 556 52 l 556 80 l 566 80 l 566 85 l 556 85 l 556 94 z m 600 54 b 577 65 592 50 577 50 l 603 65 b 588 86 604 73 602 85 b 570 65 577 86 570 77 b 601 49 569 48 589 43 z m 588 81 b 597 70 595 81 597 74 l 577 70 b 588 81 578 74 581 81 z m 637 51 b 628 54 633 51 630 53 l 626 49 b 651 58 634 44 651 46 b 641 69 651 63 647 67 b 640 81 632 71 631 80 b 648 78 643 81 646 79 l 649 83 b 627 75 642 88 626 85 b 637 64 627 70 630 66 b 637 51 646 62 647 52 z m 690 68 b 674 86 690 75 687 86 b 657 65 663 86 657 77 b 688 49 656 48 675 43 l 687 54 b 663 65 678 50 663 50 l 690 65 b 690 68 690 65 690 67 z m 663 70 b 683 70 665 84 684 85 z m 707 94 l 700 92 l 700 85 l 694 85 l 694 80 l 700 80 b 703 49 701 73 698 54 b 716 47 705 46 713 46 l 716 52 b 707 59 711 51 706 52 l 707 80 l 716 80 l 716 85 l 707 85 z m 757 86 b 756 46 733 87 731 46 b 757 86 779 45 782 85 z m 756 51 b 756 81 742 51 740 81 b 756 51 773 80 770 51 z m 815 47 l 815 70 b 790 79 815 90 796 89 l 790 79 l 789 85 l 783 85 b 783 47 784 78 783 54 l 790 47 b 791 73 790 49 790 72 b 809 69 794 84 810 81 l 809 47 z m 859 66 l 859 71 l 840 71 l 840 66 z m 742 482 b 746 506 745 489 747 498 b 736 517 745 511 740 520 b 723 458 724 503 724 476 b 742 482 731 464 738 472 z m 545 571 b 516 571 537 572 524 571 b 514 442 520 529 514 485 b 520 392 513 426 512 402 b 553 413 531 376 548 404 b 568 464 561 428 564 447 b 574 529 572 485 573 507 b 574 571 574 531 576 571 b 545 571 565 571 554 571 z m 418 482 b 422 506 421 489 424 498 b 412 517 421 511 417 520 b 399 458 401 503 401 476 b 418 482 408 464 414 472 z m 1097 631 b 561 1167 1097 927 857 1167 b 174 260 90 1168 -150 593 l 82 260 l 82 127 l 1041 127 l 1041 260 l 947 260 b 1097 631 1040 356 1097 487 z m 984 224 b 982 156 1031 224 1028 155 b 984 224 936 156 939 225 z m 623 863 b 675 852 629 901 682 892 b 675 851 675 851 675 851 b 628 831 676 822 646 807 b 623 863 622 841 621 852 z m 611 737 b 619 794 614 765 612 767 b 669 788 626 823 670 817 b 660 696 665 757 661 726 b 664 670 660 688 659 676 b 683 678 670 662 680 674 b 696 711 689 688 693 700 b 709 810 708 743 709 776 b 732 833 710 822 719 833 b 755 810 745 833 754 822 b 757 737 757 785 757 761 b 827 833 767 771 780 839 b 851 756 858 822 852 783 b 847 699 851 737 847 718 b 859 671 847 689 848 674 b 896 687 872 667 888 678 b 927 835 930 727 943 786 b 848 877 919 859 875 906 b 817 859 833 861 827 833 b 820 895 814 867 813 879 b 941 878 848 940 916 913 b 867 633 1000 800 964 660 b 804 787 774 611 797 733 b 801 796 804 789 805 802 b 779 741 790 781 785 760 b 763 677 773 720 768 699 b 737 636 759 661 757 639 b 708 662 721 634 709 647 b 708 679 708 667 708 674 b 644 637 698 651 678 623 b 611 737 606 653 609 702 z m 430 1021 b 576 964 484 1051 551 1013 b 598 733 612 895 603 808 b 522 634 596 690 581 620 b 486 677 502 640 492 658 b 408 654 476 633 438 613 b 391 727 394 674 392 703 b 389 810 389 755 389 782 b 416 836 390 824 401 835 b 442 810 430 837 442 823 b 441 743 442 786 441 767 b 457 676 443 725 436 676 b 474 706 467 678 472 697 b 486 789 478 723 479 769 b 526 785 494 806 526 804 b 527 706 526 763 527 722 b 566 693 528 669 557 651 b 520 978 575 778 591 917 b 423 951 485 1009 432 994 b 397 973 420 941 395 947 b 430 1021 400 999 416 1013 z m 167 867 b 380 928 208 928 315 926 b 499 899 416 928 472 929 b 504 885 502 895 505 890 b 466 874 502 869 477 873 b 361 877 431 876 396 879 b 355 742 358 832 356 787 b 370 569 352 683 355 625 b 347 560 372 556 355 558 b 301 726 287 577 303 678 b 307 875 301 775 303 825 b 304 874 306 874 305 874 b 195 850 288 873 187 874 b 238 847 202 841 228 846 b 238 819 256 848 256 820 b 182 824 219 817 198 814 b 167 867 167 834 161 851 z m 157 210 l 137 210 l 137 157 l 122 157 l 122 210 l 102 210 l 102 223 l 157 223 z m 224 157 l 209 157 l 209 185 l 181 185 l 181 157 l 165 157 l 165 223 l 181 223 l 181 198 l 209 198 l 209 223 l 224 223 z m 253 157 l 237 157 l 237 223 l 253 223 z m 284 156 b 264 161 276 156 268 159 l 267 173 b 296 176 273 170 296 164 b 284 184 296 179 293 182 b 265 204 273 188 265 193 b 309 220 264 224 295 228 l 306 208 b 290 211 303 209 298 211 b 294 196 277 211 276 200 b 284 156 322 189 317 156 z m 359 210 l 359 196 l 386 196 l 386 183 l 359 183 l 359 158 l 344 158 l 344 223 l 387 223 l 387 210 z m 430 156 b 431 224 383 156 386 225 b 430 156 478 224 476 155 z m 535 157 l 518 157 b 490 207 510 172 497 192 l 490 207 b 490 157 490 192 490 173 l 476 157 l 476 223 l 495 223 b 521 176 503 209 516 190 l 522 176 b 520 223 520 190 521 208 l 535 223 z m 598 210 l 578 210 l 578 157 l 563 157 l 563 210 l 543 210 l 543 223 l 598 223 z m 642 157 l 627 157 l 627 223 l 642 223 z m 674 156 b 653 161 666 156 657 159 l 657 173 b 686 176 662 170 685 164 b 674 184 686 179 682 182 b 654 204 662 188 654 193 b 699 220 653 224 684 228 l 695 208 b 680 211 692 209 687 211 b 683 196 666 211 666 200 b 674 156 711 189 707 156 z m 785 166 b 733 158 776 156 747 155 l 733 222 b 785 216 748 224 775 225 b 785 166 801 207 799 175 z m 807 157 l 807 223 l 851 223 l 851 210 l 822 210 l 822 197 l 849 197 l 849 185 l 822 185 l 822 170 l 853 170 l 853 157 z m 924 157 b 923 212 924 175 923 194 l 922 212 b 905 159 918 196 910 174 l 893 159 l 885 184 b 879 212 883 193 881 203 l 879 212 b 876 157 878 195 877 174 l 862 157 l 866 223 l 888 223 l 894 201 b 900 178 896 194 899 186 l 901 178 b 915 223 904 192 910 209 l 936 223 l 939 158 l 924 158 z m 924 289 b 770 298 874 322 810 302 b 235 270 592 283 414 255 b 238 305 213 272 215 308 b 770 322 415 280 593 302 b 941 298 797 325 943 357 b 924 289 940 285 933 283 z m 944 624 b 808 561 934 557 851 559 b 622 570 746 561 680 568 b 619 442 625 527 619 484 b 625 392 618 426 617 402 b 658 413 637 376 653 404 b 719 540 681 453 674 515 b 767 522 737 549 759 541 b 723 438 780 489 751 453 b 722 422 721 437 722 427 b 738 387 722 410 725 391 b 793 466 768 379 791 439 b 785 521 793 485 790 503 b 786 539 784 527 780 535 b 838 521 802 551 830 537 b 845 495 842 513 844 504 b 874 537 851 511 858 528 b 923 527 890 546 911 540 b 887 432 953 498 944 397 b 878 451 883 435 874 448 b 896 469 885 456 893 461 b 896 497 900 478 899 488 b 863 487 885 527 868 509 b 839 370 849 449 843 411 b 829 350 839 364 836 352 b 803 367 819 347 808 360 b 791 404 795 378 792 391 b 726 353 779 379 757 351 b 676 407 698 354 679 380 b 574 414 655 334 581 338 b 550 368 569 399 561 381 b 470 409 515 335 473 366 b 402 353 458 382 435 351 b 358 386 383 354 365 367 b 351 378 356 383 354 380 b 223 389 307 340 245 337 b 222 581 201 449 221 519 b 213 645 223 603 219 625 b 215 657 211 650 211 654 b 267 639 231 669 260 655 b 272 554 279 615 273 580 b 266 425 270 511 266 468 b 279 387 266 413 264 391 b 327 402 295 382 315 391 b 367 511 354 432 350 476 b 443 522 381 543 426 560 b 399 439 456 489 427 454 b 398 422 398 438 398 427 b 415 387 398 410 401 391 b 452 414 431 381 445 402 b 467 483 464 435 466 460 b 469 573 467 490 470 573 b 409 573 449 573 429 573 b 409 591 397 573 397 590 b 468 595 429 593 449 594 b 467 609 468 599 468 604 b 509 614 465 633 502 636 b 513 596 510 608 512 602 b 573 596 532 597 555 596 b 572 609 573 600 573 604 b 614 614 570 633 607 636 b 618 597 615 608 617 603 b 791 600 660 598 769 600 b 930 629 849 599 889 609 b 944 624 937 632 946 636 z m 983 168 b 983 212 1007 167 1008 212 b 983 168 959 213 959 167 z m 431 212 b 431 168 406 213 407 167 b 431 212 455 167 455 212 z m 757 211 b 749 211 753 211 750 211 l 749 169 b 780 191 765 167 781 174 b 757 211 780 205 771 211 z "},"#":{"ha":1211,"x_min":0,"x_max":0,"o":"m 201 36 b 198 19 200 30 199 25 l 198 19 b 189 54 196 29 192 44 l 177 54 b 168 19 174 44 170 29 l 168 19 b 161 54 166 29 163 44 l 145 54 l 160 7 l 174 7 b 183 38 177 16 181 27 l 183 38 b 191 7 184 28 188 16 l 206 7 l 221 54 l 206 54 z m 281 36 b 278 19 280 30 278 25 l 278 19 b 269 54 276 29 271 44 l 257 54 b 248 19 254 44 250 29 l 247 19 b 240 54 246 29 242 44 l 225 54 l 239 7 l 254 7 b 262 38 257 16 261 27 l 262 38 b 270 7 264 28 268 16 l 285 7 l 300 54 l 285 54 z m 360 36 b 357 19 359 30 358 25 l 357 19 b 348 54 355 29 351 44 l 336 54 b 327 19 334 44 329 29 l 327 19 b 320 54 325 29 322 44 l 304 54 l 319 7 l 334 7 b 342 38 336 16 340 27 l 342 38 b 350 7 343 28 347 16 l 365 7 l 380 54 l 365 54 z m 390 24 b 390 5 378 24 378 5 b 399 15 395 5 399 9 b 390 24 399 20 395 24 z m 425 67 l 410 63 l 410 54 l 404 54 l 404 42 l 410 42 b 414 10 411 34 408 15 b 436 7 418 5 431 5 l 436 18 b 425 27 430 17 425 18 l 425 42 l 436 42 l 436 54 l 425 54 z m 497 36 b 494 19 496 30 495 25 l 494 19 b 485 54 492 29 488 44 l 473 54 b 464 19 470 44 466 29 l 464 19 b 457 54 462 29 459 44 l 441 54 l 456 7 l 470 7 b 478 38 473 16 477 27 l 479 38 b 487 7 480 28 484 16 l 501 7 l 517 54 l 502 54 z m 532 75 b 532 60 521 75 521 60 b 540 67 537 60 540 63 b 532 75 540 71 537 75 z m 539 7 l 539 54 l 524 54 l 524 7 z m 582 55 b 566 47 573 55 568 50 l 566 47 l 565 54 l 552 54 b 552 7 552 45 552 17 l 568 7 b 568 37 568 9 567 36 b 585 32 572 46 586 44 l 585 7 l 600 7 l 600 34 b 582 55 600 49 592 55 z m 628 7 l 628 76 l 613 76 l 613 7 z m 663 55 b 638 30 645 55 638 40 b 683 9 636 7 665 1 l 681 19 b 652 25 673 16 654 14 l 685 25 b 663 55 688 38 683 55 z m 652 36 b 672 36 654 48 672 48 z m 712 67 l 697 63 l 697 54 l 691 54 l 691 42 l 697 42 b 701 10 698 34 695 15 b 723 7 705 5 718 5 l 723 18 b 712 27 717 17 712 18 l 712 42 l 723 42 l 723 54 l 712 54 z m 749 67 l 735 63 l 735 54 l 728 54 l 728 42 l 735 42 b 739 10 735 34 733 15 b 760 7 742 5 755 5 l 760 18 b 749 27 754 17 749 18 l 749 42 l 760 42 l 760 54 l 749 54 z m 792 55 b 766 30 773 55 766 40 b 812 9 765 7 794 1 l 810 19 b 781 25 802 16 782 14 l 814 25 b 792 55 816 38 811 55 z m 781 36 b 800 36 782 48 800 48 z m 837 44 l 837 44 l 837 54 l 823 54 b 824 7 824 46 824 16 l 839 7 b 839 33 839 8 839 33 b 855 40 840 39 848 42 l 855 55 b 837 44 848 56 841 53 z m 864 24 b 864 5 852 24 852 5 b 873 15 869 5 873 9 b 864 24 873 20 869 24 z m 909 17 b 895 30 901 17 895 22 b 918 42 894 42 910 46 l 920 53 b 921 8 864 68 867 -10 l 919 19 b 909 17 916 18 913 17 z m 953 55 b 952 5 916 56 917 5 b 953 55 986 4 989 55 z m 952 16 b 952 44 938 15 937 45 b 952 16 967 45 966 15 z m 1048 55 b 1031 46 1041 55 1036 52 l 1031 46 b 1002 47 1026 59 1006 56 l 1002 47 l 1001 54 l 988 54 b 989 7 989 45 989 17 l 1004 7 l 1004 33 b 1012 43 1004 38 1006 42 b 1019 32 1017 43 1019 39 l 1019 7 l 1034 7 b 1035 37 1034 9 1034 36 b 1050 32 1039 46 1051 44 l 1050 7 l 1065 7 l 1065 34 b 1048 55 1065 49 1057 55 z m 326 111 l 326 116 l 307 116 l 307 111 z m 368 126 b 376 124 372 126 374 125 l 378 129 b 377 94 338 143 338 79 l 376 99 b 355 111 368 94 354 99 b 368 126 355 119 359 126 z m 419 112 b 382 111 420 138 382 138 b 419 112 382 86 419 85 z m 401 97 b 401 126 386 96 385 126 b 401 97 417 126 415 96 z m 451 115 l 451 93 l 458 93 l 458 116 b 467 126 458 121 461 125 b 475 114 472 126 475 121 l 475 93 l 481 93 l 481 115 b 456 124 481 135 463 135 l 456 124 b 434 124 453 134 437 133 l 434 124 l 433 130 l 427 130 b 428 93 428 124 428 100 l 434 93 b 435 119 435 95 434 117 b 451 115 438 129 452 127 z m 512 131 b 499 124 506 131 502 128 l 499 124 l 498 130 l 492 130 b 493 77 493 122 492 86 l 499 77 l 499 98 l 499 98 b 528 112 509 85 529 93 b 512 131 528 123 521 131 z m 510 97 b 500 105 505 97 501 100 b 499 114 499 107 499 112 b 510 126 499 120 504 126 b 510 97 525 126 525 96 z m 544 93 l 544 148 l 537 148 l 537 93 z m 552 103 b 575 97 552 91 569 88 l 575 97 l 576 93 l 582 93 b 582 116 581 98 582 110 b 555 128 583 131 567 135 l 556 123 b 575 117 565 128 576 127 b 552 103 560 117 552 112 z m 575 112 b 565 97 575 105 575 97 b 559 103 562 97 559 99 b 575 112 559 111 568 112 z m 601 139 l 594 137 l 594 130 l 588 130 l 588 125 l 594 125 b 597 95 595 119 592 99 b 610 93 599 91 607 91 l 610 98 b 601 105 605 96 600 98 l 601 125 l 610 125 l 610 130 l 601 130 l 601 139 z m 645 99 b 621 110 636 95 621 96 l 648 110 b 633 131 649 118 646 131 b 615 111 622 131 615 122 b 646 94 614 93 633 88 z m 632 126 b 642 115 640 126 642 119 l 622 115 b 632 126 622 120 625 126 z m 681 97 b 672 100 678 97 674 98 l 670 94 b 695 103 679 89 696 92 b 685 114 695 109 692 112 b 684 126 676 117 675 125 b 692 124 688 126 691 125 l 694 129 b 672 120 686 134 671 130 b 681 109 672 116 675 112 b 681 97 691 107 691 97 z m 734 113 b 719 131 734 120 731 131 b 701 111 708 131 701 122 b 732 94 700 93 720 88 l 731 99 b 708 110 723 95 707 96 l 734 110 b 734 113 734 111 734 112 z m 708 115 b 728 115 709 130 728 130 z m 751 139 l 744 137 l 744 130 l 739 130 l 739 125 l 744 125 b 747 95 745 119 742 99 b 761 93 749 91 757 91 l 760 98 b 751 105 756 96 751 98 l 751 125 l 761 125 l 761 130 l 751 130 l 751 139 z m 801 131 b 800 92 777 132 776 91 b 801 131 824 90 827 131 z m 801 97 b 801 126 786 96 785 126 b 801 97 817 126 815 96 z m 860 93 l 860 115 b 834 124 860 135 840 135 l 834 124 l 834 130 l 828 130 b 828 93 828 124 828 100 l 835 93 b 835 118 835 95 834 117 b 853 114 839 129 854 127 l 853 93 z m 903 111 l 903 116 l 884 116 l 884 111 z m 786 527 b 790 551 789 535 792 543 b 780 562 789 557 785 566 b 767 503 769 548 769 521 b 786 527 776 509 782 517 z m 589 617 b 561 617 581 617 569 616 b 558 487 564 574 559 530 b 564 437 558 471 557 448 b 597 458 576 422 593 450 b 612 510 605 474 609 493 b 618 574 617 531 617 552 b 619 617 618 577 621 617 b 589 617 609 617 599 617 z m 463 527 b 466 551 466 535 468 543 b 457 562 465 557 461 566 b 444 503 445 548 445 521 b 463 527 452 509 459 517 z m 1141 676 b 605 1212 1141 972 901 1212 b 218 305 134 1214 -106 639 l 126 305 l 126 173 l 1085 173 l 1085 305 l 992 305 b 1141 676 1084 402 1141 532 z m 1028 269 b 1027 202 1075 270 1073 200 b 1028 269 980 201 983 270 z m 668 908 b 720 897 674 947 727 938 b 720 896 720 897 720 897 b 672 876 721 868 691 852 b 668 908 667 886 666 898 z m 656 782 b 663 840 658 810 656 812 b 714 833 671 868 715 862 b 705 741 710 803 705 772 b 709 715 705 733 704 722 b 727 724 714 708 725 719 b 741 757 734 733 737 746 b 754 855 752 788 753 822 b 776 878 754 868 764 878 b 799 855 790 878 799 867 b 802 782 801 831 801 807 b 872 879 812 816 825 884 b 896 802 902 868 896 828 b 892 744 895 783 892 763 b 903 716 892 734 892 720 b 940 732 916 712 932 724 b 972 881 975 772 988 831 b 893 922 963 904 920 951 b 861 904 878 907 872 879 b 865 940 858 913 857 924 b 986 923 893 985 961 958 b 911 678 1045 845 1009 706 b 849 833 818 656 841 778 b 845 842 849 835 850 848 b 824 787 834 826 829 805 b 807 722 817 766 812 744 b 781 682 804 707 801 684 b 753 708 765 680 754 693 b 753 725 752 713 753 720 b 689 682 742 697 723 668 b 656 782 651 698 654 748 z m 475 1067 b 621 1009 528 1096 595 1059 b 642 779 656 940 647 853 b 566 679 640 735 625 665 b 531 723 546 686 536 704 b 453 699 520 679 483 659 b 435 773 438 720 437 748 b 434 855 433 800 433 828 b 460 881 434 870 446 881 b 486 855 474 882 487 869 b 486 789 486 832 486 812 b 502 722 487 771 481 721 b 518 751 511 724 516 742 b 531 834 522 768 524 814 b 570 831 539 852 571 849 b 572 752 570 808 572 767 b 611 738 572 715 602 696 b 565 1024 619 823 636 962 b 467 997 530 1054 477 1040 b 442 1018 464 986 439 993 b 475 1067 444 1044 460 1059 z m 212 913 b 425 973 252 973 359 971 b 543 945 461 974 516 974 b 548 930 547 941 549 936 b 510 919 546 914 521 918 b 406 922 475 921 441 924 b 399 787 402 877 400 832 b 414 614 396 729 399 671 b 391 605 417 601 399 603 b 346 771 331 622 347 723 b 351 920 346 821 348 870 b 348 920 350 920 349 920 b 240 896 332 918 232 919 b 282 892 246 887 273 892 b 282 864 300 893 300 866 b 226 870 264 863 243 860 b 212 913 211 879 205 897 z m 202 255 l 182 255 l 182 203 l 167 203 l 167 255 l 147 255 l 147 268 l 202 268 z m 269 203 l 253 203 l 253 230 l 225 230 l 225 203 l 210 203 l 210 268 l 225 268 l 225 243 l 253 243 l 253 268 l 269 268 z m 297 203 l 282 203 l 282 268 l 297 268 z m 329 202 b 308 206 321 202 312 204 l 312 219 b 341 221 317 215 340 210 b 329 230 341 225 338 227 b 309 249 317 233 309 239 b 354 266 308 269 339 273 l 350 253 b 335 257 347 255 342 257 b 338 242 321 256 321 246 b 329 202 366 234 362 201 z m 432 256 l 404 256 l 404 241 l 430 241 l 430 229 l 404 229 l 404 203 l 388 203 l 388 268 l 432 268 z m 475 202 b 476 269 428 201 430 270 b 475 202 523 270 520 200 z m 579 203 l 563 203 b 534 252 554 217 541 237 l 534 252 b 535 203 535 237 535 218 l 520 203 l 520 268 l 539 268 b 566 221 548 255 560 236 l 566 221 b 565 268 564 236 565 253 l 579 268 z m 642 255 l 622 255 l 622 203 l 607 203 l 607 255 l 587 255 l 587 268 l 642 268 z m 687 203 l 671 203 l 671 268 l 687 268 z m 718 202 b 698 206 710 202 702 204 l 701 219 b 730 221 706 215 730 210 b 718 230 730 225 727 227 b 699 249 707 233 699 239 b 743 266 698 269 729 273 l 740 253 b 724 257 737 255 732 257 b 727 242 710 256 710 246 b 718 202 756 234 751 201 z m 830 211 b 778 203 820 202 791 201 l 778 267 b 829 261 792 269 819 270 b 830 211 846 252 844 220 z m 852 203 l 852 268 l 895 268 l 895 256 l 867 256 l 867 243 l 894 243 l 894 230 l 867 230 l 867 215 l 897 215 l 897 203 z m 969 203 b 967 257 968 220 967 239 l 967 257 b 950 204 963 241 955 220 l 938 204 l 930 230 b 923 257 928 238 925 248 l 923 257 b 921 203 923 240 922 219 l 906 203 l 910 268 l 932 268 l 939 247 b 945 223 941 240 943 231 l 945 223 b 959 268 948 237 954 255 l 980 268 l 984 203 l 969 203 z m 969 334 b 815 343 919 367 854 347 b 279 316 636 329 459 300 b 282 351 257 318 259 353 b 815 367 460 325 638 348 b 985 343 841 370 988 402 b 969 334 984 331 978 328 z m 989 670 b 852 606 979 602 896 604 b 667 615 791 607 725 614 b 663 487 669 573 664 530 b 669 437 663 471 662 448 b 702 458 681 422 698 450 b 763 586 726 499 719 560 b 811 567 782 595 804 587 b 767 484 824 535 795 499 b 766 467 766 483 766 472 b 783 432 766 455 769 437 b 837 512 812 424 835 484 b 830 566 837 530 835 548 b 830 585 828 572 824 580 b 882 567 846 597 875 582 b 889 540 886 558 888 549 b 918 582 896 556 903 574 b 967 572 934 591 956 585 b 931 477 997 543 989 443 b 923 497 927 480 918 493 b 941 514 929 502 937 507 b 940 542 945 523 943 533 b 907 533 929 573 912 554 b 884 416 893 494 887 456 b 873 395 883 409 881 397 b 847 413 863 393 852 406 b 836 449 840 423 836 437 b 771 398 824 425 801 397 b 721 452 742 399 723 425 b 618 460 699 380 626 383 b 594 414 613 444 606 426 b 514 454 560 380 517 411 b 447 398 502 428 479 397 b 403 431 427 399 409 413 b 395 423 400 428 398 425 b 267 434 352 385 289 383 b 267 626 245 494 265 564 b 257 691 267 648 264 670 b 260 703 256 695 255 700 b 311 685 276 715 304 700 b 316 599 323 660 318 626 b 310 470 315 556 310 513 b 324 432 310 458 308 437 b 371 448 340 428 360 436 b 412 556 399 478 394 522 b 488 567 425 588 470 606 b 444 484 500 535 472 499 b 442 467 442 483 442 473 b 459 432 443 455 446 437 b 497 460 476 427 490 447 b 511 528 508 480 510 505 b 514 619 511 535 514 619 b 453 618 493 619 473 619 b 453 637 441 618 442 636 b 513 640 473 638 493 639 b 512 654 512 645 512 649 b 553 660 509 679 547 682 b 557 642 555 654 556 648 b 618 641 576 642 599 642 b 617 654 617 646 617 650 b 658 660 614 679 652 681 b 662 642 660 654 661 648 b 835 646 705 644 813 646 b 975 674 893 645 934 655 b 989 670 982 678 990 682 z m 1028 214 b 1028 257 1052 213 1052 258 b 1028 214 1003 258 1003 213 z m 475 257 b 475 214 451 258 451 213 b 475 257 499 213 500 258 z m 801 257 b 793 256 797 257 795 257 l 793 214 b 825 237 809 212 826 219 b 801 257 825 250 816 257 z "},"$":{"ha":1113,"x_min":0,"x_max":0,"o":"m 153 -35 b 150 -52 152 -41 150 -46 l 149 -52 b 141 -17 148 -42 143 -27 l 128 -17 b 119 -52 126 -27 121 -41 l 119 -52 b 112 -17 118 -41 114 -27 l 97 -17 l 111 -64 l 126 -64 b 134 -33 129 -54 132 -43 l 134 -33 b 142 -64 136 -43 140 -55 l 157 -64 l 172 -17 l 157 -17 z m 232 -35 b 229 -52 231 -41 230 -46 l 229 -52 b 220 -17 227 -42 223 -27 l 208 -17 b 199 -52 205 -27 201 -41 l 199 -52 b 192 -17 197 -41 194 -27 l 176 -17 l 191 -64 l 205 -64 b 213 -33 208 -54 212 -43 l 214 -33 b 222 -64 215 -43 219 -55 l 236 -64 l 252 -17 l 237 -17 z m 312 -35 b 309 -52 311 -41 309 -46 l 309 -52 b 300 -17 307 -42 302 -27 l 288 -17 b 279 -52 285 -27 280 -41 l 278 -52 b 271 -17 277 -41 273 -27 l 256 -17 l 270 -64 l 285 -64 b 293 -33 288 -54 292 -43 l 293 -33 b 301 -64 295 -43 299 -55 l 316 -64 l 331 -17 l 316 -17 z m 341 -47 b 341 -65 330 -46 329 -66 b 350 -56 347 -65 350 -61 b 341 -47 350 -51 347 -47 z m 377 -4 l 362 -8 l 362 -17 l 355 -17 l 355 -28 l 362 -28 b 366 -61 362 -36 360 -55 b 388 -64 369 -66 383 -66 l 387 -52 b 377 -44 381 -54 376 -52 l 377 -28 l 388 -28 l 388 -17 l 377 -17 z m 449 -35 b 446 -52 447 -41 446 -46 l 445 -52 b 437 -17 444 -42 439 -27 l 424 -17 b 415 -52 422 -27 417 -41 l 415 -52 b 408 -17 414 -41 410 -27 l 392 -17 l 407 -64 l 422 -64 b 430 -33 424 -54 428 -43 l 430 -33 b 438 -64 432 -43 435 -55 l 453 -64 l 468 -17 l 453 -17 z m 483 4 b 483 -11 472 4 472 -11 b 491 -3 488 -11 491 -8 b 483 4 491 1 488 4 z m 491 -64 l 491 -17 l 475 -17 l 475 -64 z m 533 -16 b 518 -24 524 -16 519 -21 l 517 -24 l 517 -17 l 503 -17 b 504 -64 504 -26 504 -54 l 519 -64 b 519 -34 519 -62 518 -35 b 536 -39 523 -24 537 -26 l 536 -64 l 552 -64 l 552 -37 b 533 -16 552 -22 543 -16 z m 580 -64 l 580 5 l 564 5 l 564 -64 z m 615 -16 b 589 -41 596 -16 589 -30 b 635 -62 588 -64 616 -70 l 633 -52 b 604 -45 624 -55 605 -56 l 637 -45 b 615 -16 639 -32 634 -16 z m 604 -35 b 623 -35 605 -23 623 -23 z m 664 -4 l 649 -8 l 649 -17 l 642 -17 l 642 -28 l 649 -28 b 653 -61 649 -36 647 -55 b 675 -64 656 -66 670 -66 l 674 -52 b 664 -44 668 -54 663 -52 l 664 -28 l 675 -28 l 675 -17 l 664 -17 l 664 -4 z m 701 -4 l 686 -8 l 686 -17 l 679 -17 l 679 -28 l 686 -28 b 690 -61 686 -36 684 -55 b 712 -64 694 -66 707 -66 l 712 -52 b 701 -44 706 -54 700 -52 l 701 -28 l 712 -28 l 712 -17 l 701 -17 z m 743 -16 b 718 -41 725 -16 718 -30 b 763 -62 716 -64 745 -70 l 761 -52 b 732 -45 753 -55 734 -56 l 765 -45 b 743 -16 768 -32 763 -16 z m 732 -35 b 752 -35 733 -23 752 -23 z m 789 -26 l 788 -26 l 788 -17 l 775 -17 b 775 -64 775 -25 775 -54 l 791 -64 b 791 -37 791 -62 790 -38 b 806 -30 791 -31 800 -28 l 806 -16 b 789 -26 799 -15 792 -17 z m 815 -47 b 815 -65 803 -46 803 -66 b 824 -56 821 -65 824 -61 b 815 -47 824 -51 821 -47 z m 860 -53 b 846 -40 853 -53 846 -49 b 869 -29 845 -28 861 -25 l 872 -18 b 872 -63 816 -2 818 -81 l 870 -52 b 860 -53 868 -53 864 -53 z m 904 -16 b 903 -65 867 -15 868 -66 b 904 -16 937 -67 941 -16 z m 904 -54 b 904 -26 890 -55 888 -26 b 904 -54 919 -26 917 -56 z m 999 -16 b 983 -24 992 -16 987 -19 l 983 -24 b 954 -23 978 -11 957 -15 l 953 -23 l 953 -17 l 940 -17 b 940 -64 940 -26 940 -54 l 955 -64 l 955 -37 b 963 -28 955 -33 957 -28 b 971 -39 968 -28 971 -32 l 971 -64 l 986 -64 b 986 -33 986 -61 985 -35 b 1001 -39 990 -24 1003 -27 l 1001 -64 l 1016 -64 l 1016 -37 b 999 -16 1016 -22 1008 -16 z m 277 41 l 277 46 l 258 46 l 258 41 z m 319 55 b 327 53 323 55 326 54 l 329 58 b 329 23 290 72 290 8 l 328 29 b 306 41 319 24 305 28 b 319 55 306 49 311 55 z m 370 41 b 334 41 371 67 333 67 b 370 41 333 15 370 14 z m 352 26 b 352 55 337 26 336 55 b 352 26 368 55 366 26 z m 403 45 l 403 22 l 409 22 l 409 45 b 418 55 409 50 413 55 b 426 43 423 55 426 51 l 426 22 l 433 22 l 433 44 b 408 53 433 64 415 65 l 408 53 b 385 54 405 63 389 62 l 385 54 l 385 60 l 379 60 b 379 22 379 53 379 29 l 386 22 b 386 48 386 24 385 46 b 403 45 389 58 403 57 z m 464 61 b 450 53 457 61 453 58 l 450 53 l 450 60 l 444 60 b 444 7 444 52 444 15 l 451 7 l 451 27 l 451 27 b 480 41 460 15 480 22 b 464 61 480 53 473 61 z m 461 27 b 451 35 456 27 452 30 b 451 44 450 36 451 42 b 461 55 451 50 456 55 b 461 27 477 55 476 25 z m 495 22 l 495 77 l 488 77 l 488 22 z m 504 32 b 527 27 503 20 521 18 l 527 27 l 527 22 l 534 22 b 533 45 533 27 533 39 b 506 57 534 60 518 64 l 508 53 b 526 46 516 58 527 56 b 504 32 512 46 504 41 z m 526 41 b 517 26 527 34 526 27 b 510 33 513 26 510 28 b 526 41 510 40 519 41 z m 552 69 l 545 67 l 545 60 l 539 60 l 539 54 l 545 54 b 548 24 546 48 543 29 b 561 22 550 21 558 21 l 561 27 b 552 34 556 26 551 27 l 552 54 l 562 54 l 562 60 l 552 60 l 552 69 z m 596 28 b 573 40 588 25 573 25 l 599 40 b 584 61 600 48 598 60 b 566 40 573 61 566 52 b 597 24 565 22 585 17 z m 583 56 b 593 44 591 56 593 49 l 573 44 b 583 56 573 49 576 56 z m 633 26 b 624 29 629 26 626 28 l 622 24 b 646 33 630 18 647 21 b 637 44 646 38 643 41 b 636 55 628 46 627 55 b 643 53 639 55 642 54 l 645 58 b 623 49 638 63 622 60 b 633 39 623 45 626 41 b 633 26 642 36 643 27 z m 686 43 b 670 61 686 50 683 61 b 653 40 659 61 653 52 b 684 24 652 22 671 17 l 682 28 b 659 40 674 25 659 25 l 686 40 b 686 43 686 40 686 41 z m 659 44 b 679 44 660 59 680 59 z m 703 69 l 696 67 l 696 60 l 690 60 l 690 54 l 696 54 b 698 24 696 48 694 29 b 712 22 701 21 709 21 l 712 27 b 703 34 707 26 702 27 l 703 54 l 712 54 l 712 60 l 703 60 z m 752 61 b 752 21 728 61 727 21 b 752 61 775 20 778 60 z m 752 26 b 752 55 738 26 736 55 b 752 26 768 55 766 26 z m 811 22 l 811 44 b 786 53 811 64 792 64 l 785 53 l 785 60 l 779 60 b 779 22 779 53 779 29 l 786 22 b 787 48 786 24 786 46 b 804 44 790 59 806 56 l 804 22 z m 855 41 l 855 46 l 836 46 l 836 41 z m 738 457 b 741 481 741 464 743 473 b 732 492 740 486 736 495 b 719 432 720 478 720 451 b 738 457 727 439 734 446 z m 540 546 b 512 546 532 547 520 546 b 510 416 515 503 510 459 b 516 367 509 401 508 377 b 548 388 527 351 544 379 b 564 439 556 403 560 422 b 570 503 568 460 569 482 b 570 546 570 506 572 546 b 540 546 560 546 550 546 z m 414 457 b 418 481 417 464 420 473 b 408 492 417 486 413 495 b 395 432 397 478 397 451 b 414 457 404 439 410 446 z m 1092 606 b 556 1142 1092 902 852 1142 b 170 235 86 1143 -155 568 l 78 235 l 78 102 l 1037 102 l 1037 235 l 943 235 b 1092 606 1036 331 1092 462 z m 979 199 b 978 131 1027 199 1024 130 b 979 199 932 131 934 200 z m 619 838 b 671 827 625 876 678 867 b 671 826 671 826 671 826 b 624 806 672 797 642 782 b 619 838 618 816 617 827 z m 607 711 b 615 769 609 740 607 742 b 665 762 622 798 666 791 b 656 671 661 732 657 701 b 660 644 656 662 655 651 b 679 653 666 637 676 648 b 692 686 685 663 689 675 b 705 785 703 718 705 751 b 728 807 706 797 715 807 b 751 785 741 807 750 797 b 753 712 752 760 753 736 b 823 808 763 746 776 814 b 847 731 854 797 847 757 b 843 673 847 712 843 693 b 855 646 843 664 844 649 b 892 662 868 641 883 653 b 923 810 926 702 939 761 b 844 852 915 833 871 880 b 813 834 829 836 823 808 b 816 870 810 842 808 854 b 937 853 844 915 912 887 b 862 607 996 774 960 635 b 800 762 770 586 793 707 b 797 771 800 764 801 777 b 775 716 786 756 781 734 b 759 652 768 695 764 673 b 732 611 755 636 752 614 b 704 637 717 609 705 622 b 704 654 704 642 704 649 b 640 612 694 626 674 598 b 607 711 602 627 605 677 z m 426 996 b 572 938 479 1026 546 988 b 593 708 608 870 599 783 b 518 609 592 665 576 595 b 482 652 498 615 488 633 b 404 628 472 608 434 588 b 386 702 390 649 388 678 b 385 785 384 730 385 757 b 411 811 385 799 397 810 b 438 785 426 811 438 798 b 437 718 438 761 437 741 b 453 651 439 700 432 650 b 469 681 462 653 467 672 b 482 763 474 697 475 744 b 522 760 490 781 522 779 b 523 681 522 737 523 697 b 562 667 524 644 553 626 b 516 953 571 752 587 891 b 418 926 481 984 428 969 b 393 948 416 915 391 922 b 426 996 396 974 412 988 z m 163 842 b 376 903 203 903 310 901 b 495 874 412 903 468 903 b 500 860 498 870 501 865 b 462 848 497 844 473 848 b 357 852 427 850 392 854 b 351 716 354 807 351 762 b 366 544 348 658 350 600 b 342 534 368 530 350 533 b 297 701 282 552 298 652 b 303 849 297 750 299 800 b 300 849 302 849 301 849 b 191 825 284 848 183 849 b 234 822 198 816 224 821 b 234 794 252 823 251 795 b 178 799 215 792 194 789 b 163 842 163 808 156 826 z m 153 185 l 133 185 l 133 132 l 118 132 l 118 185 l 98 185 l 98 197 l 153 197 z m 220 132 l 205 132 l 205 159 l 177 159 l 177 132 l 161 132 l 161 197 l 177 197 l 177 173 l 205 173 l 205 197 l 220 197 z m 249 132 l 233 132 l 233 197 l 249 197 z m 280 131 b 260 136 272 131 264 133 l 263 148 b 292 151 268 145 292 139 b 280 159 292 154 289 157 b 261 179 269 163 261 168 b 305 195 260 199 291 203 l 302 183 b 286 186 299 184 293 186 b 289 171 272 186 272 175 b 280 131 318 164 313 131 z m 355 185 l 355 171 l 381 171 l 381 158 l 355 158 l 355 132 l 340 132 l 340 197 l 383 197 l 383 185 z m 426 131 b 427 199 379 131 382 200 b 426 131 474 199 472 130 z m 531 132 l 514 132 b 486 182 505 147 492 167 l 485 182 b 486 132 486 167 486 148 l 472 132 l 472 197 l 491 197 b 517 151 499 184 512 165 l 517 151 b 516 197 516 165 516 183 l 531 197 z m 574 185 l 574 132 l 558 132 l 558 185 l 539 185 l 539 197 l 594 197 l 594 185 z m 638 132 l 623 132 l 623 197 l 638 197 z m 669 131 b 649 136 661 131 653 133 l 653 148 b 682 151 658 145 681 139 b 670 159 682 154 678 157 b 650 179 658 163 650 168 b 695 195 649 199 680 203 l 691 183 b 676 186 688 184 683 186 b 679 171 662 186 662 175 b 669 131 707 164 703 131 z m 781 141 b 729 133 772 131 742 130 l 729 197 b 781 191 744 199 771 199 b 781 141 797 182 795 150 z m 803 132 l 803 197 l 847 197 l 847 185 l 818 185 l 818 172 l 845 172 l 845 159 l 818 159 l 818 145 l 848 145 l 848 132 z m 920 132 b 918 186 919 149 918 169 l 918 186 b 901 133 914 171 906 149 l 889 133 l 881 159 b 875 186 879 168 877 177 l 875 186 b 872 132 874 170 873 149 l 858 132 l 862 197 l 883 197 l 890 176 b 896 153 892 169 894 161 l 896 153 b 911 197 900 167 906 184 l 932 197 l 935 132 l 920 132 z m 920 264 b 766 273 870 297 806 276 b 231 245 588 258 410 230 b 234 280 209 247 211 283 b 766 297 411 255 589 277 b 936 273 793 300 939 332 b 920 264 936 260 929 258 z m 940 599 b 803 536 930 532 847 534 b 618 545 742 536 676 543 b 615 416 621 502 615 459 b 621 367 614 401 613 377 b 654 388 632 351 649 379 b 715 515 677 428 670 489 b 763 497 733 524 755 516 b 719 413 776 464 747 428 b 717 397 717 412 717 402 b 734 362 718 385 721 366 b 789 441 763 354 787 413 b 781 496 789 460 786 478 b 782 514 780 502 776 509 b 834 496 798 526 826 512 b 841 469 838 488 840 479 b 870 512 847 485 854 503 b 919 501 886 521 907 515 b 883 407 949 472 940 372 b 874 426 878 410 870 423 b 892 444 881 431 888 436 b 891 472 896 452 895 463 b 859 462 881 502 864 484 b 835 345 845 423 838 386 b 825 325 835 338 832 327 b 798 342 815 322 803 335 b 787 379 791 353 788 366 b 722 328 775 354 753 326 b 672 382 694 329 674 355 b 570 389 651 309 577 313 b 546 343 565 373 557 356 b 466 383 511 310 469 341 b 398 328 454 357 431 326 b 354 361 379 329 360 342 b 347 353 352 358 350 355 b 219 363 303 315 241 312 b 218 556 197 424 217 494 b 209 620 219 577 215 600 b 211 632 207 625 207 629 b 263 614 227 644 255 630 b 268 528 275 589 269 555 b 262 400 266 486 261 443 b 275 362 262 388 259 366 b 323 377 291 357 311 366 b 363 486 350 407 346 451 b 439 497 377 517 422 535 b 395 413 452 464 423 428 b 394 397 393 412 394 402 b 410 362 394 385 397 366 b 448 389 427 356 441 377 b 463 458 460 410 461 435 b 465 548 463 465 466 548 b 405 548 445 548 425 548 b 405 566 393 548 393 565 b 464 570 425 568 444 569 b 463 583 464 574 463 579 b 504 589 461 608 498 611 b 509 571 506 583 507 577 b 569 571 528 572 551 571 b 568 583 569 575 569 579 b 610 589 566 608 603 611 b 614 572 611 583 613 578 b 786 575 656 573 764 575 b 926 604 844 574 885 584 b 940 599 933 607 942 611 z m 979 143 b 979 187 1003 142 1004 187 b 979 143 955 187 955 142 z m 427 187 b 427 143 402 187 402 142 b 427 187 451 142 451 187 z m 753 186 b 744 186 748 186 746 186 l 744 144 b 776 166 761 141 777 149 b 753 186 776 180 767 186 z "},"%":{"ha":1094,"x_min":0,"x_max":0,"o":"m 143 17 b 140 0 142 11 141 6 l 140 0 b 131 35 138 10 134 25 l 119 35 b 110 0 116 25 112 11 l 110 0 b 102 35 108 11 105 25 l 87 35 l 101 -12 l 116 -12 b 124 19 119 -3 123 9 l 124 19 b 132 -12 126 9 130 -3 l 147 -12 l 162 35 l 147 35 z m 223 17 b 219 0 221 11 220 6 l 219 0 b 210 35 217 10 213 25 l 198 35 b 189 0 196 25 191 11 l 189 0 b 182 35 187 11 184 25 l 166 35 l 181 -12 l 196 -12 b 204 19 198 -3 202 9 l 204 19 b 212 -12 205 9 209 -3 l 227 -12 l 242 35 l 227 35 z m 302 17 b 299 0 301 11 300 6 l 299 0 b 290 35 297 10 293 25 l 278 35 b 269 0 275 25 271 11 l 269 0 b 261 35 267 11 264 25 l 246 35 l 260 -12 l 275 -12 b 283 19 278 -3 282 9 l 283 19 b 291 -12 285 9 289 -3 l 306 -12 l 321 35 l 306 35 z m 332 5 b 332 -13 320 5 320 -14 b 341 -4 337 -13 341 -9 b 332 5 341 1 337 5 z m 367 48 l 352 44 l 352 35 l 345 35 l 345 24 l 352 24 b 356 -9 352 15 350 -3 b 378 -12 360 -14 373 -14 l 378 0 b 367 8 372 -2 366 0 l 367 24 l 378 24 l 378 35 l 367 35 z m 439 17 b 436 0 438 11 437 6 l 436 0 b 427 35 434 10 429 25 l 415 35 b 406 0 412 25 408 11 l 405 0 b 398 35 404 11 400 25 l 383 35 l 397 -12 l 412 -12 b 420 19 415 -3 419 9 l 420 19 b 428 -12 422 9 426 -3 l 443 -12 l 458 35 l 443 35 z m 473 56 b 473 41 463 56 463 41 b 482 48 479 41 482 44 b 473 56 482 53 479 56 z m 481 -12 l 481 35 l 466 35 l 466 -12 z m 523 36 b 508 28 515 36 510 31 l 507 28 l 507 35 l 493 35 b 494 -12 494 26 494 -2 l 509 -12 b 510 18 509 -10 509 17 b 526 13 513 28 528 26 l 526 -12 l 542 -12 l 542 15 b 523 36 542 30 533 36 z m 570 -12 l 570 57 l 554 57 l 554 -12 z m 605 36 b 579 11 587 36 579 22 b 625 -10 578 -12 607 -18 l 623 0 b 594 7 615 -3 596 -4 l 627 7 b 605 36 629 20 624 36 z m 594 17 b 613 17 595 29 613 29 z m 654 48 l 639 44 l 639 35 l 632 35 l 632 24 l 639 24 b 643 -9 639 15 637 -3 b 665 -12 647 -14 660 -14 l 665 0 b 654 8 659 -2 653 0 l 654 24 l 665 24 l 665 35 l 654 35 z m 691 48 l 676 44 l 676 35 l 670 35 l 670 24 l 676 24 b 680 -9 677 15 674 -3 b 702 -12 684 -14 697 -14 l 702 0 b 691 8 696 -2 690 0 l 691 24 l 702 24 l 702 35 l 691 35 z m 733 36 b 708 11 715 36 708 22 b 753 -10 707 -12 735 -18 l 751 0 b 723 7 743 -3 724 -4 l 756 7 b 733 36 758 20 753 36 z m 722 17 b 742 17 724 29 742 29 z m 779 26 l 779 26 l 778 35 l 765 35 b 765 -12 766 27 765 -2 l 781 -12 b 781 15 781 -11 781 14 b 796 22 781 21 790 24 l 796 36 b 779 26 790 37 782 35 z m 805 5 b 805 -13 794 5 793 -14 b 814 -4 811 -13 814 -9 b 805 5 814 1 811 5 z m 851 -1 b 837 12 843 -1 837 3 b 860 23 836 24 851 27 l 862 34 b 862 -11 806 50 808 -29 l 860 0 b 851 -1 858 -1 855 -1 z m 895 36 b 894 -13 858 37 858 -14 b 895 36 928 -15 931 36 z m 894 -2 b 894 25 880 -3 879 26 b 894 -2 909 26 907 -4 z m 989 36 b 973 28 982 36 977 33 l 973 28 b 944 28 968 40 948 37 l 943 28 l 943 35 l 930 35 b 930 -12 931 26 930 -2 l 945 -12 l 945 15 b 953 24 945 19 947 24 b 961 13 958 24 961 20 l 961 -12 l 976 -12 b 976 19 976 -9 975 17 b 992 13 980 28 993 25 l 992 -12 l 1007 -12 l 1007 15 b 989 36 1007 30 999 36 z m 268 92 l 268 97 l 248 97 l 248 92 z m 310 107 b 318 105 313 107 316 106 l 319 110 b 319 75 280 124 280 60 l 318 80 b 296 93 309 76 296 80 b 310 107 296 100 301 107 z m 361 93 b 324 92 361 119 323 119 b 361 93 323 67 361 66 z m 342 78 b 342 107 328 78 326 107 b 342 78 358 107 356 78 z m 393 96 l 393 74 l 400 74 l 400 97 b 408 107 400 102 403 107 b 416 95 414 107 416 102 l 416 74 l 423 74 l 423 96 b 398 105 423 116 405 116 l 398 105 b 375 105 395 115 379 114 l 375 105 l 375 112 l 369 112 b 369 74 370 105 369 81 l 376 74 b 377 100 376 76 375 98 b 393 96 380 110 394 109 z m 454 112 b 440 105 448 112 443 110 l 440 105 l 440 112 l 434 112 b 434 58 434 104 434 67 l 441 58 l 441 79 l 441 79 b 470 93 451 66 471 74 b 454 112 470 105 463 112 z m 452 78 b 441 86 447 78 442 82 b 441 96 441 88 441 94 b 452 107 441 102 446 107 b 452 78 467 107 466 77 z m 485 74 l 485 129 l 478 129 l 478 74 z m 494 84 b 517 79 493 72 511 70 l 517 79 l 518 74 l 524 74 b 523 97 523 79 523 91 b 497 109 524 112 509 116 l 498 105 b 516 98 506 110 518 108 b 494 84 502 98 494 93 z m 517 93 b 507 78 517 86 517 78 b 501 85 504 78 501 80 b 517 93 501 92 509 93 z m 542 121 l 536 118 l 536 112 l 530 112 l 530 106 l 536 106 b 538 76 536 100 534 80 b 552 74 541 72 548 72 l 551 79 b 542 86 547 78 542 79 l 542 106 l 552 106 l 552 112 l 542 112 l 542 121 z m 586 80 b 563 91 578 77 563 77 l 590 91 b 574 112 591 100 588 112 b 557 92 563 112 557 103 b 588 75 556 74 575 69 z m 574 107 b 583 96 581 107 583 101 l 563 96 b 574 107 564 101 567 107 z m 623 78 b 614 81 619 78 616 80 l 612 76 b 637 84 620 70 638 73 b 627 96 637 90 633 93 b 626 107 618 98 617 107 b 634 105 630 107 632 106 l 635 110 b 613 101 628 115 612 112 b 623 91 613 97 616 93 b 623 78 632 88 633 78 z m 676 95 b 660 112 676 102 673 112 b 643 92 650 112 643 103 b 674 75 642 74 661 69 l 673 80 b 649 91 664 77 649 77 l 676 91 b 676 95 676 92 676 93 z m 649 96 b 669 96 651 111 670 111 z m 693 121 l 686 118 l 686 112 l 680 112 l 680 106 l 686 106 b 689 76 687 100 684 80 b 702 74 691 72 699 72 l 702 79 b 693 86 697 78 692 79 l 693 106 l 703 106 l 703 112 l 693 112 z m 743 112 b 742 73 719 113 718 73 b 743 112 765 72 768 112 z m 742 78 b 743 107 728 78 726 107 b 742 78 759 107 756 78 z m 802 74 l 802 96 b 776 105 802 116 782 116 l 776 105 l 775 112 l 769 112 b 769 74 770 105 769 81 l 776 74 b 777 100 776 76 776 98 b 795 96 781 111 796 108 l 795 74 z m 845 92 l 845 97 l 826 97 l 826 92 z m 728 508 b 732 533 731 516 734 525 b 722 544 731 538 727 547 b 709 484 711 529 711 502 b 728 508 717 490 724 498 z m 531 598 b 502 598 523 598 511 597 b 500 468 506 555 501 511 b 506 418 499 453 498 429 b 539 440 518 403 534 431 b 554 491 547 455 550 474 b 560 555 558 512 559 534 b 560 598 560 558 562 598 b 531 598 551 598 540 598 z m 404 508 b 408 533 407 516 410 525 b 398 544 407 538 403 547 b 385 484 387 529 387 502 b 404 508 394 490 400 498 z m 1083 658 b 547 1193 1083 953 843 1193 b 160 287 76 1195 -164 620 l 68 287 l 68 154 l 1027 154 l 1027 287 l 934 287 b 1083 658 1026 383 1083 514 z m 970 250 b 969 183 1017 251 1014 182 b 970 250 922 183 925 251 z m 609 890 b 661 878 615 928 668 919 b 661 878 661 878 661 878 b 614 858 662 849 632 834 b 609 890 608 867 608 879 z m 597 763 b 605 821 600 792 598 794 b 655 814 612 849 656 843 b 647 722 652 784 647 753 b 651 696 646 714 645 703 b 669 705 656 689 666 700 b 682 738 675 715 679 727 b 695 836 694 770 695 803 b 718 859 696 849 705 859 b 741 836 731 859 740 849 b 743 764 743 812 743 788 b 813 860 754 798 766 865 b 837 783 844 849 838 809 b 833 725 837 764 833 745 b 845 697 833 716 834 701 b 882 713 858 693 874 705 b 913 862 916 754 929 812 b 834 904 905 885 861 932 b 803 885 819 888 813 860 b 807 921 800 894 799 906 b 928 905 834 967 902 939 b 853 659 986 826 950 687 b 790 814 760 638 783 759 b 787 823 790 816 792 829 b 765 768 776 808 771 786 b 749 704 759 747 754 725 b 723 663 745 688 743 666 b 694 689 707 661 696 674 b 694 706 694 694 694 701 b 631 664 684 678 665 649 b 597 763 592 679 595 729 z m 416 1048 b 562 990 470 1078 537 1040 b 584 760 598 921 589 835 b 508 661 582 717 567 646 b 472 704 488 667 478 685 b 395 680 462 660 425 640 b 377 754 380 701 379 730 b 375 836 375 781 375 809 b 402 863 376 851 387 862 b 428 836 416 863 428 850 b 427 770 428 813 428 793 b 443 703 429 752 423 702 b 460 732 453 705 458 724 b 472 815 464 749 466 796 b 512 812 480 833 512 831 b 514 733 512 789 513 749 b 552 719 514 696 543 678 b 506 1005 561 804 577 943 b 409 978 471 1036 419 1021 b 384 1000 406 967 381 974 b 416 1048 386 1026 402 1040 z m 154 894 b 366 955 194 955 301 953 b 485 926 402 955 458 955 b 490 911 489 922 491 917 b 452 900 488 896 463 900 b 347 904 417 902 382 905 b 341 768 344 859 342 813 b 356 596 338 710 341 652 b 333 586 359 582 341 585 b 287 753 273 604 289 704 b 293 901 288 802 290 852 b 290 901 292 901 291 901 b 182 877 274 900 174 901 b 224 874 188 868 215 873 b 224 845 242 875 242 847 b 168 851 206 844 184 841 b 154 894 153 860 147 878 z m 143 237 l 124 237 l 124 184 l 108 184 l 108 237 l 89 237 l 89 249 l 143 249 z m 210 184 l 195 184 l 195 211 l 167 211 l 167 184 l 151 184 l 151 249 l 167 249 l 167 224 l 195 224 l 195 249 l 210 249 z m 239 184 l 224 184 l 224 249 l 239 249 z m 270 183 b 250 188 262 183 254 185 l 253 200 b 282 202 259 196 282 191 b 271 211 282 206 279 209 b 251 231 259 214 251 220 b 296 247 250 250 281 254 l 292 235 b 276 238 289 236 284 238 b 280 223 263 237 263 227 b 270 183 308 216 304 182 z m 345 237 l 345 223 l 372 223 l 372 210 l 345 210 l 345 184 l 330 184 l 330 249 l 373 249 l 373 237 z m 416 183 b 417 250 370 183 372 251 b 416 183 464 251 462 182 z m 521 184 l 504 184 b 476 234 496 198 483 219 l 476 234 b 476 184 476 219 476 199 l 462 184 l 462 249 l 481 249 b 507 203 489 236 502 217 l 508 203 b 507 249 506 217 507 235 l 521 249 z m 564 237 l 564 184 l 549 184 l 549 237 l 529 237 l 529 249 l 584 249 l 584 237 z m 628 184 l 613 184 l 613 249 l 628 249 z m 660 183 b 639 188 652 183 644 185 l 643 200 b 672 202 648 196 671 191 b 660 211 672 206 669 209 b 640 231 649 214 640 220 b 685 247 639 250 670 254 l 681 235 b 666 238 678 236 673 238 b 669 223 652 237 652 227 b 660 183 698 216 693 182 z m 772 193 b 719 184 762 183 733 182 l 719 248 b 771 243 734 251 761 251 b 772 193 787 234 785 202 z m 839 184 l 793 184 l 793 249 l 837 249 l 837 237 l 809 237 l 809 224 l 835 224 l 835 211 l 809 211 l 809 197 l 839 197 z m 910 184 b 909 238 910 201 909 220 l 908 238 b 891 185 904 223 897 201 l 879 185 l 872 211 b 865 238 869 220 867 229 l 865 238 b 863 184 864 222 863 201 l 848 184 l 852 249 l 874 249 l 880 228 b 886 205 883 221 885 212 l 887 205 b 901 249 890 219 896 236 l 922 249 l 926 184 l 910 184 z m 911 315 b 756 325 860 348 796 328 b 221 297 578 310 400 281 b 224 332 199 299 201 334 b 756 349 401 307 579 329 b 927 324 783 352 930 384 b 911 315 926 312 920 310 z m 930 651 b 794 588 920 584 838 586 b 608 597 732 588 666 595 b 605 468 611 554 605 511 b 611 418 604 453 603 429 b 644 440 623 403 639 431 b 705 567 667 480 660 541 b 753 549 723 576 745 568 b 709 465 766 516 737 480 b 708 448 707 464 708 454 b 724 413 708 437 711 418 b 779 493 754 406 777 465 b 772 548 779 511 776 530 b 772 566 770 554 766 561 b 824 548 788 578 816 564 b 831 521 828 539 830 531 b 860 564 837 537 844 555 b 909 553 876 572 897 567 b 873 458 939 524 930 424 b 865 478 869 462 860 474 b 882 496 871 483 879 488 b 882 523 886 504 885 515 b 849 514 871 554 854 536 b 825 397 835 475 829 438 b 815 377 825 390 822 379 b 789 394 805 374 794 387 b 777 431 781 405 778 418 b 712 379 765 406 743 378 b 662 433 684 381 665 407 b 560 441 641 361 567 364 b 536 395 555 425 547 408 b 456 435 501 362 459 393 b 389 379 444 409 421 378 b 344 412 369 381 351 394 b 337 405 342 410 340 407 b 209 415 293 367 231 364 b 208 608 187 476 207 546 b 199 672 209 629 205 651 b 201 684 198 677 197 681 b 253 666 218 696 246 682 b 258 580 265 641 259 607 b 252 452 256 537 252 495 b 265 414 252 440 250 418 b 313 429 282 409 302 418 b 353 538 340 459 336 503 b 429 549 367 569 412 587 b 385 465 442 516 413 480 b 384 449 384 464 384 454 b 401 413 384 437 387 418 b 438 441 417 408 431 428 b 453 510 450 462 452 486 b 455 600 453 517 456 600 b 395 600 435 600 415 600 b 395 618 383 599 383 617 b 454 621 415 619 435 620 b 453 635 454 626 454 631 b 495 641 451 660 488 663 b 499 623 496 635 498 629 b 559 623 518 624 541 623 b 558 635 559 627 559 631 b 600 641 556 660 593 663 b 604 624 601 635 603 629 b 777 627 646 625 755 627 b 916 656 835 626 875 636 b 930 651 924 659 932 663 z m 969 195 b 969 238 994 194 994 239 b 969 195 945 239 945 194 z m 417 238 b 417 195 393 239 393 194 b 417 238 441 194 441 239 z m 743 238 b 735 237 739 238 736 238 l 735 196 b 767 218 751 193 767 200 b 743 238 767 231 757 238 z "},"&":{"ha":1100,"x_min":0,"x_max":0,"o":"m 146 7 b 143 -10 145 1 143 -4 l 143 -10 b 134 25 141 0 136 15 l 121 25 b 112 -10 119 15 114 1 l 112 -10 b 105 25 111 1 107 15 l 90 25 l 104 -22 l 119 -22 b 127 9 122 -13 125 -1 l 127 9 b 135 -22 129 -1 133 -13 l 150 -22 l 165 25 l 150 25 z m 225 7 b 222 -10 224 1 223 -4 l 222 -10 b 213 25 220 0 216 15 l 201 25 b 192 -10 198 15 194 1 l 192 -10 b 185 25 190 1 187 15 l 169 25 l 184 -22 l 198 -22 b 207 9 201 -13 205 -1 l 207 9 b 215 -22 208 -1 212 -13 l 229 -22 l 245 25 l 230 25 z m 305 7 b 302 -10 304 1 302 -4 l 302 -10 b 293 25 300 0 295 15 l 281 25 b 272 -10 278 15 273 1 l 271 -10 b 264 25 270 1 266 15 l 249 25 l 263 -22 l 278 -22 b 286 9 281 -13 285 -1 l 286 9 b 294 -22 288 -1 292 -13 l 309 -22 l 324 25 l 309 25 z m 334 -5 b 334 -23 323 -5 322 -24 b 343 -14 340 -23 343 -19 b 334 -5 343 -9 340 -5 z m 370 38 l 355 34 l 355 25 l 348 25 l 348 14 l 355 14 b 359 -19 355 5 353 -13 b 381 -22 362 -24 376 -24 l 381 -10 b 370 -2 374 -12 369 -11 l 370 14 l 381 14 l 381 25 l 370 25 z m 442 7 b 439 -10 440 1 439 -4 l 438 -10 b 430 25 437 0 432 15 l 417 25 b 408 -10 415 15 410 1 l 408 -10 b 401 25 407 1 403 15 l 386 25 l 400 -22 l 415 -22 b 423 9 417 -13 421 -1 l 423 9 b 431 -22 425 -1 428 -13 l 446 -22 l 461 25 l 446 25 z m 476 46 b 476 31 466 46 465 31 b 484 38 481 31 484 34 b 476 46 484 43 481 46 z m 484 -22 l 484 25 l 469 25 l 469 -22 z m 526 26 b 511 18 517 26 512 21 l 510 18 l 510 25 l 496 25 b 497 -22 497 16 497 -12 l 512 -22 b 512 8 512 -20 511 7 b 529 3 516 18 530 16 l 529 -22 l 545 -22 l 545 5 b 526 26 545 20 536 26 z m 573 -22 l 573 47 l 557 47 l 557 -22 z m 608 26 b 582 1 589 26 582 12 b 628 -20 581 -22 610 -28 l 626 -10 b 597 -3 618 -13 598 -14 l 630 -3 b 608 26 632 9 627 26 z m 597 7 b 616 7 598 19 616 19 z m 657 38 l 642 34 l 642 25 l 635 25 l 635 14 l 642 14 b 646 -19 642 5 640 -13 b 668 -22 649 -24 663 -24 l 667 -10 b 657 -2 661 -12 656 -10 l 657 14 l 668 14 l 668 25 l 657 25 z m 694 38 l 679 34 l 679 25 l 672 25 l 672 14 l 679 14 b 683 -19 679 5 677 -13 b 705 -22 687 -24 700 -24 l 705 -10 b 694 -2 699 -12 693 -10 l 694 14 l 705 14 l 705 25 l 694 25 z m 736 26 b 711 1 718 26 711 12 b 756 -20 709 -22 738 -28 l 754 -10 b 725 -3 746 -13 727 -14 l 758 -3 b 736 26 761 9 756 26 z m 725 7 b 745 7 726 19 745 19 z m 782 16 l 781 16 l 781 25 l 768 25 b 768 -22 768 17 768 -12 l 784 -22 b 784 5 784 -21 783 4 b 799 12 784 11 793 14 l 799 26 b 782 16 792 27 785 25 z m 808 -5 b 808 -23 796 -5 796 -24 b 817 -14 814 -23 817 -19 b 808 -5 817 -9 814 -5 z m 853 -11 b 839 2 846 -11 839 -7 b 862 13 838 14 854 17 l 865 24 b 865 -21 809 39 811 -39 l 863 -10 b 853 -11 861 -11 857 -11 z m 897 26 b 896 -23 860 27 861 -24 b 897 26 930 -25 934 26 z m 897 -12 b 897 15 883 -13 881 16 b 897 -12 912 16 910 -14 z m 992 26 b 976 18 985 26 980 23 l 976 18 b 947 18 971 30 951 27 l 946 18 l 946 25 l 933 25 b 933 -22 933 16 933 -12 l 948 -22 l 948 5 b 956 14 948 9 950 14 b 964 3 961 14 964 10 l 964 -22 l 979 -22 b 979 9 979 -19 978 7 b 995 3 983 18 996 15 l 995 -22 l 1009 -22 l 1009 5 b 992 26 1009 20 1001 26 z m 270 82 l 270 87 l 251 87 l 251 82 z m 312 97 b 320 95 316 97 319 96 l 322 100 b 322 65 283 114 283 50 l 321 70 b 299 83 312 66 299 70 b 312 97 299 90 304 97 z m 363 83 b 327 82 364 109 326 109 b 363 83 326 57 364 56 z m 345 68 b 345 97 330 68 329 97 b 345 68 361 97 359 68 z m 396 86 l 396 64 l 402 64 l 402 87 b 411 97 402 92 406 97 b 419 85 416 97 419 92 l 419 64 l 426 64 l 426 86 b 401 95 426 106 408 106 l 401 95 b 378 95 398 105 382 104 l 378 95 l 378 102 l 372 102 b 372 64 372 95 372 71 l 379 64 b 379 90 379 66 378 88 b 396 86 382 100 396 99 z m 457 102 b 443 95 450 102 446 100 l 443 95 l 443 102 l 437 102 b 437 48 437 94 437 57 l 444 48 l 444 69 l 444 69 b 473 83 453 56 473 64 b 457 102 473 95 466 102 z m 454 68 b 444 76 449 68 445 72 b 444 86 444 78 444 84 b 455 97 444 92 449 97 b 454 68 470 97 469 67 z m 488 64 l 488 119 l 481 119 l 481 64 z m 497 74 b 520 69 496 62 514 60 l 520 69 l 520 64 l 527 64 b 526 87 526 69 526 81 b 499 99 527 102 511 106 l 501 95 b 519 88 509 100 520 98 b 497 74 505 88 497 83 z m 519 83 b 510 68 520 76 519 68 b 503 75 506 68 503 70 b 519 83 503 82 512 83 z m 545 111 l 538 108 l 538 102 l 532 102 l 532 96 l 538 96 b 541 66 539 90 536 70 b 554 64 543 62 551 62 l 554 69 b 545 76 549 68 544 69 l 545 96 l 555 96 l 555 102 l 545 102 z m 589 70 b 566 81 581 67 566 67 l 592 81 b 577 102 593 90 591 102 b 559 82 566 102 559 93 b 590 65 558 64 578 59 z m 576 97 b 586 86 584 97 586 91 l 566 86 b 576 97 566 91 570 97 z m 626 68 b 617 71 622 68 619 70 l 615 66 b 640 74 623 60 640 63 b 630 86 640 80 636 83 b 629 97 621 88 620 97 b 636 95 632 97 635 96 l 638 100 b 616 91 631 105 615 102 b 626 81 616 87 619 83 b 626 68 635 78 636 68 z m 679 85 b 663 102 679 92 676 102 b 646 82 652 102 646 93 b 677 65 645 64 664 59 l 675 70 b 652 81 667 67 652 67 l 679 81 b 679 85 679 82 679 83 z m 652 86 b 672 86 653 101 673 101 z m 696 111 l 689 108 l 689 102 l 683 102 l 683 96 l 689 96 b 692 66 690 90 687 70 b 705 64 694 62 702 62 l 705 69 b 696 76 700 68 695 69 l 696 96 l 705 96 l 705 102 l 696 102 l 696 111 z m 745 102 b 745 63 721 103 720 63 b 745 102 768 62 771 102 z m 745 68 b 745 97 731 68 729 97 b 745 68 761 97 759 68 z m 804 64 l 804 86 b 779 95 804 106 785 106 l 778 95 l 778 102 l 772 102 b 772 64 773 95 772 71 l 779 64 b 780 90 779 66 779 88 b 797 86 783 101 799 98 l 797 64 z m 848 82 l 848 87 l 829 87 l 829 82 z m 731 498 b 735 523 734 506 736 515 b 725 534 733 528 729 537 b 712 474 713 519 713 492 b 731 498 720 480 727 488 z m 533 588 b 505 588 526 588 513 587 b 503 458 508 545 503 501 b 509 408 502 443 501 419 b 542 430 520 393 537 421 b 557 481 549 445 553 464 b 563 545 561 502 562 524 b 563 588 563 548 565 588 b 533 588 553 588 543 588 z m 407 498 b 411 523 410 506 413 515 b 401 534 410 528 406 537 b 388 474 390 519 390 492 b 407 498 397 480 403 488 z m 1085 648 b 550 1183 1085 943 846 1183 b 163 277 79 1185 -161 610 l 71 277 l 71 144 l 1030 144 l 1030 277 l 936 277 b 1085 648 1029 373 1085 504 z m 972 240 b 971 173 1020 241 1017 172 b 972 240 925 173 927 241 z m 612 880 b 664 868 618 918 671 909 b 664 868 664 868 664 868 b 617 848 665 839 635 824 b 612 880 611 857 610 869 z m 600 753 b 608 811 602 782 601 784 b 658 804 615 839 659 833 b 649 712 654 774 650 743 b 653 686 649 704 648 693 b 672 695 659 679 669 690 b 685 728 678 705 682 717 b 698 826 697 760 698 793 b 721 849 699 839 708 849 b 744 826 734 849 743 839 b 746 753 746 802 746 778 b 816 850 756 788 769 855 b 840 773 847 839 840 799 b 836 715 840 754 836 735 b 848 687 836 706 837 691 b 885 703 861 683 876 695 b 916 852 919 744 932 802 b 837 894 908 875 864 922 b 806 875 822 878 816 850 b 809 911 803 884 802 896 b 930 895 837 957 905 929 b 855 649 989 816 953 677 b 793 804 763 628 786 749 b 790 813 793 806 794 819 b 768 758 779 798 774 776 b 752 694 762 737 757 715 b 726 653 748 678 745 656 b 697 679 710 651 698 664 b 697 696 697 684 697 691 b 633 654 687 668 667 639 b 600 753 595 669 598 719 z m 419 1038 b 565 980 473 1068 539 1030 b 587 750 601 911 592 825 b 511 651 585 707 569 636 b 475 694 491 657 481 675 b 397 670 465 650 427 630 b 379 744 383 691 381 720 b 378 826 377 771 378 799 b 404 853 378 841 390 852 b 431 826 419 853 431 840 b 430 760 431 803 430 783 b 446 693 432 742 425 692 b 462 722 455 695 461 714 b 475 805 467 739 468 786 b 515 802 483 823 515 821 b 516 723 515 779 516 739 b 555 709 517 686 546 668 b 509 995 564 794 580 933 b 411 968 474 1026 421 1011 b 386 990 409 957 384 964 b 419 1038 389 1016 405 1030 z m 156 884 b 369 945 196 945 303 943 b 488 916 405 945 461 945 b 493 901 491 912 494 907 b 455 890 490 886 466 890 b 350 894 420 892 385 895 b 344 758 347 849 344 803 b 359 586 341 700 343 642 b 336 576 361 572 343 574 b 290 743 276 594 291 694 b 296 891 290 792 292 842 b 293 891 295 891 294 891 b 184 867 277 890 176 891 b 227 864 191 858 217 863 b 227 835 245 865 245 837 b 171 841 208 834 187 831 b 156 884 156 850 149 868 z m 146 227 l 126 227 l 126 174 l 111 174 l 111 227 l 91 227 l 91 239 l 146 239 z m 213 174 l 198 174 l 198 201 l 170 201 l 170 174 l 154 174 l 154 239 l 170 239 l 170 214 l 198 214 l 198 239 l 213 239 z m 242 174 l 226 174 l 226 239 l 242 239 z m 273 173 b 253 178 265 173 257 175 l 256 190 b 285 192 262 186 285 181 b 273 201 285 196 282 199 b 254 221 262 204 254 210 b 298 237 253 240 284 244 l 295 225 b 279 228 292 226 287 228 b 282 213 265 227 265 217 b 273 173 311 206 306 172 z m 348 227 l 348 213 l 374 213 l 374 200 l 348 200 l 348 174 l 333 174 l 333 239 l 376 239 l 376 227 z m 419 173 b 420 240 372 173 375 241 b 419 173 467 241 465 172 z m 524 174 l 507 174 b 479 224 498 188 485 208 l 478 224 b 479 174 479 209 479 189 l 465 174 l 465 239 l 484 239 b 510 193 492 226 505 207 l 511 193 b 509 239 509 207 509 225 l 524 239 z m 587 227 l 567 227 l 567 174 l 552 174 l 552 227 l 532 227 l 532 239 l 587 239 z m 631 174 l 616 174 l 616 239 l 631 239 z m 663 173 b 642 178 654 173 646 175 l 646 190 b 675 192 651 186 674 181 b 663 201 675 196 671 199 b 643 221 651 204 643 210 b 688 237 642 240 673 244 l 684 225 b 669 228 681 226 676 228 b 672 213 655 227 655 217 b 663 173 700 206 696 172 z m 774 183 b 722 174 765 173 735 172 l 722 238 b 774 233 737 241 764 241 b 774 183 790 224 788 192 z m 841 174 l 796 174 l 796 239 l 840 239 l 840 227 l 811 227 l 811 214 l 838 214 l 838 201 l 811 201 l 811 187 l 841 187 z m 913 174 b 912 228 912 191 911 210 l 911 228 b 894 175 907 213 899 191 l 882 175 l 874 201 b 868 228 872 210 870 219 l 868 228 b 865 174 867 212 866 191 l 851 174 l 855 239 l 876 239 l 883 218 b 889 195 885 211 887 202 l 889 195 b 904 239 893 209 899 226 l 925 239 l 928 174 l 913 174 z m 913 305 b 759 315 863 338 799 318 b 224 287 581 300 403 271 b 227 322 202 289 204 324 b 759 339 404 297 582 319 b 929 314 786 342 932 374 b 913 305 929 302 922 300 z m 933 641 b 796 578 923 574 840 576 b 611 587 735 578 669 585 b 608 458 614 544 608 501 b 614 408 607 443 606 419 b 647 430 625 393 642 421 b 708 557 670 470 663 531 b 756 539 726 566 748 558 b 712 455 769 506 740 470 b 711 438 710 454 710 444 b 727 403 711 427 714 408 b 782 483 757 396 780 455 b 774 538 782 501 779 520 b 775 556 773 544 769 551 b 827 538 791 568 819 554 b 834 511 831 529 833 521 b 863 554 840 527 847 545 b 912 543 879 562 900 557 b 876 448 942 514 933 414 b 867 468 871 452 863 464 b 885 486 874 473 881 478 b 885 513 889 494 888 505 b 852 504 874 544 857 526 b 828 387 838 465 831 428 b 818 367 828 380 825 369 b 791 384 808 364 796 377 b 780 421 784 395 781 408 b 715 369 768 396 746 368 b 665 423 687 371 668 397 b 563 431 644 351 570 354 b 539 385 558 415 550 398 b 459 425 504 352 462 383 b 391 369 447 399 424 368 b 347 402 372 371 353 384 b 340 395 345 400 343 397 b 212 405 296 357 234 354 b 211 598 190 466 210 536 b 202 662 212 619 208 641 b 204 674 200 667 200 671 b 256 656 220 686 248 672 b 261 570 268 631 262 597 b 255 442 259 527 254 485 b 268 404 255 430 252 408 b 316 419 284 399 304 408 b 356 528 343 449 339 493 b 432 539 370 559 415 577 b 388 455 445 506 416 470 b 387 439 386 454 387 444 b 403 403 387 427 390 408 b 441 431 420 398 434 418 b 456 500 453 452 454 476 b 458 590 456 507 459 590 b 398 590 438 590 418 590 b 398 608 386 589 386 607 b 457 611 418 609 437 610 b 456 625 457 616 456 621 b 497 631 454 650 491 653 b 502 613 499 625 500 619 b 562 613 521 614 544 613 b 561 625 562 617 562 621 b 603 631 559 650 596 653 b 607 614 604 625 606 619 b 779 617 649 615 757 617 b 919 646 837 616 878 626 b 933 641 926 649 935 653 z m 972 185 b 972 228 996 184 997 229 b 972 185 948 229 948 184 z m 420 228 b 420 185 395 229 395 184 b 420 228 444 184 444 229 z m 746 228 b 737 227 742 228 739 228 l 737 186 b 769 208 754 183 770 190 b 746 228 769 221 760 228 z "},"'":{"ha":213,"x_min":0,"x_max":0,"o":"m 25 952 b 25 792 25 899 25 845 b 187 792 25 688 186 688 b 187 952 187 845 187 899 b 25 952 187 1056 26 1057 z "},"(":{"ha":553,"x_min":0,"x_max":0,"o":"m 369 1139 b 279 1096 345 1139 318 1123 b 222 -61 -18 885 -74 246 b 331 -116 253 -93 287 -116 b 431 -44 384 -116 408 -87 b 403 73 451 -7 430 36 b 472 1009 261 269 293 807 b 369 1139 511 1054 436 1139 z "}}}
